<svg width="68" height="68" viewBox="0 0 68 68" fill="none" xmlns="http://www.w3.org/2000/svg">
<g clip-path="url(#clip0_2953_38687)">
<path d="M28.0148 46.6648C40.6095 46.6648 50.8187 36.4542 50.8187 23.8596C50.8187 11.2663 40.6095 1.05566 28.0148 1.05566C15.4202 1.05566 5.21094 11.2663 5.21094 23.8596H28.0148V46.6648Z" fill="#9DC6FB"/>
<path d="M36.6498 54.5947H30.0532C28.9365 54.5947 28.0312 55.5 28.0312 56.6167V66.9442H38.6718V56.6167C38.6718 55.5 37.7665 54.5947 36.6498 54.5947Z" fill="#9DC6FB"/>
<path d="M33.4234 54.5957C32.3065 54.5957 31.402 55.5002 31.402 56.6171V66.9446H28.0312V56.6171C28.0312 55.5002 28.937 54.5957 30.0527 54.5957H33.4234Z" fill="#80B4FB"/>
<path d="M50.8178 28.5674H44.2212C43.1045 28.5674 42.1992 29.4726 42.1992 30.5893V66.9441H52.8398V30.5893C52.8398 29.4726 51.9345 28.5674 50.8178 28.5674Z" fill="#F6E266"/>
<path d="M47.5901 28.5684C46.4745 28.5684 45.5687 29.4728 45.5687 30.5898V66.9445H42.1992V30.5898C42.1992 29.4728 43.1037 28.5684 44.2206 28.5684H47.5901Z" fill="#FFC250"/>
<path d="M64.9819 43.6436H58.3852C57.2685 43.6436 56.3633 44.5488 56.3633 45.6655V66.9443H67.0038V45.6655C67.0038 44.5488 66.0986 43.6436 64.9819 43.6436Z" fill="#DD636E"/>
<path d="M61.7555 43.6437C60.6385 43.6437 59.7341 44.5481 59.7341 45.6651V66.9443H56.3633V45.665C56.3633 44.548 57.2691 43.6436 58.386 43.6436H61.7555V43.6437Z" fill="#CB5769"/>
<path d="M23.8 50.8814V28.0762H0.996094C0.996094 40.6706 11.2054 50.8814 23.8 50.8814Z" fill="#DD636E"/>
<path d="M36.65 53.5986H30.0533C28.3892 53.5986 27.0352 54.9525 27.0352 56.6167V66.9442C27.0352 67.4943 27.481 67.9403 28.0312 67.9403H38.6718C39.222 67.9403 39.6679 67.4943 39.6679 66.9442V56.6167C39.6679 54.9525 38.3141 53.5986 36.65 53.5986ZM37.6757 65.9482H29.0273V56.6168C29.0273 56.0511 29.4875 55.591 30.0533 55.591H36.65C37.2156 55.591 37.6758 56.0511 37.6758 56.6168V65.9482H37.6757Z" fill="black"/>
<path d="M51.5163 27.654C51.7166 26.4055 51.8189 25.1339 51.8189 23.8596C51.8189 18.7999 50.2307 14.105 47.5282 10.2444L49.1548 7.34593H62.6278C63.1781 7.34593 63.6239 6.89995 63.6239 6.34984C63.6239 5.79973 63.1781 5.35374 62.6278 5.35374H48.5715C48.2113 5.35374 47.8791 5.54818 47.7029 5.86241L46.207 8.52809C41.8378 3.35292 35.3062 0.0595703 28.0187 0.0595703C22.1694 0.0595703 16.5471 2.20117 12.1872 6.08966C11.7767 6.45582 11.7407 7.08548 12.1069 7.49601C12.4733 7.90666 13.103 7.94266 13.5134 7.57636C17.5077 4.0138 22.6592 2.05176 28.0189 2.05176C34.9656 2.05176 41.1641 5.31682 45.1606 10.3929L41.0927 17.6418C40.8235 18.1215 40.9941 18.7288 41.4739 18.998C41.6279 19.0844 41.7953 19.1256 41.9603 19.1256C42.3088 19.1256 42.6472 18.9423 42.8299 18.6168L46.4352 12.1923C48.5817 15.5684 49.8267 19.5712 49.8267 23.8596C49.8267 25.1079 49.7191 26.3527 49.5099 27.5717H44.2219C42.5581 27.5717 41.2044 28.9253 41.2044 30.5892V41.2314C37.653 43.9352 33.4666 45.4504 29.0148 45.6468V23.8596C29.0148 23.3095 28.569 22.8635 28.0187 22.8635H6.23285C6.43605 18.2634 8.04747 13.9447 10.9238 10.3196C11.2658 9.88863 11.1935 9.26215 10.7627 8.92016C10.3317 8.57817 9.7051 8.65015 9.36324 9.08126C5.99777 13.323 4.21875 18.4333 4.21875 23.8596C4.21875 24.4097 4.6646 24.8557 5.21484 24.8557H27.0227V46.6648C27.0227 47.2149 27.4685 47.6609 28.0187 47.6609C32.7826 47.6609 37.3018 46.2901 41.2044 43.6789V66.9439C41.2044 67.4941 41.6502 67.94 42.2005 67.94H52.8399C53.3902 67.94 53.836 67.4941 53.836 66.9439V59.4653C53.836 58.9152 53.3902 58.4692 52.8399 58.4692C52.2897 58.4692 51.8438 58.9152 51.8438 59.4653V65.9479H43.1966V30.5892C43.1966 30.0238 43.6565 29.5639 44.2219 29.5639H50.8187C51.3841 29.5639 51.844 30.0238 51.844 30.5892V55.4809C51.844 56.031 52.2898 56.477 52.8401 56.477C53.3903 56.477 53.8362 56.031 53.8362 55.4809V30.5892C53.8362 29.1654 52.8447 27.9697 51.5163 27.654Z" fill="black"/>
<path d="M64.9819 42.6475H58.3852C56.7211 42.6475 55.3672 44.0014 55.3672 45.6655V66.9443C55.3672 67.4944 55.813 67.9404 56.3633 67.9404H67.004C67.5542 67.9404 68 67.4944 68 66.9443V45.6655C68 44.0014 66.6462 42.6475 64.9819 42.6475ZM66.0079 65.9483H57.3595V45.6655C57.3595 45.0998 57.8197 44.6396 58.3854 44.6396H64.982C65.5478 44.6396 66.008 45.0998 66.008 45.6655V65.9483H66.0079Z" fill="black"/>
<path d="M23.8 27.0801H0.996094C0.445852 27.0801 0 27.5261 0 28.0762C0 38.4033 6.61154 47.2139 15.8233 50.5009L13.0668 56.478H2.35012C1.79987 56.478 1.35402 56.924 1.35402 57.4741C1.35402 58.0242 1.79987 58.4702 2.35012 58.4702H13.7041C14.0927 58.4702 14.4459 58.2441 14.6087 57.8913L17.7428 51.0955C19.6776 51.6051 21.7074 51.8776 23.8 51.8776C24.3502 51.8776 24.7961 51.4317 24.7961 50.8815V28.0763C24.7961 27.5261 24.3502 27.0801 23.8 27.0801ZM22.8039 49.863C21.3589 49.7977 19.9504 49.5901 18.5914 49.2556L19.8054 46.6232C20.0357 46.1235 19.8176 45.5319 19.318 45.3014C18.8186 45.071 18.2267 45.2893 17.9964 45.7887L16.6611 48.6842C8.43067 45.8243 2.42555 38.1647 2.01463 29.0721H22.8039V49.863Z" fill="black"/>
<path d="M2.35156 54.1816H10.627C11.1772 54.1816 11.6231 53.7357 11.6231 53.1855C11.6231 52.6354 11.1772 52.1895 10.627 52.1895H2.35156C1.80132 52.1895 1.35547 52.6354 1.35547 53.1855C1.35547 53.7357 1.80145 54.1816 2.35156 54.1816Z" fill="black"/>
<path d="M52.8125 3.37988H62.626C63.1763 3.37988 63.6221 2.9339 63.6221 2.38379C63.6221 1.83368 63.1763 1.3877 62.626 1.3877H52.8125C52.2623 1.3877 51.8164 1.83368 51.8164 2.38379C51.8164 2.9339 52.2624 3.37988 52.8125 3.37988Z" fill="black"/>
<path d="M56.7773 23.4346C56.7773 23.9847 57.2232 24.4307 57.7734 24.4307H65.0104C65.5606 24.4307 66.0065 23.9847 66.0065 23.4346C66.0065 22.8845 65.5606 22.4385 65.0104 22.4385H57.7734C57.2232 22.4385 56.7773 22.8843 56.7773 23.4346Z" fill="black"/>
<path d="M65.0104 26.7314H57.7734C57.2232 26.7314 56.7773 27.1774 56.7773 27.7275C56.7773 28.2776 57.2232 28.7236 57.7734 28.7236H65.0104C65.5606 28.7236 66.0065 28.2776 66.0065 27.7275C66.0065 27.1774 65.5606 26.7314 65.0104 26.7314Z" fill="black"/>
<path d="M65.0104 31.0244H57.7734C57.2232 31.0244 56.7773 31.4704 56.7773 32.0205C56.7773 32.5706 57.2232 33.0166 57.7734 33.0166H65.0104C65.5606 33.0166 66.0065 32.5706 66.0065 32.0205C66.0065 31.4704 65.5606 31.0244 65.0104 31.0244Z" fill="black"/>
</g>
<defs>
<clipPath id="clip0_2953_38687">
<rect width="68" height="68" fill="white"/>
</clipPath>
</defs>
</svg>

