<svg width="68" height="68" viewBox="0 0 68 68" fill="none" xmlns="http://www.w3.org/2000/svg">
<g clip-path="url(#clip0_2953_38410)">
<path d="M9.3998 34.1365C9.23538 34.1631 9.06804 34.1806 8.89618 34.1806C8.192 34.1806 7.54388 33.9468 7.019 33.5566C6.78525 34.6986 6.76241 36.4116 7.65385 38.6402C8.66561 41.17 4.8523 43.2727 5.18911 46.8002L8.99578 45.8391C9.44682 45.7255 9.88483 45.5645 10.3021 45.3589L12.1689 44.4385C12.8859 44.085 13.3398 43.355 13.3398 42.5558V40.2661C11.1272 39.0599 9.57724 36.7784 9.3998 34.1365Z" fill="#FCDD86"/>
<path d="M27.3995 49.7697C25.8892 50.0127 24.5579 48.9935 24.2915 47.5977C21.5181 52.4644 18.7032 50.1894 17.5039 48.8033C17.4054 48.6894 17.3624 48.5552 17.3594 48.4224H16.5036C16.5007 48.5552 16.4576 48.6894 16.3591 48.8033C15.0389 50.3291 11.7619 52.9335 8.73672 45.9043L3.59767 47.2016C2.28389 47.5323 1.33747 48.679 1.26229 50.0318L0.665435 66.4273C0.63781 66.9205 1.03067 67.3357 1.52473 67.3357H6.30519C6.62659 67.3357 6.88717 67.0751 6.88717 66.7537V56.5051L7.73133 59.2092C8.28329 60.9772 8.56406 62.8188 8.56406 64.671V66.7535C8.56406 67.0749 8.82464 67.3355 9.14604 67.3355H20.6882L20.9419 62.7067C21.0046 61.582 21.7911 60.6287 22.8834 60.3538L26.0286 59.5622C26.2042 58.9571 26.3463 58.5316 26.9756 56.5049V59.3237L27.9483 59.0788L29.4573 58.3347C29.5211 58.2808 30.9953 57.8035 30.9953 56.1752V55.1624C28.9824 54.1509 27.5578 52.1271 27.3995 49.7697Z" fill="#FC657E"/>
<path d="M24.5866 45.7605C23.7464 45.509 23.3432 45.2309 22.1341 44.6553C21.1576 45.7988 19.6343 47.2419 17.8054 47.8093C17.3751 47.9429 17.2094 48.4627 17.5042 48.8035C18.7035 50.1898 21.5183 52.4646 24.2917 47.5979C24.1661 46.9399 24.2854 46.3 24.5866 45.7605Z" fill="#EDF4FC"/>
<path d="M16.0575 47.8093C14.2287 47.2422 12.7053 45.7988 11.7289 44.6553L10.3022 45.3586C9.88489 45.5642 9.44714 45.7252 8.99584 45.8389L8.73633 45.9045C11.7615 52.9337 15.0385 50.3293 16.3587 48.8035C16.6533 48.4627 16.4878 47.9427 16.0575 47.8093Z" fill="#EDF4FC"/>
<path d="M21.6932 44.4381C20.9762 44.0845 20.5223 43.3546 20.5223 42.5553V40.2656C19.4526 40.8487 18.2286 41.1804 16.9308 41.1804C15.6329 41.1804 14.4089 40.8487 13.3395 40.2656V42.5553C13.3395 43.3546 12.8856 44.0845 12.1687 44.4381L11.7285 44.6551C12.705 45.7986 14.2283 47.2417 16.0571 47.8091C16.3435 47.8981 16.5087 48.1581 16.5029 48.4224H17.3587C17.3529 48.1579 17.5181 47.8978 17.8044 47.8091C19.6333 47.242 21.1566 45.7986 22.133 44.6551L21.6932 44.4381Z" fill="#F9D0B4"/>
<path d="M27.0758 55.8488C26.7515 55.7978 26.4394 55.9947 26.3419 56.3084C26.0996 57.0888 25.9296 57.6314 25.8021 58.0386C25.6244 58.606 25.5285 58.9118 25.4356 59.2273C25.3317 59.5787 25.5325 59.9482 25.8842 60.0521C25.9469 60.0707 26.0104 60.0797 26.0725 60.0797C26.3042 60.0797 26.5212 59.9575 26.6412 59.7583C26.7395 59.816 26.854 59.8489 26.9762 59.8489C27.343 59.8489 27.6403 59.5517 27.6403 59.1848V56.5055C27.6403 56.1769 27.4004 55.898 27.0758 55.8488Z" fill="black"/>
<path d="M20.6879 66.6715H9.228V64.671C9.228 62.7498 8.93767 60.8455 8.36499 59.0111L7.52083 56.307C7.42308 55.9939 7.1115 55.797 6.78691 55.8483C6.46258 55.898 6.22299 56.1766 6.22299 56.5049V66.6715H1.52488C1.45103 66.6715 1.40349 66.6327 1.38197 66.6101C1.36019 66.587 1.32433 66.5379 1.32911 66.4513L1.92517 50.0683C1.98467 49 2.72205 48.1064 3.76011 47.8453L8.89916 46.548C9.25483 46.4582 9.47025 46.0972 9.38047 45.7415C9.29069 45.3861 8.92944 45.1715 8.57403 45.2602L3.43552 46.5573C1.83088 46.961 0.691079 48.3423 0.598376 50.0072L0.00231337 66.3902C-0.020796 66.8064 0.130079 67.2195 0.416954 67.5225C0.703829 67.8259 1.10758 67.9996 1.52488 67.9996H6.30533C6.99224 67.9996 7.55138 67.4407 7.55138 66.7538V61.1781C7.78327 62.3261 7.90014 63.4954 7.90014 64.671V66.7538C7.90014 67.4407 8.45902 67.9996 9.14592 67.9996H20.6881C21.055 67.9996 21.3522 67.7024 21.3522 67.3355C21.3522 66.9687 21.0547 66.6715 20.6879 66.6715Z" fill="black"/>
<path d="M26.8423 33.5566C26.3174 33.9468 25.6696 34.1806 24.9651 34.1806C24.7933 34.1806 24.6259 34.1631 24.4615 34.1365C24.2843 36.7784 22.7341 39.0599 20.5215 40.2658V42.5555C20.5215 43.3547 20.9754 44.0847 21.6924 44.4382L23.5592 45.3586C23.8893 45.5215 24.2328 45.6548 24.585 45.7602C24.7582 45.4503 24.9901 45.178 25.2658 44.9575C25.2653 44.9578 25.265 44.9581 25.2645 44.9586V42.5874C25.2645 41.1679 25.6053 39.8286 26.2061 38.6436C26.2067 38.6423 26.2069 38.641 26.2075 38.6399C27.0989 36.4116 27.076 34.6986 26.8423 33.5566Z" fill="#FCDD86"/>
<path d="M24.9665 27.876C24.8016 27.876 24.6401 27.8898 24.482 27.9145V33.6305C24.482 33.8007 24.4743 33.9692 24.4629 34.1368C24.6273 34.1633 24.7947 34.1808 24.9665 34.1808C26.7074 34.1808 28.119 32.7696 28.119 31.0284C28.119 29.2875 26.7074 27.876 24.9665 27.876Z" fill="#F9D0B4"/>
<path d="M24.0173 26.9551C23.2534 26.778 22.3256 26.3354 21.2623 25.3694C21.0519 25.1784 20.7276 25.1941 20.5427 25.4097C19.3928 26.7519 15.3152 30.824 9.38086 29.1338V33.6303C9.38086 37.7831 12.7785 41.1807 16.9312 41.1807C21.084 41.1807 24.4816 37.7831 24.4816 33.6303V27.5302C24.4819 27.2529 24.2877 27.0178 24.0173 26.9551Z" fill="#F9D0B4"/>
<path d="M9.38108 33.6303V29.1338C8.86258 28.9861 8.33027 28.7951 7.78414 28.554C7.43219 28.3986 7.02073 28.47 6.73997 28.7333C6.12744 29.3075 5.74414 30.1222 5.74414 31.0283C5.74414 32.7692 7.15541 34.1807 8.89658 34.1807C9.06844 34.1807 9.23578 34.1632 9.4002 34.1366C9.38905 33.969 9.38108 33.8006 9.38108 33.6303Z" fill="#F9D0B4"/>
<path d="M16.9313 16.6885C11.2843 16.6885 6.66406 21.3088 6.66406 26.9557V28.8111C6.68983 28.7853 6.7132 28.7577 6.73977 28.7327C7.02053 28.4695 7.43172 28.3978 7.78394 28.5534C8.33006 28.7946 8.86238 28.9856 9.38088 29.1333C15.3152 30.8237 19.3928 26.7514 20.5427 25.4092C20.7276 25.1935 21.0519 25.1776 21.2623 25.3688C22.3256 26.3349 23.2534 26.7774 24.0173 26.9546C24.2875 27.0173 24.4817 27.2524 24.4817 27.5297V27.9138C24.6397 27.8894 24.8012 27.8753 24.9662 27.8753C25.8385 27.8753 26.6276 28.2296 27.1985 28.802V26.9554C27.1985 21.3088 22.5782 16.6885 16.9313 16.6885Z" fill="#FCDD86"/>
<path d="M24.9658 27.2119C24.8479 27.2119 24.7316 27.2178 24.6165 27.2286C24.2513 27.2626 23.9828 27.5862 24.0168 27.9514C24.0508 28.3164 24.3738 28.5804 24.7395 28.5512C24.8142 28.5443 24.8893 28.5403 24.9658 28.5403C26.3381 28.5403 27.4542 29.6565 27.4542 31.0287C27.4542 32.4006 26.3381 33.5168 24.9658 33.5168C24.8867 33.5168 24.8086 33.5117 24.7318 33.5035C24.3645 33.4647 24.0396 33.7274 24 34.0921C23.9605 34.4568 24.2239 34.7844 24.5887 34.8239C24.7172 34.838 24.8442 34.8449 24.9658 34.8449C27.0701 34.8449 28.7823 33.133 28.7823 31.0287C28.7821 28.9241 27.0701 27.2119 24.9658 27.2119Z" fill="black"/>
<path d="M19.6601 35.6172C19.3788 35.3813 18.9602 35.4185 18.7246 35.6995C18.3561 36.1391 17.7271 36.4016 17.0416 36.4016C16.356 36.4016 15.727 36.1394 15.3586 35.6995C15.1232 35.4187 14.7046 35.3816 14.423 35.6172C14.142 35.8528 14.1051 36.2717 14.3407 36.5527C14.9583 37.2893 15.9679 37.7294 17.0416 37.7294C18.1152 37.7294 19.1249 37.2895 19.7424 36.5527C19.9781 36.2717 19.9411 35.8528 19.6601 35.6172Z" fill="black"/>
<path d="M24.1671 26.3081C23.3798 26.1257 22.5527 25.6446 21.7085 24.8775C21.4748 24.665 21.1595 24.5553 20.8466 24.5744C20.531 24.5943 20.2441 24.7375 20.0385 24.9776C18.9883 26.2035 15.129 30.0808 9.56281 28.495C9.36253 28.4377 9.14711 28.4783 8.98083 28.6037C8.81455 28.7293 8.7168 28.9253 8.7168 29.1336V33.6301C8.7168 38.1598 12.4018 41.8448 16.9312 41.8448C21.4607 41.8448 25.1457 38.1598 25.1457 33.6301V27.5303C25.146 26.9446 24.7438 26.442 24.1671 26.3081ZM23.8178 33.6301C23.8178 37.4275 20.7286 40.5167 16.9315 40.5167C13.1344 40.5167 10.0452 37.4275 10.0452 33.6301V29.9799C15.7335 31.151 19.6752 27.3969 20.9366 25.9689C21.8947 26.8134 22.8632 27.3582 23.8178 27.59V33.6301Z" fill="black"/>
<path d="M7.51559 29.1613C8.07314 29.4076 8.63972 29.6132 9.19912 29.7725C9.55134 29.8732 9.91923 29.6684 10.0196 29.3157C10.12 28.9629 9.91552 28.5955 9.56277 28.4951C9.06206 28.3525 8.55392 28.1682 8.05216 27.9464C7.4553 27.6823 6.76228 27.8016 6.28575 28.2492C5.51942 28.9674 5.08008 29.9808 5.08008 31.0284C5.08008 33.133 6.79203 34.8449 8.89658 34.8449C9.00336 34.8449 9.10828 34.8393 9.21241 34.8298C9.57764 34.796 9.84619 34.4722 9.81219 34.1073C9.77845 33.7418 9.45466 33.4711 9.08969 33.5072C9.02594 33.5131 8.96166 33.5165 8.89631 33.5165C7.52409 33.5165 6.40794 32.4004 6.40794 31.0281C6.40794 30.3359 6.68711 29.6931 7.19392 29.2176C7.28131 29.1361 7.40775 29.1132 7.51559 29.1613Z" fill="black"/>
<path d="M16.9313 16.0244C10.9037 16.0244 6 20.9281 6 26.9557V28.6538C6 29.0206 6.29723 29.3179 6.66406 29.3179C7.03089 29.3179 7.32812 29.0206 7.32812 28.6538V26.9557C7.32812 21.6604 11.636 17.3525 16.9313 17.3525C22.2265 17.3525 26.5344 21.6607 26.5344 26.9557V28.6095C26.5344 28.9763 26.8316 29.2735 27.1985 29.2735C27.5653 29.2735 27.8625 28.9763 27.8625 28.6095V26.9557C27.8625 20.9281 22.9588 16.0244 16.9313 16.0244Z" fill="black"/>
<path d="M27.528 33.6006C27.4638 33.2397 27.1185 32.9977 26.7577 33.0635C26.3968 33.1278 26.1561 33.4726 26.2204 33.8336C26.4613 35.1864 26.244 36.7632 25.5919 38.3933C25.5882 38.4029 25.5847 38.4124 25.5813 38.4217C25.4625 38.7562 25.6283 39.1272 25.9606 39.26C26.0416 39.2925 26.125 39.3079 26.2071 39.3079C26.4706 39.3079 26.72 39.1498 26.8239 38.8903C26.8255 38.886 26.8271 38.8821 26.8287 38.8776C27.5806 36.9937 27.816 35.2183 27.528 33.6006Z" fill="black"/>
<path d="M8.27062 38.393C7.61798 36.7618 7.40096 35.1847 7.64242 33.8316C7.70696 33.4707 7.46657 33.1256 7.10559 33.0613C6.74434 32.9965 6.39956 33.2369 6.33527 33.5982C6.04601 35.2187 6.28215 36.9979 7.03759 38.8862C7.40442 39.8034 6.91779 40.6757 6.09329 42.0235C5.29854 43.323 4.39754 44.7956 4.51415 46.6842C4.53593 47.0361 4.82812 47.3073 5.17635 47.3073C5.19017 47.3073 5.20398 47.3068 5.21779 47.306C5.58382 47.2834 5.8622 46.9684 5.83962 46.6024C5.74878 45.1316 6.49996 43.9041 7.22618 42.7168C8.05095 41.3688 8.9036 39.975 8.27062 38.393Z" fill="black"/>
<path d="M25.202 45.511C25.1263 45.3245 24.9701 45.1824 24.7772 45.1245C24.4564 45.0283 24.1458 44.9067 23.8542 44.7632L22.4275 44.0599C22.155 43.9252 21.8261 43.9932 21.6291 44.224C20.7259 45.2815 19.295 46.6521 17.6088 47.1751C17.1859 47.3061 16.8613 47.6362 16.7405 48.0583C16.6226 48.4716 16.72 48.9126 17.0019 49.2377C17.8035 50.1639 19.0583 51.2262 20.5971 51.2262C20.7047 51.2262 20.8138 51.2209 20.9241 51.2102C22.381 51.0673 23.7081 49.9626 24.8686 47.9266C24.947 47.789 24.9738 47.6283 24.9441 47.4731C24.8519 46.9902 24.9286 46.5097 25.1664 46.0839C25.2647 45.9083 25.2777 45.6974 25.202 45.511ZM23.6005 47.466C22.7003 48.9792 21.7571 49.7944 20.7947 49.8885C19.6525 50.0027 18.6062 49.047 18.0567 48.4262C19.8116 47.8649 21.2829 46.5833 22.2955 45.4751L23.2672 45.9546C23.4106 46.0252 23.5575 46.0914 23.7073 46.1527C23.5854 46.5764 23.5487 47.0192 23.6005 47.466Z" fill="black"/>
<path d="M17.1221 48.0582C17.0013 47.6361 16.6769 47.3059 16.2541 47.175C14.5674 46.6517 13.1367 45.2814 12.2336 44.2239C12.0362 43.9931 11.7074 43.9253 11.4351 44.0597L10.0084 44.7631C9.63443 44.9475 9.23918 45.0928 8.83304 45.195L8.57352 45.2606C8.38493 45.3084 8.22688 45.4362 8.14082 45.6105C8.05476 45.785 8.04944 45.9882 8.12648 46.1669C9.44371 49.2275 11.0013 50.9171 12.7561 51.1883C12.9189 51.2136 13.0828 51.226 13.2475 51.226C14.4736 51.226 15.7393 50.5341 16.861 49.2378C17.1426 48.9122 17.2401 48.471 17.1221 48.0582ZM12.959 49.8759C11.8219 49.7 10.6892 48.4808 9.66152 46.3364C9.9816 46.231 10.2942 46.1029 10.5957 45.9544L11.5671 45.4753C12.5794 46.5834 14.0504 47.8648 15.806 48.4264C15.2338 49.0732 14.1458 50.0576 12.959 49.8759Z" fill="black"/>
<path d="M22.4282 44.0596L21.9878 43.8426C21.4943 43.5993 21.1875 43.1063 21.1875 42.5554V40.4912C21.1875 40.1244 20.8903 39.8271 20.5234 39.8271C20.1566 39.8271 19.8594 40.1244 19.8594 40.4912V42.5554C19.8594 43.6155 20.4501 44.5651 21.4005 45.0337L21.8407 45.2507C21.935 45.2972 22.0351 45.3195 22.1339 45.3195C22.3788 45.3195 22.6144 45.1832 22.73 44.9489C22.8923 44.6201 22.7571 44.2219 22.4282 44.0596Z" fill="black"/>
<path d="M17.3129 47.7588H16.5508C16.184 47.7588 15.8867 48.056 15.8867 48.4229C15.8867 48.7897 16.184 49.0869 16.5508 49.0869H17.3129C17.6797 49.0869 17.9769 48.7897 17.9769 48.4229C17.9769 48.056 17.6797 47.7588 17.3129 47.7588Z" fill="black"/>
<path d="M13.3397 39.8438C12.9729 39.8438 12.6756 40.141 12.6756 40.5078V42.5555C12.6756 43.1062 12.3691 43.5994 11.875 43.8427L11.4349 44.0597C11.106 44.222 10.9708 44.6202 11.1331 44.9493C11.2489 45.1836 11.4843 45.3199 11.7292 45.3199C11.8277 45.3199 11.9281 45.2976 12.0224 45.2511L12.4623 45.0341C13.413 44.5655 14.0037 43.6159 14.0037 42.5558V40.5078C14.0037 40.141 13.7065 39.8438 13.3397 39.8438Z" fill="black"/>
<path d="M58.299 26.5451C58.2945 26.3177 58.1126 26.1304 57.8852 26.1238C54.5558 26.0263 52.8014 24.7067 52.1275 24.0458C51.9434 23.8654 51.6465 23.8846 51.486 24.0862C48.5588 27.7675 44.2406 27.2479 42.7887 26.944C42.5249 26.8888 42.2718 27.0877 42.2715 27.3573V33.8096C42.2715 38.2177 45.8779 41.8241 50.2859 41.8241C54.694 41.8241 58.3004 38.2177 58.3004 33.8096V26.6704C58.3001 26.6285 58.2998 26.5868 58.299 26.5451Z" fill="#F9C1A8"/>
<path d="M56.5578 18.044C55.7038 18.044 54.9054 18.2851 54.2193 18.6969C53.4179 17.3592 51.9577 16.4561 50.2933 16.4561H47.9425C43.3927 16.4561 39.6699 20.1788 39.6699 24.7287V28.4355C40.2423 27.9773 40.9675 27.7018 41.7577 27.7018C41.9328 27.7018 42.1044 27.7167 42.272 27.7427V27.3576C42.2723 27.088 42.5254 26.8893 42.7892 26.9443C44.2411 27.2481 48.5593 27.7677 51.4865 24.0864C51.647 23.8848 51.9439 23.8657 52.128 24.046C52.8022 24.7069 54.5563 26.0263 57.8857 26.124C58.1128 26.1306 58.295 26.3179 58.2995 26.5453C58.3003 26.587 58.3009 26.6287 58.3009 26.6707V27.7427C58.4687 27.7167 58.6401 27.7018 58.8151 27.7018C59.7172 27.7018 60.5342 28.0604 61.1359 28.6408V22.622C61.1359 20.1041 59.0757 18.044 56.5578 18.044Z" fill="#414344"/>
<path d="M58.8137 27.7021C58.6387 27.7021 58.4671 27.7168 58.2995 27.7431V33.8105C58.2995 33.9911 58.2913 34.1701 58.2793 34.3478C58.4538 34.376 58.6315 34.3946 58.8137 34.3946C60.6617 34.3946 62.1598 32.8964 62.1598 31.0485C62.1598 29.2003 60.6617 27.7021 58.8137 27.7021Z" fill="#F9C1A8"/>
<path d="M42.2705 33.8105V27.7431C42.1026 27.717 41.9313 27.7021 41.7562 27.7021C39.9083 27.7021 38.4102 29.2003 38.4102 31.0482C38.4102 32.8962 39.9083 34.3943 41.7562 34.3943C41.9387 34.3943 42.1162 34.3757 42.2907 34.3476C42.2787 34.1701 42.2705 33.9914 42.2705 33.8105Z" fill="#F9C1A8"/>
<path d="M66.4476 50.2453C66.3706 48.8633 65.404 47.6921 64.0618 47.3543L57.8377 45.7876L55.6378 44.703C54.6921 44.2369 54.0934 43.274 54.0934 42.2197V40.8555C52.9589 41.4733 51.6608 41.8247 50.2846 41.8247C49.0014 41.8247 47.7872 41.5174 46.709 40.9753V42.2197C46.709 43.274 46.1103 44.2366 45.1647 44.703L43.1762 45.6835C44.358 47.6446 42.7196 50.1417 40.41 49.7701V49.7698C40.2567 52.0529 38.9167 54.0244 37.0039 55.0659V56.1762C37.0039 57.8037 38.4789 58.2823 38.5419 58.3357L40.0509 59.0797L45.1161 60.3547C46.2083 60.6297 46.9949 61.583 47.0575 62.7074L47.3112 67.3362H66.4556C66.9603 67.3362 67.3617 66.912 67.3335 66.4081L66.4476 50.2453Z" fill="#70D6F9"/>
<path d="M55.639 44.703C54.6933 44.2369 54.0946 43.274 54.0946 42.2197V40.8555C52.9601 41.4733 51.662 41.8247 50.2858 41.8247C49.0026 41.8247 47.7884 41.5174 46.7102 40.9753V42.2197C46.7102 43.274 46.1115 44.2366 45.1659 44.703L44.8203 44.8733C45.8642 46.899 47.9778 48.2932 50.4024 48.2932C52.827 48.2932 54.9404 46.8987 55.9845 44.8733L55.639 44.703Z" fill="#F9C1A8"/>
<path d="M58.9634 26.5324C58.9517 25.948 58.4866 25.4771 57.9051 25.4606C54.7551 25.3679 53.1406 24.1091 52.5926 23.572C52.3711 23.3553 52.068 23.2437 51.7575 23.2604C51.4483 23.2796 51.1598 23.4304 50.9665 23.6737C48.3182 27.0036 44.46 26.6166 42.9249 26.2947C42.6006 26.2277 42.267 26.3077 42.0093 26.5167C41.7543 26.7237 41.6077 27.0302 41.6074 27.3635V33.8105C41.6074 38.596 45.5007 42.489 50.2859 42.489C55.0712 42.489 58.9644 38.596 58.9644 33.8105V26.6713L58.9634 26.5324ZM57.6366 33.81C57.6366 37.8632 54.3391 41.1604 50.2862 41.1604C46.2333 41.1604 42.9358 37.8632 42.9358 33.81V27.6491C44.5737 27.9389 48.8486 28.2677 51.8478 24.6937C52.7291 25.4856 54.5293 26.6363 57.6366 26.7797V33.81Z" fill="black"/>
<path d="M56.5581 17.3806C55.8276 17.3806 55.1041 17.5373 54.4344 17.8377C53.446 16.563 51.9102 15.793 50.2933 15.793H47.9425C43.0149 15.793 39.0059 19.802 39.0059 24.7297V28.4365C39.0059 28.6917 39.1522 28.9244 39.3823 29.0349C39.6125 29.1457 39.8856 29.1143 40.0848 28.955C40.5659 28.5701 41.1441 28.3666 41.7577 28.3666C41.8905 28.3666 42.0292 28.3777 42.1705 28.3995C42.362 28.4282 42.557 28.3735 42.7042 28.2476C42.8513 28.1212 42.936 27.9371 42.936 27.7434V27.6497C44.5736 27.9392 48.8489 28.2678 51.848 24.6943C52.7294 25.4862 54.5295 26.6368 57.6368 26.7803V27.7434C57.6368 27.9371 57.7215 28.1214 57.8687 28.2476C58.0158 28.3738 58.2105 28.4288 58.4023 28.3995C58.5436 28.3777 58.6823 28.3666 58.8151 28.3666C59.511 28.3666 60.1714 28.6341 60.675 29.1196C60.8015 29.2413 60.9675 29.3056 61.1361 29.3056C61.2238 29.3056 61.312 29.2883 61.3957 29.2527C61.6408 29.1483 61.7999 28.9079 61.7999 28.6415V22.6227C61.8002 19.7322 59.4486 17.3806 56.5581 17.3806ZM60.4721 27.3965C60.0017 27.1822 59.4914 27.0605 58.9652 27.0411L58.9639 26.5327C58.9522 25.9483 58.4871 25.4774 57.9056 25.4609C54.7556 25.3682 53.1411 24.1094 52.5931 23.5723C52.3716 23.3556 52.0685 23.244 51.758 23.2607C51.4488 23.2799 51.1603 23.4307 50.967 23.6741C48.3187 27.0042 44.4607 26.6167 42.9254 26.295C42.6011 26.228 42.2675 26.308 42.0098 26.517C41.8403 26.6546 41.719 26.8358 41.6563 27.0398C41.2028 27.0515 40.7553 27.1413 40.334 27.3017V24.7294C40.334 20.5341 43.7473 17.1208 47.9425 17.1208H50.2933C51.6547 17.1208 52.9408 17.8558 53.6498 19.0389C53.7403 19.1898 53.8872 19.299 54.058 19.3417C54.2288 19.3848 54.4097 19.3577 54.5609 19.2673C55.1699 18.9018 55.8608 18.7087 56.5581 18.7087C58.7163 18.7087 60.4721 20.4645 60.4721 22.6227V27.3965Z" fill="black"/>
<path d="M61.502 53.3838C61.1351 53.3838 60.8379 53.681 60.8379 54.0479V67.1294C60.8379 67.4962 61.1351 67.7934 61.502 67.7934C61.8688 67.7934 62.166 67.4962 62.166 67.1294V54.0479C62.166 53.681 61.8688 53.3838 61.502 53.3838Z" fill="black"/>
<path d="M39.3008 53.3838C38.934 53.3838 38.6367 53.681 38.6367 54.0479V58.5924C38.6367 58.9593 38.934 59.2565 39.3008 59.2565C39.6676 59.2565 39.9648 58.9593 39.9648 58.5924V54.0479C39.9648 53.681 39.6676 53.3838 39.3008 53.3838Z" fill="black"/>
<path d="M58.8137 27.0381C58.6134 27.0381 58.4059 27.0546 58.1979 27.0867C57.8744 27.1366 57.6354 27.4153 57.6354 27.7431V33.8105C57.6354 33.9566 57.6295 34.113 57.6168 34.3032C57.5937 34.6456 57.8354 34.9492 58.174 35.0036C58.4049 35.0408 58.6142 35.0586 58.8139 35.0586C61.0253 35.0586 62.8241 33.2598 62.8241 31.0485C62.8241 28.8372 61.025 27.0381 58.8137 27.0381ZM58.9635 33.7263V28.3705C60.3729 28.4486 61.4957 29.6197 61.4957 31.0485C61.4959 32.477 60.3731 33.6482 58.9635 33.7263Z" fill="black"/>
<path d="M42.9345 33.8105V27.7431C42.9345 27.4155 42.6958 27.1369 42.372 27.0867C42.1637 27.0546 41.9565 27.0381 41.7562 27.0381C39.5449 27.0381 37.7461 28.8369 37.7461 31.0485C37.7461 33.2596 39.5449 35.0586 41.7562 35.0586C41.9557 35.0586 42.1653 35.0408 42.3961 35.0036C42.7348 34.9492 42.9763 34.6456 42.9534 34.3035C42.9407 34.1127 42.9345 33.9563 42.9345 33.8105ZM41.6064 33.7265C40.197 33.6484 39.0742 32.4773 39.0742 31.0488C39.0742 29.62 40.197 28.4488 41.6064 28.3707V33.7265Z" fill="black"/>
<path d="M46.7101 40.5C46.3433 40.5 46.046 40.7972 46.046 41.1641V42.2202C46.046 43.0274 45.5963 43.7507 44.8722 44.1077L42.9781 45.0417C42.6492 45.2037 42.5138 45.6019 42.676 45.931C42.7916 46.1655 43.0272 46.3018 43.2721 46.3018C43.3707 46.3018 43.4708 46.2797 43.5654 46.233L45.4598 45.299C46.6408 44.7165 47.3744 43.5366 47.3744 42.2202V41.1641C47.3742 40.7972 47.0767 40.5 46.7101 40.5Z" fill="black"/>
<path d="M67.9978 66.3719L67.1117 50.2086C67.0179 48.5272 65.8579 47.1215 64.2248 46.71L58.069 45.1609L55.9326 44.1074C55.2085 43.7502 54.7588 43.0272 54.7588 42.2199V41.1279C54.7588 40.7611 54.4615 40.4639 54.0947 40.4639C53.7279 40.4639 53.4306 40.7611 53.4306 41.1279V42.2199C53.4306 43.5364 54.1643 44.716 55.3453 45.2988L57.5452 46.3833C57.5871 46.404 57.6312 46.4205 57.6767 46.4319L63.9008 47.9983C64.967 48.2669 65.7246 49.1846 65.7857 50.2819L66.6718 66.4452C66.6763 66.5257 66.637 66.5799 66.6131 66.6051C66.5894 66.6303 66.5374 66.6726 66.4569 66.6726H47.3125C46.9457 66.6726 46.6484 66.9698 46.6484 67.3366C46.6484 67.7034 46.9457 68.0007 47.3125 68.0007H66.4569C66.8792 68.0007 67.2878 67.8248 67.5781 67.518C67.8682 67.2107 68.0212 66.7929 67.9978 66.3719Z" fill="black"/>
<path d="M56.1991 44.5012C55.8799 44.3212 55.4745 44.4346 55.2947 44.7536C54.2949 46.5272 52.4206 47.6287 50.4027 47.6287C48.368 47.6287 46.486 46.5136 45.491 44.7185C45.3133 44.3976 44.909 44.2813 44.5884 44.4595C44.2675 44.6372 44.1517 45.0415 44.3294 45.3621C45.5585 47.5793 47.8856 48.9566 50.4027 48.9566C52.899 48.9566 55.2171 47.5958 56.4515 45.4054C56.6318 45.0861 56.5187 44.6813 56.1991 44.5012Z" fill="black"/>
<path d="M53.0944 35.6424C52.8132 35.4066 52.3945 35.444 52.1589 35.7251C51.7862 36.1697 51.1495 36.4353 50.456 36.4353C49.7624 36.4353 49.126 36.1697 48.7533 35.7251C48.5177 35.444 48.0988 35.4071 47.8178 35.6424C47.5365 35.8781 47.4996 36.2967 47.7352 36.5777C48.3573 37.3201 49.3744 37.7632 50.456 37.7632C51.5376 37.7632 52.5547 37.3201 53.1768 36.5777C53.4121 36.2967 53.3755 35.8778 53.0944 35.6424Z" fill="black"/>
<path d="M53.7577 30.2969C53.1754 30.2969 52.7031 30.7689 52.7031 31.3514C52.7031 31.9337 53.1751 32.4059 53.7577 32.4059C54.3402 32.4059 54.8122 31.9339 54.8122 31.3514C54.8122 30.7692 54.3402 30.2969 53.7577 30.2969Z" fill="black"/>
<path d="M47.1795 30.2969C46.5973 30.2969 46.125 30.7689 46.125 31.3514C46.125 31.9337 46.597 32.4059 47.1795 32.4059C47.762 32.4059 48.2341 31.9339 48.2341 31.3514C48.2341 30.7692 47.7618 30.2969 47.1795 30.2969Z" fill="black"/>
<path d="M20.2889 30.8281C19.7067 30.8281 19.2344 31.3001 19.2344 31.8827C19.2344 32.4649 19.7064 32.9372 20.2889 32.9372C20.8714 32.9372 21.3434 32.4652 21.3434 31.8827C21.3434 31.3004 20.8714 30.8281 20.2889 30.8281Z" fill="black"/>
<path d="M13.7108 30.8281C13.1285 30.8281 12.6562 31.3001 12.6562 31.8827C12.6562 32.4649 13.1283 32.9372 13.7108 32.9372C14.2933 32.9372 14.7653 32.4652 14.7653 31.8827C14.7653 31.3004 14.293 30.8281 13.7108 30.8281Z" fill="black"/>
<path d="M39.7107 43.6605H39.7033C37.6551 43.6605 35.8393 42.6678 34.7093 41.1376C34.3536 40.656 33.6452 40.656 33.2898 41.1376C32.1595 42.6676 30.344 43.6605 28.2958 43.6605C28.231 43.6605 28.1664 43.6594 28.1021 43.6573C27.7077 43.6445 27.3828 43.9622 27.3828 44.3569V49.3326C27.3828 52.9199 30.3177 55.8548 33.905 55.8548C37.4922 55.8548 40.4271 52.9199 40.4271 49.3326V44.3617C40.4269 43.9688 40.1039 43.6599 39.7107 43.6605Z" fill="#F9C1A8"/>
<path d="M34.0002 33.8535C29.1762 33.8535 25.2656 37.764 25.2656 42.5881V44.9593C25.7315 44.5864 26.3215 44.3622 26.9646 44.3622C27.1069 44.3622 27.2467 44.3741 27.3832 44.3954V44.3571C27.3832 43.9624 27.708 43.6447 28.1025 43.6575C28.1668 43.6596 28.2313 43.6607 28.2961 43.6607C30.3444 43.6607 32.1602 42.668 33.2902 41.1377C33.6458 40.6562 34.3543 40.6562 34.7097 41.1377C35.8399 42.6677 37.6554 43.6607 39.7037 43.6607H39.7111C40.1042 43.6601 40.427 43.9688 40.427 44.3619V44.3951C40.5635 44.3739 40.703 44.3619 40.8456 44.3619C41.5795 44.3619 42.2444 44.6538 42.7342 45.1258V42.5875C42.7347 37.764 38.8242 33.8535 34.0002 33.8535Z" fill="#414344"/>
<path d="M40.8453 44.3613C40.7029 44.3613 40.5632 44.3733 40.4266 44.3945V49.332C40.4266 49.4791 40.42 49.6247 40.4102 49.7695C40.552 49.7923 40.6968 49.8074 40.845 49.8074C42.349 49.8074 43.5679 48.5882 43.5679 47.0845C43.5684 45.5805 42.3492 44.3613 40.8453 44.3613Z" fill="#F9C1A8"/>
<path d="M27.3837 49.332V44.3945C27.2472 44.3733 27.1077 44.3613 26.9651 44.3613C25.4611 44.3613 24.2422 45.5805 24.2422 47.0842C24.2422 48.5882 25.4614 49.8072 26.9651 49.8072C27.1136 49.8072 27.2581 49.792 27.3999 49.7692C27.3906 49.6247 27.3837 49.4791 27.3837 49.332Z" fill="#F9C1A8"/>
<path d="M47.058 62.7069C46.9953 61.5823 46.2087 60.6292 45.1165 60.3543L40.0513 59.0793L38.261 58.1966C37.4915 57.8173 37.0043 57.0337 37.0043 56.1757V55.0654C36.081 55.5683 35.0246 55.8543 33.9047 55.8543C32.8606 55.8543 31.8722 55.6041 30.9948 55.1629V56.1757C30.9948 57.0337 30.5077 57.817 29.7381 58.1966L27.9478 59.0793L22.8826 60.3543C21.7904 60.6292 21.0036 61.5825 20.9412 62.7072L20.6875 67.3357H47.3116L47.058 62.7069Z" fill="#F5C84C"/>
<path d="M38.2612 58.1966C37.4917 57.8173 37.0045 57.0337 37.0045 56.1757V55.0654C36.0812 55.5683 35.0248 55.8543 33.9049 55.8543C32.8607 55.8543 31.8724 55.6041 30.995 55.1629V56.1757C30.995 57.0337 30.5078 57.817 29.7383 58.1966L29.457 58.3353C30.3068 59.9837 32.0264 61.1185 33.9997 61.1185C35.9731 61.1185 37.6927 59.9837 38.5425 58.3353L38.2612 58.1966Z" fill="#F9C1A8"/>
<path d="M43.0332 63.3477C42.6664 63.3477 42.3691 63.6449 42.3691 64.0117V67.2654C42.3691 67.6322 42.6664 67.9294 43.0332 67.9294C43.4 67.9294 43.6973 67.6322 43.6973 67.2654V64.0117C43.6973 63.6449 43.4 63.3477 43.0332 63.3477Z" fill="black"/>
<path d="M24.9668 63.3477C24.6 63.3477 24.3027 63.6449 24.3027 64.0117V67.2654C24.3027 67.6322 24.6 67.9294 24.9668 67.9294C25.3336 67.9294 25.6309 67.6322 25.6309 67.2654V64.0117C25.6309 63.6449 25.3336 63.3477 24.9668 63.3477Z" fill="black"/>
<path d="M40.8458 43.6973C40.7207 43.6973 40.5919 43.7047 40.4628 43.7198C40.0986 43.7621 39.8375 44.0917 39.8797 44.4559C39.922 44.8201 40.2492 45.0814 40.616 45.0389C40.6915 45.0302 40.768 45.0251 40.8458 45.0251C41.9811 45.0251 42.9047 45.949 42.9047 47.0842C42.9047 48.2193 41.9811 49.1431 40.8458 49.1431C40.7738 49.1431 40.6992 49.1381 40.6176 49.128C40.254 49.0796 39.922 49.341 39.8763 49.7046C39.8309 50.0685 40.089 50.4003 40.4529 50.4457C40.5895 50.4627 40.718 50.4712 40.8458 50.4712C42.7134 50.4712 44.2328 48.9519 44.2328 47.0842C44.2328 45.2166 42.7137 43.6973 40.8458 43.6973Z" fill="black"/>
<path d="M27.8751 49.7272C27.8382 49.3625 27.5136 49.0956 27.1476 49.1335C27.0873 49.1394 27.0265 49.1434 26.9648 49.1434C25.8296 49.1434 24.906 48.2195 24.906 47.0845C24.906 45.9492 25.8296 45.0254 26.9648 45.0254C27.0198 45.0254 27.0743 45.028 27.1282 45.0326C27.4948 45.0634 27.8151 44.7932 27.8467 44.4277C27.8783 44.0622 27.6074 43.7406 27.2419 43.7092C27.1508 43.7015 27.0583 43.6973 26.9651 43.6973C25.0975 43.6973 23.5781 45.2169 23.5781 47.0845C23.5781 48.9521 25.0975 50.4715 26.9651 50.4715C27.0719 50.4715 27.1773 50.4657 27.2815 50.4548C27.6462 50.4181 27.9121 50.0922 27.8751 49.7272Z" fill="black"/>
<path d="M47.7214 62.6702C47.6423 61.2478 46.6605 60.0581 45.279 59.7101L40.2821 58.4526L38.555 57.601C38.0083 57.3314 37.6689 56.7856 37.6689 56.176V55.2832C37.6689 54.9164 37.3716 54.6191 37.0048 54.6191C36.638 54.6191 36.3407 54.9164 36.3407 55.2832V56.176C36.3407 57.2953 36.9642 58.2975 37.9677 58.7924L39.758 59.675C39.8 59.6958 39.8441 59.712 39.8895 59.7237L44.9547 60.9987C45.7696 61.2035 46.3487 61.9052 46.3952 62.7435L46.6109 66.6716H21.3892L21.6047 62.7438C21.6514 61.905 22.2302 61.2032 23.0451 60.9984L28.1103 59.7234C28.1558 59.7117 28.1999 59.6958 28.2418 59.6748L30.0319 58.7921C31.0357 58.2975 31.6591 57.295 31.6591 56.1757V55.3937C31.6591 55.0269 31.3619 54.7296 30.995 54.7296C30.6282 54.7296 30.331 55.0269 30.331 55.3937V56.1757C30.331 56.7853 29.9915 57.3314 29.4448 57.6008L27.7178 58.4524L22.7208 59.7098C21.339 60.0578 20.3578 61.2473 20.2784 62.6705L20.0245 67.2993C20.0144 67.4815 20.0797 67.6595 20.2053 67.792C20.331 67.9246 20.5055 67.9997 20.688 67.9997H47.3121C47.4946 67.9997 47.6688 67.9248 47.7942 67.7923C47.9196 67.6597 47.9849 67.4815 47.9751 67.2995L47.7214 62.6702Z" fill="black"/>
<path d="M38.7869 57.9046C38.4663 57.7258 38.062 57.8408 37.8835 58.1612C37.0941 59.5756 35.6063 60.4546 34.0009 60.4546C32.4175 60.4546 30.9398 59.5937 30.1445 58.2074C29.962 57.8892 29.5562 57.7789 29.2379 57.962C28.9197 58.1444 28.81 58.5503 28.9925 58.8683C30.0239 60.666 31.9431 61.7827 34.0009 61.7827C36.0874 61.7827 38.0195 60.6429 39.0432 58.8082C39.2217 58.4879 39.107 58.0833 38.7869 57.9046Z" fill="black"/>
<path d="M36.2705 50.7285C35.9895 50.4926 35.5706 50.5298 35.335 50.8108C35.0547 51.1453 34.5721 51.345 34.044 51.345C33.516 51.345 33.0333 51.1453 32.7531 50.8108C32.5178 50.5301 32.0989 50.4932 31.8176 50.7285C31.5365 50.9644 31.4996 51.383 31.7352 51.664C32.2649 52.2957 33.1282 52.6729 34.044 52.6729C34.9599 52.6729 35.8232 52.2957 36.3528 51.664C36.5885 51.383 36.5515 50.9644 36.2705 50.7285Z" fill="black"/>
<path d="M36.7313 46.4736C36.2574 46.4736 35.873 46.8577 35.873 47.3319C35.873 47.8057 36.2571 48.1898 36.7313 48.1898C37.2052 48.1898 37.5895 47.8057 37.5895 47.3319C37.5893 46.8577 37.2052 46.4736 36.7313 46.4736Z" fill="black"/>
<path d="M31.3778 46.4736C30.9039 46.4736 30.5195 46.8577 30.5195 47.3319C30.5195 47.8057 30.9036 48.1898 31.3778 48.1898C31.8516 48.1898 32.236 47.8057 32.236 47.3319C32.2357 46.8577 31.8516 46.4736 31.3778 46.4736Z" fill="black"/>
<path d="M40.6925 43.3999C40.2473 42.9553 39.737 43.0015 39.7102 42.9959C39.6828 42.9893 36.9937 43.1117 35.2437 40.7429C34.9478 40.3421 34.4944 40.1123 33.9998 40.1123C33.5052 40.1123 33.0518 40.3421 32.7559 40.7429C31.7138 42.1539 30.0465 42.9959 28.2958 42.9959C28.2381 42.9959 28.1808 42.9949 28.1236 42.993C27.7547 42.9808 27.4011 43.1171 27.1342 43.3752C26.8662 43.6348 26.7188 43.983 26.7188 44.3562V49.3319C26.7188 53.2942 29.9424 56.5181 33.905 56.5181C37.8676 56.5181 41.0912 53.2942 41.0912 49.3319V44.361C41.0912 43.9981 40.9496 43.6565 40.6925 43.3999ZM39.7631 49.3324C39.7631 52.5624 37.1352 55.1905 33.905 55.1905C30.6747 55.1905 28.0469 52.5624 28.0469 49.3324V44.3565C28.0469 44.3519 28.0469 44.34 28.0806 44.3206C28.1521 44.323 28.2238 44.3241 28.2958 44.3241C30.4659 44.3241 32.5325 43.2802 33.824 41.5318C33.8829 41.4521 33.9594 41.4402 33.9998 41.4402C34.0402 41.4402 34.1167 41.4521 34.1756 41.5318C35.4671 43.2802 37.5337 44.3241 39.7038 44.3241H39.7123C39.7341 44.3241 39.7469 44.3326 39.7631 44.3615V49.3324Z" fill="black"/>
<path d="M34.0002 33.1895C28.8178 33.1895 24.6016 37.4055 24.6016 42.5878V44.8246C24.6016 45.1915 24.8988 45.4887 25.2656 45.4887C25.6325 45.4887 25.9297 45.1915 25.9297 44.8246V42.5878C25.9297 38.1378 29.5502 34.5176 34.0002 34.5176C38.4502 34.5176 42.0704 38.1378 42.0704 42.5878V44.8578C42.0704 45.2247 42.3676 45.5219 42.7345 45.5219C43.1013 45.5219 43.3985 45.2247 43.3985 44.8578V42.5878C43.3985 37.4055 39.1825 33.1895 34.0002 33.1895Z" fill="black"/>
<path d="M40.2732 7.79577C38.582 6.22088 35.9196 6.34174 34.2855 7.97586C34.1274 8.13391 33.8711 8.13391 33.7131 7.97586C32.0789 6.34174 29.4166 6.22061 27.7253 7.79577C25.9499 9.44929 25.9127 12.2301 27.6135 13.9309L33.1186 19.4363C33.6049 19.9226 34.3933 19.9226 34.8797 19.4363L40.3848 13.9309C42.0858 12.2301 42.0486 9.44929 40.2732 7.79577Z" fill="#FC657E"/>
<path d="M40.7263 7.3098C38.8701 5.58059 35.9046 5.60927 33.9996 7.33212C32.0942 5.60901 29.1291 5.58085 27.2729 7.3098C26.284 8.23099 25.7261 9.48102 25.702 10.8293C25.6781 12.1784 26.1902 13.4468 27.1441 14.4004L32.6491 19.9057C33.0096 20.2662 33.4893 20.4649 33.9993 20.4649C34.5093 20.4649 34.989 20.2665 35.3495 19.9057L40.8546 14.4004C41.8084 13.4465 42.3205 12.1784 42.2966 10.8293C42.273 9.48076 41.7152 8.23073 40.7263 7.3098ZM39.9158 13.4614L34.4108 18.9668C34.1911 19.1862 33.8083 19.1862 33.5886 18.9668L28.0833 13.4614C27.3866 12.7647 27.0126 11.8384 27.0301 10.853C27.0474 9.86804 27.4554 8.95482 28.1781 8.28146C28.8472 7.65831 29.7153 7.35018 30.5919 7.35018C31.5492 7.35018 32.516 7.71807 33.2436 8.44562C33.6604 8.86185 34.3382 8.86159 34.755 8.44535C36.1487 7.05188 38.4212 6.97884 39.8205 8.28146C40.5435 8.95482 40.9512 9.86804 40.9685 10.853C40.9866 11.8382 40.6126 12.7647 39.9158 13.4614Z" fill="black"/>
<path d="M26.1485 4.21859C24.9537 3.99626 24.0121 3.07375 23.785 1.9034C23.7735 1.8447 23.6915 1.8447 23.68 1.9034C23.4529 3.07375 22.5113 3.99626 21.3165 4.21859C21.2565 4.22975 21.2565 4.31023 21.3165 4.32139C22.5113 4.54398 23.4529 5.4665 23.68 6.63684C23.6915 6.69554 23.7735 6.69554 23.785 6.63684C24.0121 5.4665 24.9537 4.54398 26.1485 4.32139C26.2085 4.31023 26.2085 4.23001 26.1485 4.21859Z" fill="#F5C84C"/>
<path d="M48.3139 11.6743C47.5457 11.5312 46.9401 10.938 46.794 10.1855C46.7866 10.1478 46.734 10.1478 46.7265 10.1855C46.5804 10.938 45.9751 11.5314 45.2066 11.6743C45.1681 11.6815 45.1681 11.7333 45.2066 11.7405C45.9748 11.8837 46.5804 12.4768 46.7265 13.2293C46.734 13.267 46.7866 13.267 46.794 13.2293C46.9401 12.4768 47.5455 11.8834 48.3139 11.7405C48.3524 11.7333 48.3524 11.6818 48.3139 11.6743Z" fill="#70D6F9"/>
<path d="M4.55602 19.2055H3.93738V18.5866C3.93738 18.1234 3.56205 17.748 3.0988 17.748C2.63555 17.748 2.26022 18.1234 2.26022 18.5866V19.2055H1.64131C1.17806 19.2055 0.802734 19.5809 0.802734 20.0441C0.802734 20.5074 1.17806 20.8827 1.64131 20.8827H2.26022V21.5016C2.26022 21.9648 2.63555 22.3402 3.0988 22.3402C3.56205 22.3402 3.93738 21.9646 3.93738 21.5016V20.8827H4.55602C5.01927 20.8827 5.39459 20.5074 5.39459 20.0441C5.39486 19.5809 5.01927 19.2055 4.55602 19.2055Z" fill="#FC657E"/>
<path d="M29.3404 1.79403C29.8358 1.79403 30.2374 1.39242 30.2374 0.897016C30.2374 0.401608 29.8358 0 29.3404 0C28.845 0 28.4434 0.401608 28.4434 0.897016C28.4434 1.39242 28.845 1.79403 29.3404 1.79403Z" fill="#87D147"/>
<path d="M0.897016 26.2969C0.401625 26.2969 0 26.6985 0 27.1939C0 27.6893 0.401625 28.0909 0.897016 28.0909C1.39241 28.0909 1.79403 27.6893 1.79403 27.1939C1.79403 26.6985 1.39241 26.2969 0.897016 26.2969Z" fill="#F5C84C"/>
</g>
<defs>
<clipPath id="clip0_2953_38410">
<rect width="68" height="68" fill="white"/>
</clipPath>
</defs>
</svg>
