<svg width="68" height="82" viewBox="0 0 68 82" fill="none" xmlns="http://www.w3.org/2000/svg">
<path d="M62.5139 22.4395V24.1863C62.5139 27.0101 60.7591 29.3873 58.423 29.7419L54.2333 30.3592C53.9043 30.4117 53.5752 30.438 53.2462 30.438C51.4365 30.438 49.6817 29.7025 48.2668 28.3497L47.8281 27.9294C48.8043 25.5128 49.3526 22.7941 49.3526 19.9309C49.3526 17.9214 49.0784 15.9907 48.5849 14.1782C50.0875 12.0111 52.3249 10.7371 54.7159 10.7371H57.1288C59.2126 10.7371 61.2417 10.0016 62.9746 8.62257C63.3913 8.28109 63.8739 8.11035 64.3784 8.11035C65.0804 8.11035 65.7055 8.45183 66.1662 8.99032C66.6159 9.54195 66.901 10.2906 66.901 11.1312C66.901 12.5233 66.4733 13.8105 65.7604 14.7955C65.4533 15.2158 65.1023 15.5704 64.7075 15.8725V17.6981C64.7075 19.6813 63.841 21.4413 62.5139 22.4395Z" fill="#E6E9ED"/>
<path d="M20.1776 27.9294H20.1667L19.7279 28.3497C18.3131 29.7025 16.5583 30.438 14.7486 30.438C14.4196 30.438 14.0905 30.4117 13.7615 30.3592L9.57181 29.7419C7.23569 29.3873 5.48085 27.0101 5.48085 24.1863V22.4395C4.15375 21.4413 3.2873 19.6813 3.2873 17.6981V15.8725C2.89246 15.5704 2.54149 15.2158 2.2344 14.7955C1.52149 13.8105 1.09375 12.5233 1.09375 11.1312C1.09375 10.2906 1.37891 9.54195 1.82859 8.99032C2.28923 8.45183 2.9144 8.11035 3.61633 8.11035C4.12085 8.11035 4.60343 8.28109 5.0202 8.62257C6.7531 10.0016 8.78214 10.7371 10.866 10.7371H13.2789C15.6589 10.7371 17.9073 12.0111 19.4099 14.1782C18.9163 15.9907 18.6421 17.9214 18.6421 19.9309C18.6421 22.7941 19.1905 25.5128 20.1776 27.9294Z" fill="#E6E9ED"/>
<path d="M22.1213 26.7217C21.8361 27.0763 21.5839 27.4703 20.9039 29.5455C20.6407 29.0201 20.3884 28.4816 20.18 27.93C19.1929 25.5133 18.6445 22.7946 18.6445 19.9314C18.6445 17.9219 18.9187 15.9913 19.4123 14.1788C21.4303 6.83691 27.1994 1.54395 33.9994 1.54395C40.7994 1.54395 46.5684 6.83691 48.5865 14.1788C49.08 15.9913 49.3542 17.9219 49.3542 19.9314C49.3542 22.7946 48.8058 25.5133 47.8297 27.93C47.0839 29.795 46.0749 31.4761 44.8684 32.9209C44.2761 31.9884 43.5742 31.1478 42.7736 30.4386C42.5432 29.9001 42.28 29.401 41.9839 28.9282C43.8374 26.5772 44.9671 23.4119 44.9671 19.9314C44.9671 12.6815 40.0536 6.79751 33.9994 6.79751C27.9452 6.79751 23.0316 12.6815 23.0316 19.9314C23.0316 21.8752 23.3826 23.7271 24.0187 25.382V25.3951C23.2949 25.6315 22.6478 26.1044 22.1213 26.7217Z" fill="#FFC729"/>
<path d="M32.9022 25.1853H25.2248C24.808 25.1853 24.4022 25.251 24.0183 25.3955V25.3823C23.3822 23.7275 23.0312 21.8756 23.0312 19.9318C23.0312 12.6818 27.9448 6.79785 33.999 6.79785C40.0532 6.79785 44.9667 12.6818 44.9667 19.9318C44.9667 23.4123 43.8371 26.5775 41.9835 28.9285C40.4919 26.5907 38.1777 25.1853 35.6771 25.1853H35.0958H32.9022Z" fill="#FCD770"/>
<path d="M44.9661 80.3466H23.0306V69.8395C14.5526 69.8395 7.67578 61.6045 7.67578 51.452V48.8252H14.2564V51.0448C14.2564 54.0525 15.2764 56.7843 16.9216 58.7676C18.5777 60.7377 20.859 61.9591 23.3706 61.9591C23.8751 61.9591 24.3797 61.9066 24.8732 61.8146L28.6571 61.0529L29.6113 69.8395L33.9984 65.8993L38.3855 69.8395L39.3397 61.0529L43.1235 61.8146C43.6171 61.9066 44.1216 61.9591 44.6261 61.9591C49.6603 61.9591 53.7403 57.0733 53.7403 51.0448V48.8252H60.3209V51.452C60.3209 56.5217 58.599 61.1185 55.8242 64.4546C53.0384 67.7774 49.1997 69.8395 44.9661 69.8395V80.3466Z" fill="#B4DD7F"/>
<path d="M39.3374 61.0546L38.3832 69.8412L33.9961 65.901L37.2864 60.6475L39.3374 61.0546Z" fill="#A0D468"/>
<path d="M30.7072 60.6475L33.9975 65.901L29.6104 69.8412L28.6562 61.0546L30.7072 60.6475Z" fill="#A0D468"/>
<path d="M60.3211 43.5729V48.8265H53.7404L52.8301 47.7364C52.0075 46.7513 51.5469 45.4117 51.5469 44.0195V43.5729C51.5469 42.1282 52.0404 40.8148 52.8301 39.856C53.6307 38.9104 54.7275 38.3193 55.934 38.3193C58.3578 38.3193 60.3211 40.6703 60.3211 43.5729Z" fill="#F0D0B4"/>
<path d="M30.7087 55.3923H30.0616C29.0745 55.3923 28.1203 54.9195 27.4183 54.0789C26.7164 53.2383 26.3216 52.0957 26.3216 50.9136V47.5119L24.7751 46.8946C23.7332 46.4743 23.0312 45.3186 23.0312 44.0052C23.0312 43.7162 23.0642 43.4273 23.13 43.1646L24.4571 37.5827C24.6216 36.8997 24.8848 36.2562 25.2138 35.6914H25.2248H33.999C34.9093 35.6914 35.7319 36.138 36.3242 36.8472C36.9164 37.5564 37.2893 38.5415 37.2893 39.6316V40.945L38.1887 41.2996C38.9016 41.5885 39.5048 42.127 39.9216 42.8231C40.3383 43.5192 40.5796 44.3729 40.5796 45.2792C40.5796 46.6714 39.9983 47.9716 39.0222 48.7597L37.2893 50.1387V55.3923V60.6458L33.999 65.8994L30.7087 60.6458V55.3923Z" fill="#F0D0B4"/>
<path d="M16.45 43.5729V44.0195C16.45 45.4117 15.9893 46.7513 15.1667 47.7364L14.2564 48.8265H7.67578V43.5729C7.67578 42.1282 8.16933 40.8148 8.95901 39.856C9.75965 38.9104 10.8564 38.3193 12.0629 38.3193C14.4867 38.3193 16.45 40.6703 16.45 43.5729Z" fill="#F0D0B4"/>
<path d="M35.6753 25.1855C38.1759 25.1855 40.4901 26.5909 41.9817 28.9287C42.2779 29.4015 42.5411 29.9006 42.7714 30.4391C43.5721 31.1483 44.274 31.9889 44.8663 32.9214C45.305 33.5913 45.6779 34.3136 45.9959 35.0754C46.7527 36.8747 47.1585 38.8711 47.1585 40.9462V41.6029C47.1585 46.7908 44.603 51.4928 40.6437 53.6073L37.2876 55.3936V50.14L39.0205 48.7609C39.9966 47.9729 40.5779 46.6726 40.5779 45.2804C40.5779 44.3742 40.3366 43.5205 39.9198 42.8244C39.503 42.1283 38.8998 41.5898 38.1869 41.3009L37.2876 40.9462V39.6329C37.2876 38.5427 36.9146 37.5577 36.3224 36.8485C35.7301 36.1392 34.9076 35.6927 33.9972 35.6927H25.223H25.2121C22.7882 35.6795 20.8359 33.3417 20.8359 30.4391C20.8359 30.137 20.8579 29.835 20.9017 29.546C21.5817 27.4708 21.834 27.0768 22.1192 26.7222C22.6456 26.1049 23.2927 25.6321 24.0166 25.3957C24.4005 25.2512 24.8063 25.1855 25.223 25.1855H32.9005H35.094H35.6753Z" fill="#656D78"/>
<path d="M32.9023 71.1533H35.0959V76.4069H32.9023V71.1533Z" fill="black"/>
<path d="M68 11.1356C68 8.74256 66.3757 6.79743 64.3774 6.79743C63.6601 6.79743 62.9647 7.0496 62.3681 7.52636C60.8117 8.76751 59.0021 9.42421 57.1332 9.42421H54.7148C52.6046 9.42421 50.5986 10.3042 48.9962 11.8711C46.4177 5.01909 40.6728 0.230469 34 0.230469C27.3272 0.230469 21.5823 5.01909 19.0038 11.8711C17.4014 10.3042 15.3954 9.42421 13.2852 9.42421H10.8668C8.99794 9.42421 7.18826 8.76751 5.63194 7.52636C5.03529 7.0496 4.33994 6.79743 3.62265 6.79743C1.62432 6.79743 0 8.74256 0 11.1356C0 13.2961 0.854387 15.2609 2.19355 16.5402V17.7025C2.19355 19.863 3.04794 21.8279 4.3871 23.1071V24.1828C4.3871 27.662 6.5609 30.6105 9.44323 31.0413L13.6285 31.6678C14.0036 31.7243 14.3776 31.7519 14.7538 31.7519C16.5426 31.7519 18.3019 31.1083 19.7847 29.9236C19.7737 30.097 19.7419 30.2625 19.7419 30.4385C19.7419 33.3687 21.3641 35.8273 23.5817 36.6705C23.5236 36.857 23.4512 37.0356 23.4052 37.2287L22.077 42.8001C21.9826 43.1889 21.9355 43.5934 21.9355 44.0006C21.9355 45.8827 22.9368 47.5467 24.4274 48.1417L25.2258 48.4595V50.909C25.2258 52.4588 25.7292 53.914 26.6439 55.0081C27.4501 55.9734 28.4931 56.5277 29.6129 56.6538V59.534L24.6928 60.5151C24.2595 60.6018 23.8165 60.6465 23.3755 60.6465C18.9523 60.6465 15.3548 56.3386 15.3548 51.043V49.3697L15.9416 48.6657C16.977 47.4259 17.5484 45.7763 17.5484 44.0229V43.5724C17.5484 39.9514 15.0883 37.0054 12.0645 37.0054C9.04071 37.0054 6.58065 39.9514 6.58065 43.5724V51.4527C6.58065 61.8745 13.373 70.4313 21.9355 71.1103V81.6608H46.0645V71.1103C54.627 70.4313 61.4194 61.8745 61.4194 51.4527V43.5724C61.4194 39.9514 58.9593 37.0054 55.9355 37.0054C52.9117 37.0054 50.4516 39.9514 50.4516 43.5724V44.0229C50.4516 45.7763 51.023 47.4259 52.0584 48.6657L52.6452 49.3697V51.043C52.6452 56.3386 49.0477 60.6465 44.6255 60.6465C44.1846 60.6465 43.7405 60.6018 43.3072 60.5151L38.3871 59.534V56.2466L41.0939 54.8058C45.4459 52.4916 48.2581 47.309 48.2581 41.6049V40.9456C48.2581 38.1087 47.5408 35.3571 46.2663 33.0259C46.9946 32.0487 47.634 31.0019 48.1791 29.8934C49.6696 31.0965 51.4431 31.7519 53.2462 31.7519C53.6224 31.7519 53.9975 31.7243 54.3693 31.6678L58.5557 31.0413C61.438 30.6105 63.6118 27.662 63.6118 24.1828V23.1071C64.951 21.8279 65.8054 19.8617 65.8054 17.7025V16.5402C67.1456 15.2609 68 13.2948 68 11.1356ZM13.9027 29.062L9.71632 28.4356C7.98671 28.1768 6.68045 26.4523 6.5971 24.3877C6.78135 24.4415 6.95903 24.5125 7.14987 24.5453L10.8131 25.1718L11.1235 22.5726L7.46026 21.9461C5.74052 21.6519 4.44413 19.8867 4.39587 17.8194C4.58232 17.8746 4.76219 17.9468 4.95523 17.9796L8.61845 18.6061L8.92884 16.0069L5.26561 15.3804C3.51406 15.0784 2.19355 13.2541 2.19355 11.1356C2.19355 10.1912 2.83406 9.42421 3.62265 9.42421C3.90561 9.42421 4.17981 9.52403 4.41561 9.71184C6.33168 11.2419 8.56361 12.051 10.8668 12.051H13.2852C15.1486 12.051 16.9035 12.9533 18.1911 14.5333C17.782 16.2512 17.5484 18.0584 17.5484 19.9313C17.5484 22.5516 17.9882 25.1258 18.8206 27.5162C17.4168 28.7508 15.6422 29.3234 13.9027 29.062ZM30.4585 67.4393L29.8838 62.1424L30.2326 62.0728L32.4645 65.6374L30.4585 67.4393ZM12.0645 39.6322C13.8786 39.6322 15.3548 41.4 15.3548 43.5724V44.0229C15.3548 45.0605 15.0039 46.0757 14.3908 46.8086L13.804 47.5126H8.77419V43.5724C8.77419 41.4 10.2505 39.6322 12.0645 39.6322ZM52.6452 43.5724C52.6452 41.4 54.1214 39.6322 55.9355 39.6322C57.7495 39.6322 59.2258 41.4 59.2258 43.5724V47.5126H54.196L53.6092 46.8086C52.9961 46.0757 52.6452 45.0605 52.6452 44.0229V43.5724ZM44.6255 63.2733C50.2564 63.2733 54.8387 57.7872 54.8387 51.043V50.1394H59.2258V51.4527C59.2258 60.8671 52.8294 68.5268 44.9677 68.5268H43.871V79.034H24.129V68.5268H23.0323C15.1706 68.5268 8.77419 60.8671 8.77419 51.4527V50.1394H13.1613V51.043C13.1613 57.7872 17.7436 63.2733 23.3755 63.2733C23.9382 63.2733 24.503 63.2168 25.0536 63.1065L27.7188 62.5745L28.7673 72.2411L34 67.5418L39.2327 72.2411L40.2812 62.5745L42.9453 63.1065C43.497 63.2168 44.0629 63.2733 44.6255 63.2733ZM37.7674 62.0728L38.1162 62.1424L37.5415 67.438L35.5355 65.6374L37.7674 62.0728ZM36.1935 49.4367V60.2091L34 63.7106L31.8065 60.2091V56.7063H34V54.0795H30.067C29.3595 54.0795 28.6949 53.7499 28.1948 53.1496C27.6946 52.5534 27.4194 51.7561 27.4194 50.909V46.5669L25.1216 45.6502C24.5272 45.4125 24.129 44.7492 24.129 44.0006C24.129 43.839 24.1488 43.6788 24.1861 43.5225L25.5143 37.9511C25.5932 37.6201 25.7084 37.3075 25.84 37.0054H34C35.2097 37.0054 36.1935 38.1835 36.1935 39.6322V41.8926L37.8453 42.5519C38.8247 42.9433 39.4839 44.0373 39.4839 45.2732C39.4839 46.2346 39.0857 47.1277 38.4167 47.661L36.1935 49.4367ZM46.0645 41.6049C46.0645 46.2714 43.7635 50.511 40.2023 52.4063L38.3871 53.3729V50.842L39.6341 49.8465C40.9141 48.826 41.6774 47.1159 41.6774 45.2732C41.6774 42.9039 40.4161 40.809 38.5395 40.0591L38.3871 39.9987V39.6322C38.3871 36.7349 36.4195 34.3787 34 34.3787H25.2258C23.4117 34.3787 21.9355 32.6108 21.9355 30.4385C21.9355 28.2661 23.4117 26.4983 25.2258 26.4983H32.9032H35.0968H35.6759C38.2829 26.4983 40.6278 28.2333 41.7926 31.0256L41.9077 31.3027L42.1139 31.4892C44.5883 33.7101 46.0645 37.2458 46.0645 40.9456V41.6049ZM24.129 19.9313C24.129 13.4143 28.5567 8.11082 34 8.11082C39.4433 8.11082 43.871 13.4143 43.871 19.9313C43.871 22.4728 43.191 24.9038 41.9494 26.9225C40.8603 25.6551 39.5288 24.7292 38.0548 24.2524C38.261 23.7376 38.3871 23.1675 38.3871 22.5581C38.3871 20.3858 36.9108 18.618 35.0968 18.618H32.9032C32.2978 18.618 31.8065 18.0282 31.8065 17.3046C31.8065 16.5809 32.2978 15.9912 32.9032 15.9912H35.0968C35.7022 15.9912 36.1935 16.5809 36.1935 17.3046H38.3871C38.3871 15.1322 36.9108 13.3644 35.0968 13.3644V10.7376H32.9032V13.3644C31.0892 13.3644 29.6129 15.1322 29.6129 17.3046C29.6129 19.4769 31.0892 21.2447 32.9032 21.2447H35.0968C35.7022 21.2447 36.1935 21.8344 36.1935 22.5581C36.1935 23.2818 35.7022 23.8715 35.0968 23.8715H32.9032C32.2978 23.8715 31.8065 23.2818 31.8065 22.5581H29.6129C29.6129 23.0204 29.6919 23.4591 29.8147 23.8715H25.2258C25.0525 23.8715 24.888 23.9135 24.7191 23.9332C24.333 22.654 24.129 21.3143 24.129 19.9313ZM43.6352 29.5743C43.5507 29.3864 43.4465 29.217 43.3544 29.0371C45.1026 26.4668 46.0645 23.2752 46.0645 19.9313C46.0645 11.9656 40.6519 5.48404 34 5.48404C27.3481 5.48404 21.9355 11.9656 21.9355 19.9313C21.9355 21.5757 22.1691 23.1728 22.6166 24.699C21.9234 25.1534 21.3213 25.7694 20.8508 26.5219C20.1247 24.4468 19.7419 22.2101 19.7419 19.9313C19.7419 10.517 26.1383 2.85725 34 2.85725C41.8617 2.85725 48.2581 10.517 48.2581 19.9313C48.2581 24.0134 47.0615 27.8708 44.8811 30.9481C44.4917 30.4621 44.0826 29.9945 43.6352 29.5743ZM62.7333 15.3778L59.0701 16.0043L59.3805 18.6035L63.0437 17.977C63.2367 17.9442 63.4177 17.8719 63.603 17.8168C63.5548 19.8854 62.2584 21.6493 60.5386 21.9435L56.8754 22.5699L57.1858 25.1692L60.849 24.5427C61.0399 24.5098 61.2176 24.4389 61.4018 24.3851C61.3185 26.4497 60.0122 28.1742 58.2826 28.4329L54.0951 29.0594C52.3677 29.3208 50.592 28.7521 49.1859 27.5201C50.0151 25.1494 50.4516 22.5805 50.4516 19.9313C50.4516 18.0584 50.218 16.2512 49.8089 14.5333C51.0965 12.9533 52.8525 12.051 54.7148 12.051H57.1332C59.4375 12.051 61.6683 11.2419 63.5855 9.71184C63.8202 9.52403 64.0944 9.42421 64.3774 9.42421C65.1659 9.42421 65.8065 10.1912 65.8065 11.1356C65.8065 13.2541 64.4859 15.0784 62.7333 15.3778Z" fill="black"/>
</svg>
