<svg width="68" height="68" viewBox="0 0 68 68" fill="none" xmlns="http://www.w3.org/2000/svg">
<path d="M33.9902 7.17773L11.0312 29.5107V62.3173H56.9493V29.5107L33.9902 7.17773Z" fill="#DFEBFA"/>
<path d="M16.4762 32.8602C16.4762 32.0771 16.7929 31.3273 17.3542 30.7813L37.8049 10.8883L33.9902 7.17773L11.0312 29.5107V62.3174H16.4763L16.4762 32.8602Z" fill="#B1DBFC"/>
<path d="M48.0605 5.66113V13.9876L55.4124 21.1391V5.66113H48.0605Z" fill="#695D67"/>
<path d="M52.3183 14.5535C51.9463 14.1917 51.7365 13.6949 51.7365 13.1761V5.66113H48.0605V13.9876L55.4124 21.139V17.5633L52.3183 14.5535Z" fill="#544E55"/>
<path d="M63.0402 28.1608L35.9077 1.76821C34.8401 0.729607 33.1401 0.729607 32.0725 1.76821L4.94002 28.1608C3.85122 29.2197 3.82719 30.9609 4.88624 32.0496C5.94529 33.1384 7.68652 33.1624 8.77506 32.1032L33.6127 7.94312C33.8228 7.73875 34.1573 7.73875 34.3674 7.94312L59.205 32.1032C60.2942 33.1627 62.0353 33.138 63.0938 32.0496C64.153 30.9608 64.129 29.2197 63.0402 28.1608Z" fill="#FF656F"/>
<path d="M33.6127 7.94326C33.707 7.85149 33.8266 7.80329 33.9487 7.79386L36.3662 5.4423C37.0801 4.74777 38.0764 4.52029 38.9777 4.75467L35.9075 1.76821C34.84 0.729607 33.1399 0.729607 32.0724 1.76821L4.94002 28.1609C3.85122 29.2198 3.82719 30.961 4.88624 32.0497C5.94529 33.1385 7.68652 33.1625 8.77506 32.1034L33.6127 7.94326Z" fill="#FF4756"/>
<path d="M57.5451 5.09945V1.94951C57.5451 1.41912 57.1151 0.989258 56.5847 0.989258H46.888C46.3576 0.989258 45.9277 1.41925 45.9277 1.94951V5.09945C45.9277 5.62984 46.3576 6.0597 46.888 6.0597H56.5847C57.1151 6.05983 57.5451 5.62984 57.5451 5.09945Z" fill="#7B6C79"/>
<path d="M49.6037 5.09945V1.94951C49.6037 1.41912 50.0335 0.989258 50.5639 0.989258H46.888C46.3576 0.989258 45.9277 1.41925 45.9277 1.94951V5.09945C45.9277 5.62984 46.3576 6.05983 46.888 6.05983H50.5639C50.0337 6.05983 49.6037 5.62984 49.6037 5.09945Z" fill="#695D67"/>
<path d="M16.3438 37.4521H31.7446V62.3174H16.3438V37.4521Z" fill="#AB6B51"/>
<path d="M16.3438 37.4521H21.3315V62.3174H16.3438V37.4521Z" fill="#965A44"/>
<path d="M36.2363 37.585V56.1803C36.2363 56.5904 36.5687 56.9229 36.9789 56.9229H50.8946C51.3046 56.9229 51.6372 56.5904 51.6372 56.1803V37.585H36.2363Z" fill="#60B8FE"/>
<path d="M41.224 56.1803V37.585H36.2363V56.1803C36.2363 56.5904 36.5687 56.9229 36.9789 56.9229H41.9666C41.5564 56.9229 41.224 56.5904 41.224 56.1803Z" fill="#23A8FE"/>
<path d="M50.8946 32.8828H36.9789C36.5687 32.8828 36.2363 33.2153 36.2363 33.6254V37.7182H51.6372V33.6254C51.6372 33.2152 51.3046 32.8828 50.8946 32.8828Z" fill="#23A8FE"/>
<path d="M41.9666 32.8828H36.9789C36.5687 32.8828 36.2363 33.2153 36.2363 33.6254V37.7182H41.224V33.6254C41.224 33.2152 41.5564 32.8828 41.9666 32.8828Z" fill="#0193FA"/>
<path d="M31.002 32.8828H17.0863C16.6763 32.8828 16.3438 33.2153 16.3438 33.6254V37.7183H31.7446V33.6254C31.7446 33.2152 31.4122 32.8828 31.002 32.8828Z" fill="#BC7C63"/>
<path d="M22.0741 32.8828H17.0863C16.6763 32.8828 16.3438 33.2153 16.3438 33.6254V37.7183H21.3315V33.6254C21.3315 33.2152 21.664 32.8828 22.0741 32.8828Z" fill="#AB6B51"/>
<path d="M26.3766 50.4144C27.4778 50.4144 28.3704 49.5217 28.3704 48.4206C28.3704 47.3194 27.4778 46.4268 26.3766 46.4268C25.2755 46.4268 24.3828 47.3194 24.3828 48.4206C24.3828 49.5217 25.2755 50.4144 26.3766 50.4144Z" fill="#DFEBFA"/>
<path d="M57.9188 61.9189H10.0618C9.53143 61.9189 9.10156 62.3489 9.10156 62.8792V66.0291C9.10156 66.5595 9.53143 66.9894 10.0618 66.9894H57.9188C58.4492 66.9894 58.8792 66.5594 58.8792 66.0291V62.8792C58.8792 62.3489 58.4492 61.9189 57.9188 61.9189Z" fill="#43CB8E"/>
<path d="M15.1769 66.0291V62.8792C15.1769 62.3488 15.6069 61.9189 16.1371 61.9189H10.0618C9.53143 61.9189 9.10156 62.3489 9.10156 62.8792V66.0291C9.10156 66.5595 9.53156 66.9895 10.0618 66.9895H16.1373C15.6069 66.9894 15.1769 66.5594 15.1769 66.0291Z" fill="#00BA66"/>
<path d="M4.18288 32.7585C5.62797 34.2441 7.99893 34.2727 9.48014 32.8317L10.0456 32.2817V60.9387C8.97923 60.953 8.11592 61.8239 8.11592 62.8936V66.0435C8.11592 67.1222 8.99344 67.9998 10.072 67.9998H57.9291C59.0079 67.9998 59.8854 67.1222 59.8854 66.0435V62.8936C59.8854 61.8237 59.0219 60.953 57.9556 60.9387V32.2817L58.521 32.8317C60.0259 34.2953 62.3924 34.2246 63.8183 32.7585C65.2619 31.2744 65.2296 28.905 63.7451 27.4613L56.4188 20.3347V14.0747C56.4188 13.5247 55.9731 13.0787 55.4229 13.0787C54.8727 13.0787 54.4269 13.5247 54.4269 14.0747V18.3971L49.067 13.1832V7.07021H54.4269V9.42682C54.4269 9.97686 54.8727 10.4228 55.4229 10.4228C55.9731 10.4228 56.4188 9.97686 56.4188 9.42682V7.07021C57.8269 7.07021 58.5516 6.09588 58.5516 5.11398V1.96405C58.5516 0.885339 57.674 0.00781833 56.5953 0.00781833H46.8987C45.82 0.00781833 44.9424 0.885339 44.9424 1.96405V5.11398C44.9424 6.09376 45.6617 7.07021 47.0751 7.07021V11.2457L36.6126 1.06873C35.1479 -0.35631 32.8531 -0.356177 31.3884 1.06873L4.25605 27.4613C2.77178 28.9048 2.73911 31.2741 4.18288 32.7585ZM57.8934 66.008H10.1077V62.9293H57.8934V66.008ZM31.0119 31.9007H26.378C25.8278 31.9007 25.382 32.3465 25.382 32.8966C25.382 33.4468 25.8278 33.8926 26.378 33.8926H30.7584V36.7361H17.3498V33.8926H21.7302C22.2804 33.8926 22.7262 33.4468 22.7262 32.8966C22.7262 32.3465 22.2804 31.9007 21.7302 31.9007H17.0963C16.1376 31.9007 15.3577 32.6806 15.3577 33.6392V60.9373H12.0375V30.344L34.0005 8.97996L55.9636 30.344V60.9373H32.7505V33.6391C32.7505 32.6806 31.9706 31.9007 31.0119 31.9007ZM30.7585 38.728V60.9373H17.3498V38.728H30.7585ZM46.9342 5.07826V1.99964H56.5595V5.07826H46.9342ZM5.64497 28.8891L32.7773 2.49656C33.4632 1.82926 34.5375 1.82926 35.2237 2.49656L62.3561 28.8892C63.0511 29.5649 63.0663 30.6746 62.3903 31.3696C61.712 32.0671 60.6021 32.0772 59.9098 31.4039L34.695 6.87659C34.3083 6.50051 33.6928 6.50051 33.3061 6.87659L8.09109 31.4039C7.39815 32.0784 6.28837 32.066 5.61071 31.3695C4.93477 30.6746 4.94991 29.565 5.64497 28.8891Z" fill="black"/>
<path d="M36.9886 57.9331H50.9042C51.8629 57.9331 52.6428 57.1531 52.6428 56.1945V33.639C52.6428 32.6803 51.8629 31.9004 50.9042 31.9004H36.9886C36.0299 31.9004 35.25 32.6803 35.25 33.639V56.1945C35.25 57.1531 36.0299 57.9331 36.9886 57.9331ZM50.6508 55.9411H44.9424V48.3305H50.6508V55.9411ZM50.6508 46.3386H44.9424V38.7277H50.6508V46.3386ZM37.2419 33.8925H50.6508V36.7359H37.2419V33.8925ZM37.2419 38.7279H42.9503V46.3387H37.2419V38.7279ZM37.2419 48.3305H42.9503V55.9411H37.2419V48.3305Z" fill="black"/>
<path d="M26.3864 51.424C28.0351 51.424 29.3763 50.0828 29.3763 48.4343C29.3763 46.7856 28.0351 45.4443 26.3864 45.4443C24.7377 45.4443 23.3965 46.7856 23.3965 48.4343C23.3966 50.0829 24.7377 51.424 26.3864 51.424ZM26.3864 47.4364C26.9367 47.4364 27.3844 47.8841 27.3844 48.4344C27.3844 48.9846 26.9367 49.4322 26.3864 49.4322C25.8361 49.4322 25.3884 48.9846 25.3884 48.4344C25.3886 47.8841 25.8362 47.4364 26.3864 47.4364Z" fill="black"/>
</svg>
