<svg width="68" height="68" viewBox="0 0 68 68" fill="none" xmlns="http://www.w3.org/2000/svg">
<g clip-path="url(#clip0_2953_38358)">
<path d="M64.5469 0.796875H48.1615C47.7413 0.79686 47.3304 0.921461 46.981 1.15493C46.6315 1.38839 46.3591 1.72023 46.1983 2.10849C46.0374 2.49675 45.9953 2.92399 46.0772 3.33619C46.1592 3.74839 46.3615 4.12703 46.6586 4.42425L49.2734 7.03906L29.75 27.0938L25.7587 23.4653C25.2576 23.0096 24.6013 22.7626 23.9241 22.7748C23.2469 22.7869 22.5999 23.0573 22.1154 23.5307L1.75684 43.4217C1.45302 43.7186 1.21158 44.0731 1.04673 44.4646C0.881873 44.8561 0.796925 45.2765 0.796875 45.7013V65.4803C0.796837 65.7955 0.89027 66.1036 1.06536 66.3657C1.24045 66.6279 1.48932 66.8322 1.78052 66.9528C2.07172 67.0735 2.39216 67.1051 2.70133 67.0436C3.01049 66.9822 3.29449 66.8304 3.51741 66.6076L26.8281 43.2969L30.2281 46.6969C30.4777 46.9463 30.7744 47.1436 31.101 47.2771C31.4276 47.4106 31.7775 47.4777 32.1303 47.4745C32.4832 47.4713 32.8318 47.3978 33.1559 47.2584C33.48 47.1189 33.7731 46.9163 34.0181 46.6623L60.9609 18.7266L63.5757 21.3414C63.873 21.6385 64.2516 21.8408 64.6638 21.9228C65.076 22.0047 65.5033 21.9626 65.8915 21.8017C66.2798 21.6409 66.6116 21.3685 66.8451 21.019C67.0785 20.6696 67.2031 20.2587 67.2031 19.8385V3.45312C67.2031 2.74864 66.9233 2.07302 66.4251 1.57487C65.927 1.07673 65.2514 0.796875 64.5469 0.796875Z" fill="#FFB300"/>
<path d="M12.4844 5.04688H9.82812V2.39062C9.82812 1.96794 9.66021 1.56256 9.36133 1.26367C9.06244 0.964788 8.65706 0.796875 8.23438 0.796875H6.64062C6.21794 0.796875 5.81256 0.964788 5.51367 1.26367C5.21479 1.56256 5.04688 1.96794 5.04688 2.39062V5.04688H2.39062C1.96794 5.04688 1.56256 5.21479 1.26367 5.51367C0.964788 5.81256 0.796875 6.21794 0.796875 6.64062V8.23438C0.796875 8.65706 0.964788 9.06244 1.26367 9.36133C1.56256 9.66021 1.96794 9.82812 2.39062 9.82812H5.04688V12.4844C5.04688 12.9071 5.21479 13.3124 5.51367 13.6113C5.81256 13.9102 6.21794 14.0781 6.64062 14.0781H8.23438C8.65706 14.0781 9.06244 13.9102 9.36133 13.6113C9.66021 13.3124 9.82812 12.9071 9.82812 12.4844V9.82812H12.4844C12.9071 9.82812 13.3124 9.66021 13.6113 9.36133C13.9102 9.06244 14.0781 8.65706 14.0781 8.23438V6.64062C14.0781 6.21794 13.9102 5.81256 13.6113 5.51367C13.3124 5.21479 12.9071 5.04688 12.4844 5.04688Z" fill="#8BC34A"/>
<path d="M65.96 28.6875H64.0156V26.7431C64.0156 26.4134 63.8847 26.0972 63.6515 25.8641C63.4184 25.631 63.1022 25.5 62.7725 25.5H61.54C61.2103 25.5 60.8941 25.631 60.661 25.8641C60.4278 26.0972 60.2969 26.4134 60.2969 26.7431V28.6875H58.3525C58.0228 28.6875 57.7066 28.8185 57.4735 29.0516C57.2403 29.2847 57.1094 29.6009 57.1094 29.9306V31.1631C57.1094 31.4928 57.2403 31.809 57.4735 32.0421C57.7066 32.2753 58.0228 32.4062 58.3525 32.4062H60.2969V34.3506C60.2969 34.6803 60.4278 34.9965 60.661 35.2296C60.8941 35.4628 61.2103 35.5938 61.54 35.5938H62.7725C63.1022 35.5938 63.4184 35.4628 63.6515 35.2296C63.8847 34.9965 64.0156 34.6803 64.0156 34.3506V32.4062H65.96C66.2897 32.4062 66.6059 32.2753 66.839 32.0421C67.0722 31.809 67.2031 31.4928 67.2031 31.1631V29.9306C67.2031 29.6009 67.0722 29.2847 66.839 29.0516C66.6059 28.8185 66.2897 28.6875 65.96 28.6875Z" fill="#8BC34A"/>
<path d="M9.03835 47.7843C9.66363 35.02 23.1165 23.1572 27.2799 19.9468C27.2799 19.9468 24.2682 13.9825 23.4714 11.9053C23.2241 11.3514 23.1601 10.733 23.2888 10.1402C23.4174 9.54734 23.732 9.01108 24.1866 8.60946C24.6412 8.20783 25.2122 7.96183 25.8163 7.90726C26.4205 7.8527 27.0263 7.99242 27.5455 8.30609C28.2794 8.80581 29.1312 9.10505 30.0164 9.17416C32.7294 9.17416 31.2914 7.4375 34.0007 7.4375C36.7101 7.4375 35.2725 9.17416 37.9851 9.17416C38.8702 9.1048 39.7217 8.80538 40.4554 8.30556C40.9746 7.99189 41.5804 7.85217 42.1846 7.90673C42.7887 7.9613 43.3597 8.2073 43.8143 8.60893C44.2689 9.01055 44.5835 9.54681 44.7121 10.1396C44.8408 10.7324 44.7768 11.3508 44.5296 11.9048C43.73 13.9836 40.6945 19.9463 40.6945 19.9463C44.8568 23.1572 58.3495 35.0195 58.9642 47.7838C59.8195 65.5286 47.5726 67.2642 34.0007 67.2031C20.6132 67.1431 8.17719 65.3639 9.03835 47.7843Z" fill="#7CB342"/>
<path d="M27.2784 19.9466C26.7285 20.3716 26.0134 20.9502 25.19 21.6589L18.2875 18.5293C17.8366 18.325 17.4854 17.9499 17.311 17.4867C17.1367 17.0234 17.1535 16.5098 17.3578 16.059C17.5621 15.6081 17.9371 15.2568 18.4004 15.0825C18.8637 14.9081 19.3772 14.925 19.8281 15.1293L26.3519 18.0873C26.8884 19.1737 27.2784 19.9466 27.2784 19.9466Z" fill="#263238"/>
<path d="M27.2789 19.9465C25.0942 21.6636 23.0241 23.5216 21.0818 25.5087L17.6701 26.7433C17.4206 26.8336 17.1556 26.8739 16.8905 26.8619C16.6253 26.8498 16.3651 26.7857 16.1247 26.6731C15.8844 26.5605 15.6685 26.4017 15.4896 26.2056C15.3106 26.0096 15.172 25.7803 15.0816 25.5307C14.9913 25.2811 14.951 25.0162 14.963 24.751C14.9751 24.4859 15.0392 24.2257 15.1518 23.9853C15.2644 23.7449 15.4232 23.5291 15.6193 23.3501C15.8153 23.1712 16.0446 23.0325 16.2942 22.9422L26.8629 19.1172C27.1184 19.6283 27.2789 19.9465 27.2789 19.9465Z" fill="#263238"/>
<path d="M24.1058 19.228C24.3235 18.7065 24.7101 18.2731 25.2035 17.9974C25.6969 17.7217 26.2685 17.6197 26.8268 17.7076C31.5796 18.4448 36.4177 18.4448 41.1706 17.7076C41.8195 17.6053 42.4828 17.7598 43.0197 18.1383C43.5566 18.5168 43.925 19.0896 44.0468 19.7351C44.1685 20.3807 44.034 21.0483 43.6719 21.5964C43.3097 22.1445 42.7482 22.5299 42.1066 22.671C36.7649 23.8467 31.2314 23.8467 25.8897 22.671C25.5288 22.5908 25.1898 22.4324 24.8968 22.2069C24.6037 21.9815 24.3637 21.6945 24.1936 21.3662C24.0235 21.0379 23.9275 20.6763 23.9123 20.3068C23.8971 19.9374 23.9632 19.5691 24.1058 19.228Z" fill="#37474F"/>
<path d="M2.39062 10.625H4.25V12.4844C4.2507 13.1182 4.5028 13.7258 4.95097 14.174C5.39915 14.6222 6.00681 14.8743 6.64062 14.875H8.23438C8.86819 14.8743 9.47585 14.6222 9.92403 14.174C10.3722 13.7258 10.6243 13.1182 10.625 12.4844V10.625H12.4844C13.1182 10.6243 13.7258 10.3722 14.174 9.92403C14.6222 9.47585 14.8743 8.86819 14.875 8.23438V6.64062C14.8743 6.00681 14.6222 5.39915 14.174 4.95097C13.7258 4.5028 13.1182 4.2507 12.4844 4.25H10.625V2.39062C10.6243 1.75681 10.3722 1.14915 9.92403 0.700974C9.47585 0.252798 8.86819 0.00070307 8.23438 0L6.64062 0C6.00681 0.00070307 5.39915 0.252798 4.95097 0.700974C4.5028 1.14915 4.2507 1.75681 4.25 2.39062V4.25H2.39062C1.75681 4.2507 1.14915 4.5028 0.700974 4.95097C0.252798 5.39915 0.00070307 6.00681 0 6.64062L0 8.23438C0.00070307 8.86819 0.252798 9.47585 0.700974 9.92403C1.14915 10.3722 1.75681 10.6243 2.39062 10.625ZM1.59375 6.64062C1.59375 6.42928 1.67771 6.22659 1.82715 6.07715C1.97659 5.92771 2.17928 5.84375 2.39062 5.84375H5.04688C5.25822 5.84375 5.46091 5.75979 5.61035 5.61035C5.75979 5.46091 5.84375 5.25822 5.84375 5.04688V2.39062C5.84375 2.17928 5.92771 1.97659 6.07715 1.82715C6.22659 1.67771 6.42928 1.59375 6.64062 1.59375H8.23438C8.44572 1.59375 8.64841 1.67771 8.79785 1.82715C8.94729 1.97659 9.03125 2.17928 9.03125 2.39062V5.04688C9.03125 5.25822 9.11521 5.46091 9.26465 5.61035C9.41409 5.75979 9.61678 5.84375 9.82812 5.84375H12.4844C12.6957 5.84375 12.8984 5.92771 13.0479 6.07715C13.1973 6.22659 13.2812 6.42928 13.2812 6.64062V8.23438C13.2812 8.44572 13.1973 8.64841 13.0479 8.79785C12.8984 8.94729 12.6957 9.03125 12.4844 9.03125H9.82812C9.61678 9.03125 9.41409 9.11521 9.26465 9.26465C9.11521 9.41409 9.03125 9.61678 9.03125 9.82812V12.4844C9.03125 12.6957 8.94729 12.8984 8.79785 13.0479C8.64841 13.1973 8.44572 13.2812 8.23438 13.2812H6.64062C6.42928 13.2812 6.22659 13.1973 6.07715 13.0479C5.92771 12.8984 5.84375 12.6957 5.84375 12.4844V9.82812C5.84375 9.61678 5.75979 9.41409 5.61035 9.26465C5.46091 9.11521 5.25822 9.03125 5.04688 9.03125H2.39062C2.17928 9.03125 1.97659 8.94729 1.82715 8.79785C1.67771 8.64841 1.59375 8.44572 1.59375 8.23438V6.64062Z" fill="black"/>
<path d="M65.96 27.8906H64.8125V26.7431C64.8118 26.2023 64.5966 25.6838 64.2142 25.3014C63.8318 24.919 63.3133 24.7038 62.7725 24.7031H61.54C60.9992 24.7038 60.4807 24.919 60.0983 25.3014C59.7159 25.6838 59.5007 26.2023 59.5 26.7431V27.8906H58.3525C57.8117 27.8913 57.2932 28.1065 56.9108 28.4889C56.5284 28.8713 56.3132 29.3898 56.3125 29.9306V31.1631C56.3132 31.704 56.5284 32.2224 56.9108 32.6048C57.2932 32.9873 57.8117 33.2024 58.3525 33.2031H59.5V34.3506C59.5007 34.8915 59.7159 35.4099 60.0983 35.7923C60.4807 36.1748 60.9992 36.3899 61.54 36.3906H62.7725C63.3133 36.3899 63.8318 36.1748 64.2142 35.7923C64.5966 35.4099 64.8118 34.8915 64.8125 34.3506V33.2031H65.96C66.5008 33.2024 67.0193 32.9873 67.4017 32.6048C67.7841 32.2224 67.9993 31.704 68 31.1631V29.9306C67.9993 29.3898 67.7841 28.8713 67.4017 28.4889C67.0193 28.1065 66.5008 27.8913 65.96 27.8906ZM66.4062 31.1631C66.4061 31.2814 66.359 31.3949 66.2754 31.4785C66.1917 31.5622 66.0783 31.6092 65.96 31.6094H64.0156C63.8043 31.6094 63.6016 31.6933 63.4521 31.8428C63.3027 31.9922 63.2188 32.1949 63.2188 32.4062V34.3506C63.2186 34.4689 63.1715 34.5824 63.0879 34.666C63.0042 34.7497 62.8908 34.7967 62.7725 34.7969H61.54C61.4217 34.7967 61.3083 34.7497 61.2246 34.666C61.141 34.5824 61.0939 34.4689 61.0938 34.3506V32.4062C61.0938 32.1949 61.0098 31.9922 60.8604 31.8428C60.7109 31.6933 60.5082 31.6094 60.2969 31.6094H58.3525C58.2342 31.6092 58.1208 31.5622 58.0371 31.4785C57.9535 31.3949 57.9064 31.2814 57.9062 31.1631V29.9306C57.9064 29.8123 57.9535 29.6989 58.0371 29.6152C58.1208 29.5316 58.2342 29.4845 58.3525 29.4844H60.2969C60.5082 29.4844 60.7109 29.4004 60.8604 29.251C61.0098 29.1015 61.0938 28.8988 61.0938 28.6875V26.7431C61.0939 26.6248 61.141 26.5114 61.2246 26.4277C61.3083 26.3441 61.4217 26.297 61.54 26.2969H62.7725C62.8908 26.297 63.0042 26.3441 63.0879 26.4277C63.1715 26.5114 63.2186 26.6248 63.2188 26.7431V28.6875C63.2188 28.8988 63.3027 29.1015 63.4521 29.251C63.6016 29.4004 63.8043 29.4844 64.0156 29.4844H65.96C66.0783 29.4845 66.1917 29.5316 66.2754 29.6152C66.359 29.6989 66.4061 29.8123 66.4062 29.9306V31.1631Z" fill="black"/>
<path d="M64.547 0.000145214H48.1617C47.5821 -0.005676 47.0143 0.163643 46.5325 0.485932C46.0508 0.808222 45.6776 1.26846 45.4618 1.8064C45.2347 2.3392 45.1737 2.92816 45.2867 3.49622C45.3998 4.06428 45.6818 4.58498 46.0956 4.99018L48.1542 7.04877L45.4353 9.84155C45.2992 9.2827 45.0314 8.7645 44.6542 8.3302C44.2771 7.89589 43.8016 7.55806 43.2673 7.34491C42.7331 7.13175 42.1556 7.04945 41.5831 7.10485C41.0106 7.16026 40.4596 7.35178 39.9762 7.66343C39.3836 8.06668 38.6982 8.31257 37.9845 8.37796C37.0283 8.37796 36.8301 8.22124 36.6319 7.83449C35.8962 6.40011 32.1014 6.40011 31.3662 7.83449C31.168 8.22124 30.9678 8.37796 30.0142 8.37796C29.301 8.31214 28.6162 8.06628 28.0241 7.66343C27.374 7.24131 26.6048 7.04081 25.8313 7.09184C25.0579 7.14287 24.3217 7.44271 23.7327 7.94658C23.1418 8.45956 22.7267 9.14487 22.5456 9.90609C22.3645 10.6673 22.4267 11.4661 22.7233 12.1902C23.0835 13.1284 23.8766 14.8247 24.6608 16.4482L20.1558 14.405C19.837 14.2586 19.4925 14.1766 19.142 14.1637C18.7915 14.1509 18.4419 14.2074 18.1133 14.33C17.7847 14.4527 17.4836 14.6391 17.2272 14.8784C16.9709 15.1178 16.7643 15.4054 16.6195 15.7249C16.4746 16.0443 16.3943 16.3892 16.3831 16.7398C16.3719 17.0903 16.4301 17.4396 16.5544 17.7677C16.6786 18.0957 16.8664 18.3959 17.107 18.6511C17.3476 18.9063 17.6363 19.1115 17.9564 19.2548L20.6998 20.499L16.02 22.1926C15.4133 22.4103 14.8997 22.8296 14.5649 23.3805C14.2302 23.9313 14.0946 24.5804 14.1808 25.2192C14.2669 25.858 14.5697 26.4478 15.0385 26.8903C15.5072 27.3327 16.1136 27.6009 16.7563 27.6501L1.19969 42.8513C0.820998 43.2233 0.519955 43.6668 0.314033 44.1561C0.108112 44.6453 0.00141344 45.1706 0.000129446 45.7015V65.481C-0.0048401 65.9549 0.133384 66.4192 0.396709 66.8133C0.660034 67.2073 1.03619 67.5127 1.47594 67.6894C1.91172 67.8744 2.39313 67.9239 2.85744 67.8314C3.32176 67.739 3.74746 67.5088 4.07907 67.1709L10.9481 60.3018C11.3803 60.9571 11.8686 61.5735 12.4075 62.1442C16.9603 66.9445 24.3314 67.939 33.9964 68.0001C43.2779 68.0586 51.0958 67.1002 55.5407 62.3498C58.6932 59.056 60.0733 54.2796 59.7583 47.7462C59.4337 41.0068 55.6305 34.5766 51.5999 29.5812L60.9717 19.8641L63.0122 21.9046C63.4209 22.3133 63.9415 22.5915 64.5082 22.7043C65.075 22.817 65.6625 22.7591 66.1964 22.538C66.7303 22.3168 67.1866 21.9424 67.5077 21.4619C67.8287 20.9814 68.0001 20.4165 68.0001 19.8386V3.45327C67.999 2.53779 67.6348 1.66013 66.9875 1.01278C66.3401 0.365441 65.4625 0.00126988 64.547 0.000145214ZM24.2145 11.6196C24.0337 11.2035 23.99 10.7406 24.0898 10.298C24.1896 9.85542 24.4277 9.45607 24.7697 9.15783C25.1093 8.87049 25.5344 8.70341 25.9789 8.68257C26.4233 8.66172 26.8621 8.78827 27.2272 9.04255C28.058 9.59392 29.0203 9.91459 30.0158 9.97171C31.6424 9.97171 32.332 9.4888 32.6529 8.77693C32.9552 8.10543 35.0435 8.10543 35.3484 8.77693C35.6672 9.4888 36.3578 9.97171 37.9861 9.97171C38.9815 9.91431 39.9438 9.59367 40.7746 9.04255C41.1403 8.78849 41.5796 8.66223 42.0243 8.68336C42.4691 8.70449 42.8944 8.87184 43.2343 9.15943C43.5757 9.45745 43.8134 9.85645 43.9128 10.2986C44.0122 10.7408 43.9683 11.2031 43.7873 11.6186C43.3565 12.7342 42.2547 15.0234 41.3271 16.9003C41.2347 16.9066 41.1433 16.9051 41.0504 16.9199C36.3783 17.6467 31.622 17.6467 26.9499 16.9199C26.8516 16.9045 26.7544 16.9056 26.6561 16.8992C25.4045 14.3439 24.5593 12.518 24.2145 11.6196ZM43.1573 19.5353C43.2532 19.7688 43.2972 20.0204 43.2862 20.2726C43.2751 20.5248 43.2094 20.7716 43.0934 20.9959C42.9775 21.2201 42.8141 21.4165 42.6147 21.5713C42.4153 21.7261 42.1846 21.8357 41.9386 21.8924C36.7086 23.0407 31.2917 23.0407 26.0617 21.8924C25.6229 21.795 25.2393 21.5307 24.9921 21.1554C24.7448 20.7801 24.6534 20.3233 24.7371 19.8817C24.8207 19.4401 25.073 19.0485 25.4404 18.7897C25.8078 18.5308 26.2616 18.4252 26.7055 18.4951C31.5395 19.2468 36.4607 19.2468 41.2947 18.4951C41.6768 18.4339 42.0684 18.5033 42.4063 18.6919C42.7442 18.8805 43.0088 19.1779 43.1573 19.5353ZM18.6173 17.8034C18.4878 17.7464 18.371 17.6644 18.2736 17.5619C18.1761 17.4595 18.0999 17.3387 18.0494 17.2067C17.999 17.0746 17.9752 16.9338 17.9795 16.7925C17.9838 16.6512 18.0161 16.5121 18.0746 16.3833C18.133 16.2546 18.2164 16.1387 18.3199 16.0424C18.4235 15.9461 18.5451 15.8713 18.6777 15.8224C18.8104 15.7734 18.9514 15.7512 19.0927 15.7572C19.234 15.7631 19.3726 15.797 19.5007 15.8569L24.0355 17.9128C23.5866 18.3798 23.2854 18.9687 23.1695 19.6059L22.8508 19.7223L18.6173 17.8034ZM15.8314 25.2584C15.7213 24.9532 15.7369 24.6167 15.8746 24.3229C16.0123 24.0291 16.261 23.8019 16.5661 23.6912L23.2912 21.2565C23.3708 21.5088 23.4841 21.7491 23.628 21.9711C22.7668 22.7451 21.7468 23.7035 20.6466 24.8191L17.3991 25.9942C17.0936 26.1032 16.7573 26.0871 16.4637 25.9492C16.17 25.8114 15.9427 25.5631 15.8314 25.2584ZM2.95441 66.0441C2.843 66.1556 2.70102 66.2315 2.54645 66.2623C2.39187 66.2931 2.23163 66.2774 2.086 66.2171C1.94037 66.1568 1.81588 66.0547 1.72828 65.9237C1.64069 65.7926 1.59391 65.6386 1.59388 65.481V45.7015C1.59462 45.3831 1.65858 45.068 1.78206 44.7745C1.90554 44.4811 2.08608 44.215 2.31319 43.9919L14.4597 32.1254C11.2254 36.6739 8.51819 42.0991 8.24407 47.7441C8.02254 52.2682 8.64304 55.944 10.1252 58.8738L2.95441 66.0441ZM58.1667 47.8233C58.4589 53.8955 57.2237 58.2889 54.3895 61.2474C50.2357 65.5861 43.2333 66.4595 34.0038 66.4064C25.9931 66.3708 17.9728 65.6961 13.5661 61.0477C10.7638 58.0913 9.54244 53.7653 9.83357 47.8238C10.3526 37.2238 20.0978 27.2703 24.7771 23.0814C25.0713 23.2519 25.3901 23.3761 25.7222 23.4495C31.176 24.6459 36.8243 24.6459 42.2781 23.4495C42.6043 23.3773 42.9176 23.2558 43.2072 23.0893C47.8928 27.2793 57.6572 37.2376 58.1667 47.8233ZM66.4064 19.8386C66.4064 20.1013 66.3286 20.3582 66.1826 20.5766C66.0367 20.7951 65.8293 20.9653 65.5865 21.0659C65.3438 21.1664 65.0767 21.1927 64.8191 21.1415C64.5614 21.0902 64.3247 20.9637 64.139 20.7779L61.5247 18.1631C61.3721 18.0143 61.1669 17.9319 60.9538 17.9339C60.7407 17.9359 60.5371 18.0221 60.3873 18.1737L50.5751 28.3461C48.6458 26.0924 46.5707 23.9678 44.3632 21.9859C44.6188 21.5877 44.7859 21.1392 44.8532 20.6707C44.9204 20.2023 44.8863 19.7249 44.7531 19.2708C44.6198 18.8167 44.3906 18.3965 44.0809 18.0387C43.7713 17.6809 43.3883 17.3937 42.9581 17.1967C43.8113 15.4611 44.7574 13.4838 45.2084 12.3576L49.8447 7.59702C49.9908 7.44692 50.072 7.24531 50.0706 7.03582C50.0692 6.82633 49.9853 6.62582 49.8372 6.47768L47.2224 3.86127C47.0323 3.6784 46.9028 3.44162 46.8514 3.18286C46.8 2.9241 46.8292 2.6558 46.935 2.41415C47.0312 2.16846 47.2003 1.95813 47.4196 1.81148C47.6389 1.66482 47.8979 1.58889 48.1617 1.5939H64.547C65.0401 1.5939 65.5131 1.78979 65.8618 2.13849C66.2105 2.48719 66.4064 2.96013 66.4064 3.45327V19.8386Z" fill="black"/>
<path d="M33.4469 37.3321H35.1076C35.4834 37.3325 35.8437 37.4819 36.1094 37.7477C36.3751 38.0134 36.5246 38.3737 36.525 38.7494C36.525 38.9608 36.609 39.1635 36.7584 39.3129C36.9079 39.4623 37.1105 39.5463 37.3219 39.5463C37.5332 39.5463 37.7359 39.4623 37.8854 39.3129C38.0348 39.1635 38.1188 38.9608 38.1188 38.7494C38.1179 37.9511 37.8004 37.1857 37.2359 36.6212C36.6714 36.0567 35.906 35.7392 35.1076 35.7383H34.7974V34.3193C34.7974 34.108 34.7134 33.9053 34.564 33.7559C34.4145 33.6064 34.2119 33.5225 34.0005 33.5225C33.7892 33.5225 33.5865 33.6064 33.437 33.7559C33.2876 33.9053 33.2036 34.108 33.2036 34.3193V35.7489C32.2758 35.8038 31.4062 36.2192 30.7803 36.9064C30.1544 37.5935 29.8219 38.498 29.8536 39.427C29.8854 40.3559 30.2789 41.2356 30.9502 41.8784C31.6216 42.5212 32.5175 42.8762 33.4469 42.8677H34.5541C35.0713 42.8762 35.5644 43.0876 35.9271 43.4563C36.2899 43.8251 36.4932 44.3216 36.4932 44.8389C36.4932 45.3561 36.2899 45.8527 35.9271 46.2214C35.5644 46.5902 35.0713 46.8016 34.5541 46.8101H32.8934C32.5175 46.8097 32.1572 46.6601 31.8914 46.3943C31.6257 46.1285 31.4763 45.7681 31.476 45.3922C31.476 45.1808 31.3921 44.9781 31.2426 44.8287C31.0932 44.6793 30.8905 44.5953 30.6791 44.5953C30.4678 44.5953 30.2651 44.6793 30.1157 44.8287C29.9662 44.9781 29.8823 45.1808 29.8823 45.3922C29.8831 46.1906 30.2006 46.956 30.7651 47.5206C31.3296 48.0852 32.095 48.4029 32.8934 48.4038H33.2036V49.8212C33.2036 50.0326 33.2876 50.2352 33.437 50.3847C33.5865 50.5341 33.7892 50.6181 34.0005 50.6181C34.2119 50.6181 34.4145 50.5341 34.564 50.3847C34.7134 50.2352 34.7974 50.0326 34.7974 49.8212V48.3916C35.7217 48.3319 36.5865 47.9146 37.2084 47.2281C37.8302 46.5416 38.1603 45.64 38.1287 44.7142C38.0971 43.7885 37.7062 42.9115 37.0389 42.2691C36.3716 41.6266 35.4803 41.2693 34.5541 41.2729H33.4469C32.9242 41.2729 32.4229 41.0652 32.0533 40.6956C31.6837 40.326 31.476 39.8247 31.476 39.3019C31.476 38.7792 31.6837 38.2779 32.0533 37.9083C32.4229 37.5386 32.9242 37.331 33.4469 37.331V37.3321Z" fill="black"/>
</g>
<defs>
<clipPath id="clip0_2953_38358">
<rect width="68" height="68" fill="white"/>
</clipPath>
</defs>
</svg>
