<svg width="68" height="68" viewBox="0 0 68 68" fill="none" xmlns="http://www.w3.org/2000/svg">
<path d="M50.225 3.145L51.8294 8.755C50.8731 8.585 49.885 8.5 48.8756 8.5C47.8662 8.5 46.8781 8.585 45.9219 8.755L47.5262 3.145C47.6962 2.53938 48.2487 2.125 48.8756 2.125C49.5025 2.125 50.055 2.53938 50.225 3.145Z" fill="#CCD1D9"/>
<path d="M45.9213 8.755C46.8775 8.585 47.8656 8.5 48.875 8.5C48.875 8.5 40.375 13.8125 40.375 24.4375L40.5025 24.4694C40.4175 24.7987 40.375 25.1494 40.375 25.5C40.375 24.3313 39.8969 23.2688 39.1319 22.4931C38.3563 21.7281 37.2937 21.25 36.125 21.25C34.9562 21.25 33.8938 21.7281 33.1181 22.4931C32.3531 23.2688 31.875 24.3313 31.875 25.5C31.875 20.8038 33.7769 16.5538 36.8475 13.4725C39.27 11.0606 42.415 9.37125 45.9213 8.755Z" fill="#FFEAA7"/>
<path d="M51.8287 8.755C55.335 9.37125 58.48 11.0606 60.9025 13.4725C63.9731 16.5538 65.875 20.8038 65.875 25.5C65.875 24.3313 65.3969 23.2688 64.6319 22.4931C63.8563 21.7281 62.7937 21.25 61.625 21.25C60.4563 21.25 59.3937 21.7281 58.6181 22.4931C58.0869 23.035 57.6937 23.715 57.5025 24.4694L57.375 24.4375C57.375 13.8125 48.875 8.5 48.875 8.5C49.8844 8.5 50.8725 8.585 51.8287 8.755Z" fill="#FFEAA7"/>
<path d="M57.375 24.4375L57.5025 24.4694C57.4175 24.7987 57.375 25.1494 57.375 25.5C57.375 24.3313 56.8969 23.2688 56.1319 22.4931C55.3563 21.7281 54.2937 21.25 53.125 21.25C51.9563 21.25 50.8937 21.7281 50.1181 22.4931C49.3531 23.2688 48.875 24.3313 48.875 25.5C48.875 23.1519 46.9731 21.25 44.625 21.25C43.4562 21.25 42.3937 21.7281 41.6181 22.4931C41.0869 23.035 40.6937 23.715 40.5025 24.4694L40.375 24.4375C40.375 13.8125 48.875 8.5 48.875 8.5C48.875 8.5 57.375 13.8125 57.375 24.4375Z" fill="#EF7385"/>
<path d="M48.875 31.875C54.74 31.875 59.5 36.635 59.5 42.5C59.5 45.4644 58.2781 48.1525 56.3125 50.0863C54.4 51.9669 51.7756 53.125 48.875 53.125C46.9306 53.125 45.1031 52.6044 43.5412 51.6906C43.4669 50.9256 43.2119 50.2775 42.7338 49.7994L39.8012 46.8669C39.7162 46.7606 39.6312 46.6544 39.5356 46.5588C39.3444 46.3675 39.1213 46.2081 38.8663 46.0806C38.4731 44.965 38.25 43.7537 38.25 42.5C38.25 36.635 43.01 31.875 48.875 31.875Z" fill="#FCD770"/>
<path d="M55.2511 56.525C53.4767 57.0563 51.2667 57.375 48.8761 57.375C46.4217 57.375 44.1586 57.0456 42.363 56.4825H42.3523C41.7998 57.6087 41.0667 58.7562 40.1848 59.8187C39.7917 60.3075 39.3667 60.7856 38.9205 61.2319C38.708 61.4444 38.4848 61.6569 38.2617 61.8588C38.4423 63.155 40.068 64.2919 42.5011 65.025C44.2755 65.5563 46.4855 65.875 48.8761 65.875C51.2667 65.875 53.4767 65.5563 55.2511 65.025C57.833 64.2494 59.5011 63.0169 59.5011 61.625V57.375V53.125C59.5011 54.5169 57.833 55.7494 55.2511 56.525Z" fill="#FFEAA7"/>
<path d="M42.6172 55.9084C43.3184 54.3678 43.6584 52.8909 43.5416 51.6903C45.1034 52.6041 46.9309 53.1247 48.8753 53.1247C51.7759 53.1247 54.4003 51.9666 56.3128 50.0859C58.2784 50.8616 59.5003 51.9347 59.5003 53.1247C59.5003 54.5166 57.8322 55.7491 55.2503 56.5247C53.4759 57.0559 51.2659 57.3747 48.8753 57.3747C46.4209 57.3747 44.1578 57.0453 42.3622 56.4822H42.3516C42.4578 56.2909 42.5428 56.0997 42.6172 55.9084Z" fill="#FCD770"/>
<path d="M43.5406 51.6909C43.4662 50.9259 43.2113 50.2778 42.7331 49.7997L39.8006 46.8672C40.7356 48.1634 40.47 50.3841 39.4181 52.7216C38.6 54.5384 37.3038 56.4297 35.71 58.0234V58.0341C34.1163 59.6172 32.2144 60.9134 30.3975 61.7316C28.1875 62.7197 26.0837 63.0172 24.7662 62.2734L24.7556 62.2628C24.7556 62.2628 24.745 62.2841 24.7344 62.2841V62.2947L27.4863 65.0466C28.7081 66.2684 31.0775 66.0666 33.5956 64.9297C35.1788 64.2391 36.815 63.1659 38.26 61.8591C38.4831 61.6572 38.7063 61.4447 38.9188 61.2322C39.365 60.7859 39.79 60.3078 40.1831 59.8191C41.065 58.7566 41.7981 57.6091 42.3506 56.4828C42.4569 56.2916 42.5419 56.1003 42.6162 55.9091C43.3175 54.3684 43.6575 52.8916 43.5406 51.6909Z" fill="#FFEAA7"/>
<path d="M39.8028 46.8673C40.7378 48.1636 40.4722 50.3842 39.4203 52.7217C38.6022 54.5386 37.3059 56.4298 35.7122 58.0236V58.0342C34.1184 59.6173 32.2166 60.9136 30.3997 61.7317C28.1897 62.7198 26.0859 63.0173 24.7684 62.2736L24.7578 62.2629C29.1566 58.9904 31.8766 53.7736 31.8766 48.0786V47.4411C34.5328 45.9111 37.2422 45.2736 38.8678 46.0811C39.1228 46.2086 39.3459 46.3679 39.5372 46.5592C39.6328 46.6548 39.7178 46.7611 39.8028 46.8673Z" fill="#FCD770"/>
<path d="M31.875 47.4406V48.0781C31.875 53.7731 29.155 58.99 24.7562 62.2625C24.7562 62.2625 24.7456 62.2837 24.735 62.2837C23.3538 63.3144 21.8025 64.1538 20.1131 64.7594L17 65.875L13.8869 64.7594C6.83187 62.2412 2.125 55.5688 2.125 48.0781V34H3.38938C8.64875 34 13.6319 31.6625 17 27.625C18.6788 29.6437 20.7719 31.2375 23.0987 32.3212C25.415 33.4156 27.9862 34 30.6106 34H31.875V47.4406Z" fill="#B4DD7F"/>
<path d="M27.625 38.0479V48.0779C27.625 53.7516 24.0338 58.8516 18.6894 60.7641L17 61.3591L15.3106 60.7641C9.96625 58.8516 6.375 53.7516 6.375 48.0779V38.0479C10.2744 37.5166 13.9294 35.9547 17 33.5322C20.0706 35.9547 23.7256 37.5166 27.625 38.0479Z" fill="#FFEAA7"/>
<path d="M52.6777 7.84869L51.2508 2.856C50.9501 1.79987 49.9726 1.0625 48.875 1.0625C47.7774 1.0625 46.7999 1.79988 46.4992 2.85494L45.0723 7.84869C36.9336 9.60075 30.8125 16.8449 30.8125 25.5H32.9375C32.9375 23.7426 34.3676 22.3125 36.125 22.3125C37.8824 22.3125 39.3125 23.7426 39.3125 25.5H41.4375C41.4375 23.7426 42.8676 22.3125 44.625 22.3125C46.3824 22.3125 47.8125 23.7426 47.8125 25.5V30.8667C41.8646 31.4054 37.1875 36.414 37.1875 42.5C37.1875 43.2416 37.2629 43.9737 37.4 44.693C36.0995 44.6409 34.5759 44.9799 32.9375 45.713V32.9375H30.6117C25.6541 32.9375 20.9897 30.753 17.8171 26.945L17 25.9654L16.1829 26.945C13.0103 30.753 8.34594 32.9375 3.38831 32.9375H1.0625V48.0771C1.0625 55.9927 6.07112 63.1008 13.5256 65.7634L17 67.0034L20.4744 65.7634C21.9576 65.2333 23.3389 64.5214 24.6086 63.6682L26.7367 65.7964C27.4954 66.555 28.5611 66.9386 29.852 66.9386C30.7711 66.9386 31.8049 66.7441 32.9248 66.3521C34.595 65.7677 36.3301 64.7785 37.9036 63.5449C39.6514 65.7762 44.3594 66.9375 48.875 66.9375C54.5413 66.9375 60.5625 65.076 60.5625 61.625V57.375V53.125C60.5625 51.8277 59.6679 50.6558 58.0348 49.7378C59.6126 47.7445 60.5625 45.2338 60.5625 42.5C60.5625 36.414 55.8854 31.4054 49.9375 30.8667V25.5C49.9375 23.7426 51.3676 22.3125 53.125 22.3125C54.8824 22.3125 56.3125 23.7426 56.3125 25.5H58.4375C58.4375 23.7426 59.8676 22.3125 61.625 22.3125C63.3824 22.3125 64.8125 23.7426 64.8125 25.5H66.9375C66.9375 16.8449 60.8164 9.60075 52.6777 7.84869ZM41.9815 50.5506C42.5861 51.1562 42.6371 52.4323 42.1919 53.9867L40.6746 52.4694C41.0178 51.5897 41.2484 50.7323 41.3578 49.9269L41.9815 50.5506ZM32.1789 62.0043C33.4167 61.3094 34.6131 60.4531 35.683 59.4979L37.3936 61.2074C36.2876 62.186 35.0614 63.0264 33.8279 63.6533L32.1789 62.0043ZM39.6971 54.4967L41.3344 56.134C40.7394 57.3166 39.9202 58.5491 38.8971 59.7061L37.1864 57.9955C38.1714 56.8979 39.0192 55.7079 39.6971 54.4967ZM47.8125 62.662V64.7902C46.1975 64.7243 44.7695 64.5086 43.5625 64.209V62.1446C44.8662 62.4293 46.3037 62.6046 47.8125 62.662ZM49.9375 62.6662C51.3931 62.6068 52.8445 62.4251 54.1875 62.1286V64.2132C52.9816 64.5107 51.5568 64.7254 49.9375 64.7912V62.6662ZM49.9375 60.5412V58.4162C51.3931 58.3568 52.8445 58.1751 54.1875 57.8786V59.9632C52.9816 60.2607 51.5568 60.4754 49.9375 60.5412ZM47.8125 60.537C45.5313 60.4424 43.4254 60.0429 41.8328 59.415C42.2238 58.8625 42.5861 58.2962 42.908 57.7235C44.3976 58.106 46.0583 58.3366 47.8136 58.4024L47.8125 60.537ZM38.7908 47.3121C39.1372 47.6584 39.3125 48.2035 39.3125 48.9324C39.3125 51.2879 37.5211 54.7209 34.9573 57.2783C32.4105 59.8188 29.3261 61.3169 27.1862 61.5729C30.7711 58.1039 32.9354 53.2706 32.9364 48.0813C35.5066 46.7245 37.8675 46.3898 38.7908 47.3121ZM19.7604 63.7617L17 64.7466L14.2396 63.7617C7.62981 61.4008 3.1875 55.097 3.1875 48.0771V35.0625H3.38831C8.568 35.0625 13.4619 32.9481 17 29.223C20.5371 32.9481 25.432 35.0625 30.6117 35.0625H30.8125V48.0771C30.8125 55.097 26.3702 61.4008 19.7604 63.7617ZM28.2381 64.294L27.6144 63.6703C28.4304 63.5577 29.2846 63.3218 30.1506 62.9818L31.6838 64.515C30.1112 64.9697 28.8426 64.8986 28.2381 64.294ZM39.5027 62.1456C39.559 62.0914 39.6174 62.0394 39.6727 61.9841C39.9426 61.7143 40.2039 61.4338 40.4589 61.1458C40.7681 61.2871 41.0943 61.4199 41.4375 61.5432V63.5067C40.4621 63.0796 39.8034 62.5993 39.5027 62.1456ZM56.3125 63.512V61.5209C57.1062 61.2361 57.8276 60.9036 58.4375 60.5189V61.625C58.4375 62.2104 57.6768 62.9138 56.3125 63.512ZM56.3125 59.262V57.2709C57.1062 56.9861 57.8276 56.6536 58.4375 56.2689V57.375C58.4375 57.9604 57.6768 58.6638 56.3125 59.262ZM58.4375 53.125C58.4375 54.4244 54.7124 56.3125 48.875 56.3125C47.0985 56.3125 45.3603 56.1191 43.8398 55.7706C44.1692 54.9408 44.4072 54.1216 44.5294 53.3417C45.9053 53.8921 47.379 54.1875 48.875 54.1875C51.7926 54.1875 54.4574 53.1059 56.508 51.3315C57.6969 51.8904 58.4375 52.5672 58.4375 53.125ZM58.4375 42.5C58.4375 47.7721 54.1482 52.0625 48.875 52.0625C47.3471 52.0625 45.8511 51.68 44.5039 50.9851C44.3413 50.2382 44.013 49.5773 43.4839 49.0471L40.5535 46.1167L40.545 46.1252C40.4611 46.019 40.3878 45.9032 40.2911 45.8076C40.1359 45.6535 39.9532 45.5334 39.7726 45.4113C39.4729 44.472 39.3125 43.4956 39.3125 42.5C39.3125 37.2279 43.6018 32.9375 48.875 32.9375C54.1482 32.9375 58.4375 37.2279 58.4375 42.5ZM48.5435 3.43719C48.6264 3.14287 49.1247 3.14181 49.2076 3.43825L50.3721 7.51294C49.8769 7.47256 49.3797 7.4375 48.875 7.4375C48.3703 7.4375 47.8731 7.47256 47.3779 7.51294L48.5435 3.43719ZM36.125 20.1875C35.2293 20.1875 34.3846 20.4096 33.643 20.8037C35.3249 15.3627 39.8512 11.1701 45.4729 9.94075C43.2246 12.1635 40.3612 15.9874 39.5526 21.4444C38.6261 20.6614 37.4297 20.1875 36.125 20.1875ZM53.125 20.1875C51.3889 20.1875 49.8451 21.0247 48.875 22.3157C47.9049 21.0247 46.3611 20.1875 44.625 20.1875C43.5731 20.1875 42.5935 20.4988 41.7669 21.029C42.9962 14.7401 47.3322 10.9714 48.8761 9.80475C50.4231 10.9671 54.7591 14.7209 55.9842 21.0301C55.1586 20.4988 54.1779 20.1875 53.125 20.1875ZM61.625 20.1875C60.3203 20.1875 59.1239 20.6614 58.1974 21.4444C57.3877 15.9874 54.5254 12.1635 52.2771 9.94075C57.8988 11.169 62.4251 15.3627 64.107 20.8037C63.3654 20.4096 62.5207 20.1875 61.625 20.1875Z" fill="black"/>
<path d="M47.8125 35.0625V37.1875H45.6875V40.375C45.6875 42.1324 47.1176 43.5625 48.875 43.5625C49.4615 43.5625 49.9375 44.0396 49.9375 44.625V45.6875H48.875C48.2885 45.6875 47.8125 45.2104 47.8125 44.625H45.6875C45.6875 46.0084 46.5789 47.1771 47.8125 47.617V49.9375H49.9375V47.8125H52.0625V44.625C52.0625 42.8676 50.6324 41.4375 48.875 41.4375C48.2885 41.4375 47.8125 40.9604 47.8125 40.375V39.3125H48.875C49.4615 39.3125 49.9375 39.7896 49.9375 40.375H52.0625C52.0625 38.9916 51.1711 37.8229 49.9375 37.383V35.0625H47.8125Z" fill="black"/>
<path d="M55.25 43.5625C55.8368 43.5625 56.3125 43.0868 56.3125 42.5C56.3125 41.9132 55.8368 41.4375 55.25 41.4375C54.6632 41.4375 54.1875 41.9132 54.1875 42.5C54.1875 43.0868 54.6632 43.5625 55.25 43.5625Z" fill="black"/>
<path d="M42.5 43.5625C43.0868 43.5625 43.5625 43.0868 43.5625 42.5C43.5625 41.9132 43.0868 41.4375 42.5 41.4375C41.9132 41.4375 41.4375 41.9132 41.4375 42.5C41.4375 43.0868 41.9132 43.5625 42.5 43.5625Z" fill="black"/>
<path d="M28.6875 37.1207L27.7684 36.9954C24.0752 36.4917 20.5785 35.0042 17.6588 32.6965L17 32.1748L16.3413 32.6965C13.4215 35.0053 9.92481 36.4917 6.23156 36.9954L5.3125 37.1207V48.0772C5.3125 54.2015 9.18637 59.701 14.9547 61.7612L17 62.4911L19.0442 61.7601C24.8126 59.6999 28.6875 54.2015 28.6875 48.0772V37.1207ZM26.5625 48.0772C26.5625 53.3058 23.2539 58.001 18.3292 59.7594L17 60.2344L15.6687 59.7594C10.7451 57.9999 7.4375 53.3058 7.4375 48.0772V38.9578C10.8959 38.3426 14.1706 36.9422 17 34.8661C19.8294 36.9422 23.1041 38.3426 26.5625 38.9578V48.0772Z" fill="black"/>
<path d="M15.9375 37.1875V39.3125H12.75V43.5625C12.75 45.9064 14.6561 47.8125 17 47.8125C18.1719 47.8125 19.125 48.7656 19.125 49.9375V52.0625H17C15.8281 52.0625 14.875 51.1094 14.875 49.9375H12.75C12.75 51.9116 14.1089 53.5617 15.9375 54.0366V56.3125H18.0625V54.1875H21.25V49.9375C21.25 47.5936 19.3439 45.6875 17 45.6875C15.8281 45.6875 14.875 44.7344 14.875 43.5625V41.4375H17C18.1719 41.4375 19.125 42.3906 19.125 43.5625H21.25C21.25 41.5884 19.8911 39.9383 18.0625 39.4634V37.1875H15.9375Z" fill="black"/>
</svg>
