<svg width="68" height="68" viewBox="0 0 68 68" fill="none" xmlns="http://www.w3.org/2000/svg">
<g clip-path="url(#clip0_2953_38666)">
<path d="M64.1278 10.9277H19.7877L18.8232 11.6825L18.1094 13.2099V16.331L18.3698 16.9864L18.1094 17.3769V23.9817H57.2056L59.8619 26.2621V44.6562H64.1276C65.7173 44.6562 67.0058 43.3676 67.0058 41.778V13.8059C67.0058 12.2163 65.7173 10.9277 64.1278 10.9277Z" fill="#A2E82D"/>
<path d="M18.3673 23.9817V13.8059C18.3673 12.2163 19.6559 10.9277 21.2455 10.9277H9.88993C8.30041 10.9277 7.01172 12.2163 7.01172 13.8059V23.9817H18.3673Z" fill="#98D829"/>
<path d="M59.9113 16.9863H18.3659L18.1055 17.3768V23.9816H57.2017L59.858 26.262V38.5974H59.911C60.4312 38.5974 60.8531 38.1757 60.8531 37.6553V17.9282C60.8532 17.408 60.4315 16.9863 59.9113 16.9863Z" fill="#8CC825"/>
<path d="M18.3668 23.9816V16.9863H13.9694C13.4492 16.9863 13.0273 17.408 13.0273 17.9284V23.9816H18.3668Z" fill="#82B922"/>
<path d="M47.1307 23.9817C45.9365 20.8137 43.2985 18.3538 40.0176 17.4053H38.8278L35.6845 18.9154L32.7184 22.8112L32.2461 23.9817H47.1307Z" fill="#A2E82D"/>
<path d="M32.903 23.9821C34.0971 20.8141 36.7352 18.3543 40.016 17.4058C39.0607 17.1295 38.0523 16.9785 37.008 16.9785C32.3772 16.9785 28.4279 19.8903 26.8867 23.9821H32.903Z" fill="#98D829"/>
<path d="M58.1082 23.3428H13.7682L12.8037 24.0976L12.0898 25.6249V28.746L12.3503 29.4015L12.0898 29.7919V50.3227L12.3503 51.0125L12.0898 51.7615V54.3513L12.3503 55.6131L13.3959 56.6978L14.2793 57.0712H58.1084C59.698 57.0712 60.9866 55.7827 60.9866 54.193V26.2208C60.9864 24.6313 59.6979 23.3428 58.1082 23.3428Z" fill="#BCED6B"/>
<path d="M12.3517 54.1932V26.221C12.3517 24.6313 13.6402 23.3428 15.2299 23.3428H3.8743C2.28479 23.3428 0.996094 24.6313 0.996094 26.221V54.1932C0.996094 55.7828 2.28465 57.0714 3.8743 57.0714H15.2299C13.6404 57.0714 12.3517 55.7828 12.3517 54.1932Z" fill="#98D829"/>
<path d="M54.0283 29.4023H12.3503L12.0898 29.7928V50.3236L12.3503 51.0134H54.0283C54.5486 51.0134 54.9704 50.5917 54.9704 50.0714V30.3443C54.9704 29.824 54.5486 29.4023 54.0283 29.4023Z" fill="#98D829"/>
<path d="M7.95377 29.4023C7.43354 29.4023 7.01172 29.824 7.01172 30.3444V50.0716C7.01172 50.5919 7.43354 51.0137 7.95377 51.0137H12.3512V29.4023H7.95377Z" fill="#8CC825"/>
<path d="M34.0011 29.8203H32.8113L29.668 31.3304L26.7019 35.2262L25.6836 37.7497V43.5935L27.639 47.4107L30.993 50.057L34.0011 50.5936C38.5092 49.2902 41.8069 45.1349 41.8069 40.2069C41.8068 35.279 38.5092 31.1239 34.0011 29.8203Z" fill="#D3F39F"/>
<path d="M26.1958 40.2075C26.1958 35.2795 29.4935 31.1243 34.0016 29.8208C33.0463 29.5446 32.0378 29.3936 30.9935 29.3936C25.0211 29.3936 20.1797 34.2351 20.1797 40.2074C20.1797 46.1796 25.0213 51.0212 30.9935 51.0212C32.0378 51.0212 33.0463 50.8702 34.0016 50.5941C29.4934 49.2908 26.1958 45.1356 26.1958 40.2075Z" fill="#BCED6B"/>
<path d="M31.988 39.2799C30.3609 38.8512 29.6291 38.172 29.6291 37.8265C29.6291 37.2821 30.2509 36.6757 31.1429 36.6757C32.1294 36.6757 32.9378 37.4726 32.9603 37.4949C33.3424 37.8871 33.9701 37.8974 34.3645 37.5172C34.7607 37.1356 34.7727 36.505 34.3911 36.1087C34.2736 35.9867 33.3524 35.0728 31.9868 34.7774V34.0408C31.9868 33.4953 31.5664 33.0197 31.0212 33.0034C30.457 32.9865 29.9946 33.4387 29.9946 33.9991V34.8575C28.6238 35.2847 27.6367 36.4539 27.6367 37.8265C27.6367 39.331 29.0376 40.5629 31.4801 41.2064C32.8364 41.5636 32.8364 42.1102 32.8364 42.5491C32.8364 43.027 32.3504 43.7379 31.0114 43.7379C30.2922 43.7379 29.7773 43.4787 29.447 43.2273C29.1199 42.9782 28.6723 42.9607 28.3236 43.1787C27.7301 43.5495 27.6989 44.3959 28.2563 44.8192C28.6841 45.144 29.2602 45.4617 29.9944 45.622V46.3728C29.9944 46.9183 30.4148 47.3939 30.96 47.4102C31.5242 47.4271 31.9866 46.9749 31.9866 46.4145V45.637C33.8391 45.2709 34.8285 43.8747 34.8285 42.5491C34.8289 40.8766 33.8731 39.7766 31.988 39.2799Z" fill="black"/>
<path d="M3.87418 58.0676H58.1095C60.2458 58.0676 61.9838 56.3296 61.9838 54.1933V45.6522H64.1257C66.262 45.6522 68 43.9142 68 41.7779V13.8058C68 11.6696 66.262 9.93164 64.1257 9.93164H39.3323C38.782 9.93164 38.3362 10.3776 38.3362 10.9277C38.3362 11.4779 38.782 11.9238 39.3323 11.9238H64.1258C65.1635 11.9238 66.0079 12.7681 66.0079 13.8058V41.778C66.0079 42.8158 65.1636 43.6601 64.1258 43.6601H61.9839C61.9839 42.5989 61.9839 19.0432 61.9839 17.9284C61.9839 16.8597 61.1145 15.9903 60.0459 15.9903C59.4313 15.9903 15.2588 15.9903 13.9703 15.9903C12.9015 15.9903 12.0321 16.8597 12.0321 17.9284V22.3471H8.00827V13.806C8.00827 12.7683 8.85257 11.924 9.89038 11.924H34.6838C35.234 11.924 35.6799 11.478 35.6799 10.9279C35.6799 10.3778 35.234 9.93177 34.6838 9.93177H9.89038C7.75407 9.93177 6.01607 11.6698 6.01607 13.806V22.3471H3.87418C1.738 22.3469 0 24.0849 0 26.2213V54.1933C0 56.3296 1.738 58.0676 3.87418 58.0676ZM59.9916 17.9824V22.8356C59.431 22.5231 58.779 22.3469 58.1095 22.3469H47.4847C46.554 20.5591 45.1964 19.0699 43.5716 17.9824H59.9916ZM36.6267 17.9824H37.3892C40.5485 18.1057 43.4425 19.7526 45.1754 22.3469H28.8405C30.5736 19.7526 33.4676 18.1057 36.6267 17.9824ZM14.0243 17.9824H30.4444C28.8195 19.0699 27.4619 20.5591 26.5314 22.3469H14.0243V17.9824ZM1.99221 26.2213C1.99221 25.1834 2.83637 24.3391 3.87418 24.3391H58.1095C59.147 24.3391 59.9916 25.1832 59.9916 26.2213V54.1933C59.9916 55.2311 59.1473 56.0754 58.1095 56.0754H3.87418C2.8365 56.0754 1.99221 55.2311 1.99221 54.1933V26.2213Z" fill="black"/>
<path d="M14.6849 39.2109H12.5938C12.0435 39.2109 11.5977 39.6569 11.5977 40.207C11.5977 40.7571 12.0435 41.2031 12.5938 41.2031H14.6849C15.2351 41.2031 15.681 40.7571 15.681 40.207C15.681 39.6569 15.235 39.2109 14.6849 39.2109Z" fill="black"/>
<path d="M47.3008 39.2109C46.7505 39.2109 46.3047 39.6569 46.3047 40.207C46.3047 40.7571 46.7505 41.2031 47.3008 41.2031H49.3919C49.9422 41.2031 50.388 40.7571 50.388 40.207C50.388 39.6569 49.9422 39.2109 49.3919 39.2109H47.3008Z" fill="black"/>
<path d="M7.95391 52.0087H54.0294C55.0982 52.0087 55.9676 51.1393 55.9676 50.0705V42.6468C55.9676 42.0966 55.5217 41.6507 54.9715 41.6507C54.4212 41.6507 53.9754 42.0966 53.9754 42.6468V50.0165H37.5609C40.7191 47.8945 42.8015 44.2895 42.8015 40.207C42.8015 36.1244 40.7191 32.5194 37.5609 30.3975H53.9752V37.9983C53.9752 38.5484 54.4211 38.9944 54.9713 38.9944C55.5216 38.9944 55.9674 38.5484 55.9674 37.9983V30.3434C55.9674 29.2748 55.098 28.4053 54.0293 28.4053C53.6296 28.4053 12.2391 28.4053 7.95378 28.4053C6.88502 28.4053 6.01562 29.2747 6.01562 30.3434V50.0705C6.01576 51.1393 6.88516 52.0087 7.95391 52.0087ZM30.6644 30.3975C36.8533 30.3975 40.8093 35.123 40.8093 40.207C40.8093 45.3214 36.8246 50.0165 30.6644 50.0165C25.4019 49.8429 21.1738 45.5108 21.1738 40.207C21.1738 34.9032 25.4021 30.5711 30.6644 30.3975ZM8.00796 30.3975H24.4223C21.2641 32.5194 19.1816 36.1244 19.1816 40.207C19.1816 44.2895 21.2641 47.8945 24.4223 50.0165H8.00796V30.3975Z" fill="black"/>
</g>
<defs>
<clipPath id="clip0_2953_38666">
<rect width="68" height="68" fill="white"/>
</clipPath>
</defs>
</svg>
