<svg width="68" height="68" viewBox="0 0 68 68" fill="none" xmlns="http://www.w3.org/2000/svg">
<g clip-path="url(#clip0_2953_38628)">
<path d="M34.0023 63.0847C50.0652 63.0847 63.0867 50.0632 63.0867 34.0004C63.0867 17.9375 50.0652 4.91602 34.0023 4.91602C17.9395 4.91602 4.91797 17.9375 4.91797 34.0004C4.91797 50.0632 17.9395 63.0847 34.0023 63.0847Z" fill="#72D8FF"/>
<path d="M51.9334 16.6915C48.5536 16.6915 45.8138 19.4313 45.8138 22.811C45.8138 24.0662 44.796 25.084 43.5408 25.084C41.3199 25.084 39.5195 26.8844 39.5195 29.1053V29.9796C39.5195 32.2005 41.3199 34.0009 43.5408 34.0009H63.0868C63.0868 27.5163 60.9638 21.528 57.376 16.6914L51.9334 16.6915Z" fill="#A0E557"/>
<path d="M39.1073 46.4104H37.6906C36.6515 46.4104 35.8093 45.568 35.8093 44.5292V38.8316C35.8093 36.1637 33.6466 34.001 30.9787 34.001H25.6058H23.3729C21.6246 34.001 20.2072 35.4182 20.2072 37.1667C20.2072 37.6038 19.8529 37.9581 19.4158 37.9581H19.2976C16.6154 37.9581 14.4413 40.1324 14.4414 42.8145V42.8151C14.4415 45.497 16.6157 47.671 19.2976 47.671H21.2705C22.6499 47.671 23.7683 48.7893 23.7683 50.1686C23.7684 52.4154 25.5898 54.2367 27.8365 54.2367H34.0302C36.277 54.2367 38.0984 56.0581 38.0984 58.3049V62.7969C39.8547 62.5493 41.5609 62.1458 43.2018 61.5993V50.5052C43.202 48.2437 41.3687 46.4104 39.1073 46.4104Z" fill="#A0E557"/>
<path d="M35.075 1.41251C35.4591 4.31114 34.4718 7.22346 32.4043 9.29095L28.3339 13.3613L34.8791 26.9954L32.1853 29.6892L23.4381 18.257L15.5046 26.1905H15.4851L15.998 31.8813L12.7433 35.1361L10.2909 26.1968L1.35156 23.7445L4.6064 20.4897L10.2971 21.0026V20.9831L18.2307 13.0495L6.7982 4.30224L9.49204 1.60841L23.1263 8.15367L27.1966 4.08337C29.2641 2.01574 32.1764 1.02855 35.075 1.41251Z" fill="white"/>
<path d="M64.3985 3.60476C59.3467 -1.44703 49.9376 -1.10942 39.1941 4.12618C38.9677 4.17227 38.7592 4.27705 38.5873 4.42647C37.7323 4.85585 36.8692 5.31578 35.9997 5.80613C36.4519 4.3424 36.5951 2.78185 36.3906 1.23804C36.3117 0.642906 35.8435 0.174742 35.2484 0.0958514C31.9622 -0.339508 28.6006 0.800023 26.2566 3.14416L22.8515 6.54921L10.0659 0.411148C9.55728 0.167172 8.95072 0.270633 8.55215 0.669336L5.85818 3.36304C5.58751 3.63371 5.44673 4.00798 5.4721 4.38995C5.49733 4.77178 5.68632 5.12427 5.99033 5.35695L16.2182 13.1827L9.77868 19.6223L4.72463 19.1669C4.33323 19.1315 3.94475 19.2721 3.66625 19.5505L0.411543 22.8051C0.076988 23.1396 -0.0542307 23.6269 0.0667614 24.084C0.187886 24.5413 0.543027 24.8998 0.999238 25.0249L4.64773 26.0258C3.94608 28.6147 3.58988 31.291 3.58988 34.0006C3.58988 35.7931 3.74899 37.5871 4.05937 39.3394C2.42179 42.7325 1.25185 46.0389 0.596551 49.163C-0.789746 55.7735 0.25084 61.0411 3.60635 64.3966C5.97227 66.7627 9.38701 67.9985 13.5281 67.9985C13.8662 67.9985 14.2098 67.9903 14.5575 67.9737C18.7255 67.7752 23.5918 66.3803 28.6516 63.9412C30.3933 64.2516 32.182 64.4134 34.0023 64.4134C40.2451 64.4134 46.2441 62.5357 51.3504 58.9832C51.9525 58.5643 52.1011 57.7367 51.6822 57.1346C51.2633 56.5324 50.4355 56.384 49.8336 56.8028C46.677 58.9987 43.1462 60.4922 39.4253 61.2277V58.3049C39.4253 55.3294 37.0044 52.9086 34.0289 52.9086H27.8352C26.3245 52.9086 25.0951 51.6794 25.095 50.1684C25.0947 48.059 23.3785 46.3428 21.2691 46.3428H19.2962C17.351 46.3428 15.7683 44.7602 15.7681 42.8143C15.7681 41.8718 16.1351 40.9859 16.8014 40.3194C17.4677 39.653 18.3537 39.2859 19.2962 39.2859H19.4144C20.5832 39.2859 21.5339 38.3351 21.5339 37.1665C21.5339 36.1531 22.3583 35.3289 23.3714 35.3289H30.9773C32.9086 35.3289 34.4799 36.9002 34.4799 38.8316V44.5291C34.4799 46.2987 35.9196 47.7385 37.6895 47.7385H39.1062C40.6317 47.7385 41.8728 48.9795 41.8728 50.5052V53.7212C41.8728 54.4547 42.4675 55.0491 43.2008 55.0491C43.9342 55.0491 44.5288 54.4545 44.5288 53.7212V50.5052C44.5288 47.5151 42.0962 45.0824 39.1061 45.0824H37.6894C37.3842 45.0824 37.1359 44.8341 37.1359 44.5291V38.8314C37.1359 35.4354 34.373 32.6728 30.9773 32.6728H23.3714C21.0712 32.6728 19.1691 34.4102 18.9083 36.6416C17.4024 36.7342 15.9995 37.365 14.9233 38.4412C13.7552 39.6093 13.112 41.1624 13.1121 42.8149C13.1123 46.2247 15.8866 48.9986 19.2962 48.9986H21.2691C21.914 48.9986 22.439 49.5235 22.439 50.1684C22.4392 53.1438 24.8599 55.5646 27.8353 55.5646H34.029C35.54 55.5646 36.7694 56.7939 36.7694 58.3048V61.574C36.7694 61.5895 36.7712 61.6046 36.7718 61.6202C35.8563 61.7106 34.9326 61.7571 34.0025 61.7571C20.8559 61.7571 9.52434 52.531 6.8398 39.7368C7.95609 37.5115 9.27704 35.2483 10.7784 32.9971L11.4615 35.4875C11.5867 35.9437 11.9451 36.2989 12.4024 36.4199C12.5149 36.4497 12.629 36.4642 12.7423 36.4642C13.09 36.4642 13.4292 36.3275 13.6815 36.0752L16.9363 32.8205C17.2148 32.5419 17.3552 32.1543 17.32 31.7621L16.8645 26.7082L23.3042 20.2685L31.1297 30.4965C31.3624 30.8005 31.7148 30.9894 32.0968 31.0146C32.4773 31.0394 32.8529 30.8992 33.1237 30.6285L35.8175 27.9347C36.2162 27.536 36.3197 26.929 36.0756 26.4209L29.9376 13.635L32.379 11.1937C34.8675 9.49353 37.3312 8.03817 39.7248 6.83569C45.6123 8.06806 50.7452 11.1328 54.5725 15.3633H51.9335C47.8269 15.3633 44.4859 18.7043 44.4859 22.8109C44.4859 23.3319 44.0621 23.7559 43.5409 23.7559C40.5912 23.7559 38.1915 26.1557 38.1915 29.1053V29.9796C38.1915 32.9292 40.5912 35.329 43.5409 35.329H53.9293C54.6627 35.329 55.2573 34.7344 55.2573 34.001C55.2573 33.2676 54.6625 32.673 53.9293 32.673H43.5409C42.0558 32.673 40.8476 31.4648 40.8476 29.9797V29.1054C40.8476 27.6203 42.056 26.4121 43.5409 26.4121C45.5265 26.4121 47.1419 24.7967 47.1419 22.811C47.1419 20.169 49.2913 18.0196 51.9334 18.0196H55.7799C56.0583 18.0196 56.3164 17.9335 56.5299 17.7871C59.8358 22.3822 61.7588 28.0036 61.7588 34.001C61.7588 38.5935 60.6143 43.1428 58.449 47.1574C58.1009 47.803 58.3418 48.6085 58.9876 48.9566C59.1881 49.0648 59.4041 49.1161 59.6168 49.1161C60.0894 49.1161 60.5469 48.8633 60.787 48.4182C63.1605 44.0176 64.4149 39.0322 64.4149 34.001C64.4149 32.1811 64.2532 30.3926 63.9427 28.6511C66.3839 23.5872 67.7791 18.7168 67.9759 14.5465C68.1929 9.94562 66.9559 6.16206 64.3985 3.60476ZM24.4812 62.8859C16.0986 66.2626 9.13958 66.1737 5.48471 62.5185C2.08551 59.1195 2.36415 53.6761 3.19636 49.7084C3.60688 47.7515 4.25487 45.6799 5.11563 43.5427C8.15451 52.7739 15.433 59.9024 24.4812 62.8859ZM6.27256 35.1888C6.25582 34.793 6.24626 34.3967 6.24626 34.0005C6.24626 31.5289 6.57059 29.0883 7.20942 26.7283L9.20931 27.277L9.86022 29.6494C8.54099 31.5002 7.34303 33.3513 6.27256 35.1888ZM27.1357 13.936L33.2736 26.7218L32.3175 27.678L24.492 17.4499C24.2594 17.1459 23.907 16.9571 23.525 16.9318C23.1439 16.9066 22.7689 17.0471 22.4981 17.3179L14.6902 25.1258C14.6234 25.1756 14.5609 25.2319 14.5039 25.2945C14.2522 25.5698 14.128 25.9382 14.1615 26.3097L14.6185 31.3816L13.4185 32.5815L11.5708 25.845C11.4468 25.3929 11.0935 25.0396 10.6414 24.9156L3.90504 23.0679L5.105 21.8678L10.1768 22.3248C10.5495 22.3587 10.9167 22.234 11.1921 21.9824C11.2545 21.9254 11.3108 21.8632 11.3606 21.7964L19.1688 13.9882C19.4395 13.7175 19.5802 13.3432 19.5549 12.9613C19.5296 12.5794 19.3406 12.2269 19.0366 11.9943L8.80875 4.16868L9.76486 3.21256L22.5507 9.35049C23.0593 9.59447 23.6659 9.49101 24.0645 9.0923L28.1348 5.022C29.6433 3.51338 31.7119 2.6679 33.8261 2.66006C33.8181 4.7743 32.9727 6.84286 31.4642 8.35148L30.5729 9.24278C30.5726 9.24305 30.5723 9.24331 30.5722 9.24358L27.3937 12.422C26.9952 12.8209 26.8916 13.4277 27.1357 13.936ZM62.8869 24.4809C59.9016 15.4305 52.7677 8.14774 43.5324 5.11072C51.7855 1.792 58.8184 1.78084 62.5202 5.48299C66.175 9.13759 66.264 16.0979 62.8869 24.4809Z" fill="black"/>
<path d="M56.6821 52.2732C56.1282 51.7775 55.2998 51.8285 54.7958 52.3893C54.7936 52.3918 54.7913 52.3943 54.789 52.3968C54.2894 52.9616 54.3332 53.7904 54.889 54.2841C55.1438 54.5103 55.4555 54.6215 55.7668 54.6215C56.1352 54.6215 56.5032 54.4658 56.7751 54.1609C57.2766 53.5981 57.2361 52.769 56.6821 52.2732Z" fill="black"/>
</g>
<defs>
<clipPath id="clip0_2953_38628">
<rect width="68" height="68" fill="white"/>
</clipPath>
</defs>
</svg>
