<svg width="243" height="121" viewBox="0 0 243 121" fill="none" xmlns="http://www.w3.org/2000/svg">
<path fill-rule="evenodd" clip-rule="evenodd" d="M71.7213 69.5118C69.7749 70.3561 66.8075 68.8538 63.6004 69.6657C60.3933 70.4778 58.688 71.8175 57.0642 72.1423C55.4404 72.467 54.9125 74.9029 54.4254 76.2021C53.9381 77.5011 53.654 77.9876 53.451 78.8407C53.248 79.6942 53.7727 81.1036 53.7727 81.1036C66.6265 79.2842 77.0341 76.7368 71.7213 69.5118Z" fill="#FFE4CE"/>
<path d="M53.7735 81.5437C53.5948 81.5437 53.4269 81.4341 53.3607 81.2568C53.3022 81.0996 52.7958 79.6941 53.0233 78.7381C53.161 78.1596 53.3302 77.7484 53.5644 77.1791C53.6918 76.8699 53.8396 76.5107 54.0138 76.0469C54.0892 75.8457 54.1654 75.6167 54.2469 75.3727C54.7172 73.9632 55.3613 72.0329 56.9789 71.7095C57.6463 71.5758 58.3704 71.2383 59.2086 70.8472C60.3038 70.3363 61.6666 69.7003 63.4933 69.2378C65.219 68.8012 66.8548 69.0006 68.2981 69.1762C69.5919 69.3342 70.7094 69.4705 71.5471 69.1069C71.7705 69.0103 72.03 69.1127 72.1267 69.3358C72.2234 69.5591 72.1211 69.8188 71.8977 69.9155C70.8406 70.3741 69.5537 70.2169 68.1916 70.0511C66.8248 69.8847 65.2762 69.6957 63.7096 70.0922C61.9637 70.5342 60.698 71.1249 59.5813 71.6459C58.6915 72.0611 57.9231 72.4193 57.1516 72.5737C56.0355 72.7968 55.4849 74.447 55.0829 75.6516C54.9977 75.9068 54.9179 76.1461 54.839 76.356C54.6606 76.8319 54.5112 77.1946 54.3796 77.5147C54.1523 78.0664 54.0023 78.4311 53.8808 78.9419C53.7403 79.5329 54.0541 80.5915 54.1869 80.9495C54.2715 81.1776 54.1552 81.4312 53.9274 81.5157C53.8765 81.5348 53.8246 81.5437 53.7735 81.5437Z" fill="#571519"/>
<path d="M72.3852 73.5035C72.3627 73.5035 72.3397 73.5017 72.3167 73.4983C72.0763 73.4607 71.9118 73.2355 71.9493 72.9951C72.1396 71.7722 71.8165 70.2124 71.5728 69.926C71.3749 69.8564 71.2496 69.6524 71.2854 69.4381C71.3252 69.198 71.5522 69.0374 71.7924 69.076C72.7985 69.2436 73 71.9745 72.82 73.1305C72.7861 73.3479 72.5986 73.5035 72.3852 73.5035Z" fill="#571519"/>
<path d="M70.8641 70.1796C70.7858 70.1796 70.7066 70.1587 70.6349 70.1151C70.4272 69.9883 70.3616 69.7168 70.4884 69.5092C71.1953 68.352 71.8573 68.1548 74.0302 68.451L76.1745 68.7433C76.4156 68.7763 76.5844 68.9983 76.5515 69.2392C76.5187 69.4806 76.2962 69.6512 76.0554 69.6165L73.9111 69.3242C71.8089 69.0372 71.6544 69.2905 71.2406 69.9687C71.1576 70.1048 71.0126 70.1796 70.8641 70.1796Z" fill="#571519"/>
<path d="M101.887 63.8696C101.887 63.8696 113.814 55.1987 115.059 54.2067C116.305 53.215 123.499 46.3177 127.712 44.8028C131.924 43.288 142.576 38.8145 142.576 38.8145L145.286 63.1821C145.286 63.1821 137.871 60.8447 129.895 64.2931C121.918 67.7413 105.25 75.2967 105.25 75.2967L101.887 63.8696Z" fill="white"/>
<path d="M111.349 72.5352C111.173 72.5352 111.007 72.429 110.939 72.2552C110.85 72.0285 110.962 71.773 111.188 71.6843L114.512 70.3839C116.661 69.5436 123.402 66.6238 127.863 64.6917C130.777 63.4297 132.185 62.8204 132.351 62.7638C132.582 62.6855 132.832 62.8086 132.91 63.0387C132.989 63.2688 132.866 63.5188 132.636 63.5979C132.462 63.6604 130.493 64.5133 128.213 65.5004C123.747 67.4351 116.997 70.3584 114.833 71.2044L111.509 72.5048C111.457 72.5254 111.402 72.5352 111.349 72.5352Z" fill="#571519"/>
<path d="M142.575 91.1479C142.143 86.6472 136.026 70.1535 134.294 67.2845C132.562 64.4157 130.883 58.2987 130.559 55.3216L138.769 40.8762C138.247 34.5182 146.243 33.9075 154.645 32.1641L157.68 35.4476C159.403 36.7957 162.375 36.7267 166.934 37.4044C171.759 38.1215 173.519 40.2924 175.216 43.6294C176.84 46.823 178.912 54.9789 181.944 65.2636C184.975 75.5483 185.65 83.9004 185.65 91.1477H142.575V91.1479Z" fill="white"/>
<path d="M185.649 91.5873C185.406 91.5873 185.208 91.39 185.208 91.1467C185.208 84.9803 184.789 76.4796 181.52 65.387C180.713 62.6505 179.959 60.0118 179.294 57.6838C177.451 51.2311 175.995 46.1345 174.822 43.828C173.068 40.3794 171.357 38.5063 166.868 37.8391C165.668 37.6607 164.563 37.5324 163.588 37.4195C160.792 37.0953 158.772 36.8609 157.408 35.7935C157.216 35.6436 157.182 35.3666 157.332 35.1749C157.482 34.9834 157.759 34.9495 157.95 35.0995C159.12 36.0141 161.036 36.2364 163.689 36.5442C164.671 36.658 165.783 36.787 166.998 36.9675C171.84 37.6872 173.759 39.7936 175.608 43.4288C176.819 45.811 178.285 50.9436 180.142 57.4418C180.806 59.7682 181.559 62.4051 182.365 65.1382C185.666 76.3389 186.089 84.9214 186.089 91.1469C186.089 91.3901 185.892 91.5873 185.649 91.5873Z" fill="#571519"/>
<path d="M142.578 91.5884C142.354 91.5884 142.162 91.4179 142.14 91.1898C141.703 86.6418 135.528 70.1768 133.92 67.512C132.106 64.5087 130.434 58.2145 130.124 55.3691C130.097 55.1272 130.272 54.9097 130.514 54.8833C130.758 54.8579 130.973 55.0317 131 55.2736C131.302 58.042 132.921 64.1536 134.674 67.0564C136.556 70.1738 142.586 86.6184 143.017 91.1055C143.041 91.3476 142.863 91.5631 142.621 91.5862C142.607 91.5879 142.592 91.5884 142.578 91.5884Z" fill="#571519"/>
<path fill-rule="evenodd" clip-rule="evenodd" d="M62.464 71.498C60.8697 72.6441 56.8372 73.0821 54.7892 72.995C54.4424 72.9801 54.1352 73.239 54.1256 73.5862C54.11 74.16 54.3933 74.9636 55.9684 75.2701C58.274 75.7191 60.1093 75.6339 61.5895 75.6339L62.464 71.498Z" fill="#FFE4CE"/>
<path fill-rule="evenodd" clip-rule="evenodd" d="M124.243 15.1363C124.046 14.465 125.338 14.3511 125.992 12.9661C126.758 11.2833 126.943 8.9755 128.136 7.16718C129.545 4.96436 130.847 5.1125 132.739 4.55743C134.448 4.0563 135.451 2.50284 138.003 1.48893C140.574 0.535895 142.523 0.627105 144.641 1.06669C146.898 1.53131 148.863 3.93755 151.591 4.19808C153.077 4.29247 151.414 5.17789 151.414 5.17789L153.02 7.49051C153.02 7.49051 154.031 9.58007 154.428 11.386C154.826 13.1917 154.653 18.4787 154.218 18.8048C153.741 19.2101 151.474 21.2006 151.474 21.2006C151.474 21.2006 143.764 21.8051 141.445 22.4855C139.98 22.9151 137.15 24.3416 134.336 25.366C133.133 25.7852 131.489 25.6046 130.51 25.428C129.609 25.2944 127.411 22.0948 126.598 19.5493C125.785 17.0039 125.833 15.1339 125.833 15.1339C125.833 15.1339 124.458 15.8687 124.243 15.1363Z" fill="#926359"/>
<path fill-rule="evenodd" clip-rule="evenodd" d="M153.056 31.7695C153.056 31.7695 153.926 36.411 155.122 37.5184C154.846 38.1001 154.461 38.7022 154.011 39.2135C152.736 40.6646 150.413 42.9589 149.602 44.2133C148.932 45.2502 148.568 46.2136 148.436 47.2125L147.719 47.4239C147.302 46.3635 146.773 45.3295 146.156 44.8036C144.588 43.4611 142.47 41.9336 141.268 40.7114C141.189 38.9489 140.475 36.7781 140.475 36.7781C140.475 36.7781 137.919 35.3181 136.765 33.8669C135.61 32.4157 134.38 30.2596 134.38 30.2596C134.38 30.2596 131.912 30.6533 130.566 28.3296C129.027 25.7973 131.18 24.7692 131.18 24.7692L132.07 24.64C132.07 24.64 134.412 26.0736 133.933 24.8897C133.762 24.5402 133.166 23.8557 132.925 22.1342C132.852 21.4292 132.84 21.1647 132.84 21.1647C132.84 21.1647 134.914 20.5567 136.38 18.9998C137.846 17.4428 138.642 14.9576 138.642 14.9576C138.642 14.9576 138.36 18.2213 138.251 20.1102C138.251 20.1102 140.181 18.9029 141.306 17.3136C142.094 16.1561 142.502 17.2723 142.502 17.2723C142.502 17.2723 142.989 18.139 143.506 16.729C143.959 15.3365 143.956 15.454 144.599 14.934C145.287 14.3347 145.809 15.4394 147.061 15.8683C148.594 16.347 150.034 16.0564 150.069 16.1796C151.177 18.3739 150.768 20.1483 151.171 20.163C151.932 20.2718 152.531 18.2418 152.531 18.2418C152.531 18.2418 154.185 17.5573 155.122 18.9381C155.369 19.3316 155.539 20.1424 155.65 20.9709C155.792 22.5866 153.421 24.6723 153.421 24.6723C153.421 24.6723 153.653 26.5935 153.442 28.5793C153.227 30.5622 153.056 31.7695 153.056 31.7695Z" fill="#FFE4CE"/>
<path d="M145.858 38.4825C144.835 38.4825 143.259 38.3109 141.221 37.5706C138.659 36.6542 137.468 35.2339 136.757 34.3853C135.44 32.8772 134.239 30.6414 133.45 29.0916C133.34 28.8747 133.426 28.6093 133.643 28.499C133.86 28.3891 134.125 28.4748 134.236 28.6919C135.003 30.1999 136.168 32.3715 137.427 33.8124C138.129 34.6498 139.181 35.9049 141.519 36.7415C144.957 37.9898 146.969 37.5067 146.989 37.5018C147.224 37.4424 147.465 37.5841 147.525 37.819C147.585 38.054 147.445 38.2934 147.211 38.3548C147.17 38.3655 146.702 38.4825 145.858 38.4825Z" fill="#571519"/>
<path fill-rule="evenodd" clip-rule="evenodd" d="M147.829 30.8075C147.625 31.9397 147.097 33.3707 145.73 33.7206C145.043 33.8732 144.426 33.7397 143.892 33.4662C142.486 32.7537 141.646 31.0937 141.646 31.0937C141.646 31.0937 143.16 30.375 144.751 29.9108C146.334 29.44 147.956 29.332 147.956 29.332C147.956 29.332 147.975 29.9933 147.829 30.8075Z" fill="#F98C8C"/>
<path d="M143.764 28.3419C143.729 28.3419 143.694 28.3377 143.659 28.3292C143.493 28.2886 142.028 27.9007 141.787 26.7912C141.683 26.2834 141.902 25.9347 142.079 25.6546C142.266 25.3572 142.429 25.1002 142.328 24.5646C142.256 24.0652 141.762 23.2235 141.6 22.947C141.477 22.7369 141.547 22.4671 141.757 22.344C141.966 22.2206 142.236 22.2911 142.36 22.5012C142.874 23.3776 143.132 23.9696 143.197 24.4203C143.358 25.2775 143.05 25.7671 142.825 26.1243C142.668 26.3732 142.62 26.4657 142.649 26.609C142.757 27.1047 143.638 27.4169 143.868 27.473C144.104 27.5307 144.249 27.7693 144.191 28.0056C144.142 28.2068 143.962 28.3419 143.764 28.3419Z" fill="#571519"/>
<path fill-rule="evenodd" clip-rule="evenodd" d="M137.157 25.2702C136.96 24.5988 137.165 23.9421 137.635 23.7378C138.123 23.5947 138.694 23.9575 138.909 24.6899C139.123 25.4222 138.901 26.018 138.43 26.2221C138.003 26.3474 137.415 25.9235 137.157 25.2702Z" fill="#571519"/>
<path d="M134.182 30.7998C132.481 30.8 130.943 29.8811 130.193 28.386C129.922 27.8458 129.358 26.4744 129.97 25.4065C130.357 24.7328 131.105 24.3558 132.194 24.286C132.433 24.2712 132.647 24.4546 132.662 24.6975C132.677 24.9405 132.493 25.1499 132.25 25.1655C131.475 25.2151 130.965 25.4438 130.735 25.845C130.323 26.5619 130.819 27.6688 130.98 27.9907C131.47 28.9662 132.68 30.0533 134.498 29.9056C134.744 29.8854 134.953 30.0663 134.973 30.309C134.992 30.5517 134.812 30.7642 134.569 30.784C134.439 30.7945 134.311 30.7998 134.182 30.7998Z" fill="#571519"/>
<path d="M134.573 22.5686C134.517 22.5686 134.459 22.5576 134.403 22.5344C134.179 22.4403 134.073 22.1822 134.167 21.9577C134.579 20.9742 135.977 19.2265 138.328 19.6513C138.568 19.6946 138.727 19.9239 138.684 20.1632C138.64 20.4029 138.41 20.5616 138.171 20.5185C135.921 20.112 135.017 22.2086 134.98 22.298C134.909 22.4669 134.746 22.5686 134.573 22.5686Z" fill="#571519"/>
<path d="M143.663 18.8263C143.572 18.8263 143.48 18.7981 143.401 18.7395C143.205 18.5945 143.164 18.3186 143.309 18.1232C144.732 16.2054 146.948 16.5213 147.922 16.957C148.144 17.0563 148.243 17.3169 148.144 17.539C148.045 17.7612 147.785 17.8613 147.562 17.7614C147.475 17.723 145.369 16.8258 144.017 18.6482C143.931 18.7649 143.798 18.8263 143.663 18.8263Z" fill="#571519"/>
<path d="M153.551 24.8745C153.394 24.8745 153.241 24.7896 153.162 24.6408C153.048 24.426 153.129 24.1592 153.344 24.0447C154.949 23.1902 155.384 21.6192 155.27 20.5334C155.203 19.6052 154.874 18.8938 154.388 18.6154C153.96 18.37 153.371 18.4287 152.638 18.791C152.419 18.8985 152.155 18.8091 152.048 18.5908C151.94 18.3727 152.029 18.1083 152.248 18.0006C153.26 17.5007 154.128 17.4505 154.827 17.8508C155.894 18.4627 156.106 19.8763 156.147 20.4557C156.335 22.2297 155.397 23.9497 153.758 24.8228C153.692 24.8577 153.621 24.8745 153.551 24.8745Z" fill="#571519"/>
<path d="M132.831 27.9069C132.719 27.9069 132.607 27.8647 132.521 27.7799C132.367 27.6289 132.061 27.3995 131.866 27.3644C131.627 27.3213 131.468 27.0921 131.511 26.8526C131.554 26.6129 131.783 26.4544 132.023 26.4972C132.561 26.5943 133.083 27.0956 133.14 27.1525C133.314 27.3234 133.315 27.6023 133.145 27.7756C133.058 27.8631 132.945 27.9069 132.831 27.9069Z" fill="#571519"/>
<path d="M153.587 21.6187C153.555 21.6187 153.522 21.6152 153.489 21.6077C153.253 21.5537 153.104 21.3187 153.157 21.0816C153.175 21.0027 153.343 20.2992 153.744 19.9266C153.922 19.7611 154.2 19.7706 154.366 19.9491C154.532 20.1273 154.522 20.4061 154.344 20.5718C154.199 20.7064 154.065 21.0649 154.017 21.2764C153.97 21.4803 153.788 21.6187 153.587 21.6187Z" fill="#571519"/>
<path d="M136.366 25.2807C136.315 25.2807 136.263 25.2717 136.212 25.2526C135.984 25.1671 135.869 24.9131 135.954 24.6853C136.2 24.0277 136.829 23.4506 137.555 23.2152C138.188 23.0095 138.827 23.0898 139.356 23.44C139.559 23.5744 139.614 23.8478 139.48 24.0507C139.345 24.2538 139.072 24.3092 138.869 24.1747C138.485 23.9203 138.09 23.9683 137.827 24.0536C137.361 24.2046 136.93 24.5916 136.779 24.9947C136.713 25.1715 136.545 25.2807 136.366 25.2807Z" fill="#571519"/>
<path d="M147.161 38.3522C146.965 38.3522 146.786 38.2198 146.735 38.0209C146.675 37.7861 146.815 37.5472 147.049 37.4854C147.076 37.4775 148.754 36.9832 150.945 34.1114C152.518 32.071 152.955 30.1781 153.077 29.2313C153.358 27.3297 153.166 24.873 152.997 23.1898C152.973 22.9477 153.149 22.7316 153.392 22.7073C153.635 22.6833 153.85 22.8595 153.874 23.1017C154.048 24.8317 154.244 27.3618 153.95 29.3517C153.818 30.3785 153.343 32.4444 151.644 34.6477C149.234 37.8058 147.35 38.318 147.271 38.3382C147.234 38.3476 147.197 38.3522 147.161 38.3522Z" fill="#571519"/>
<path fill-rule="evenodd" clip-rule="evenodd" d="M148.081 22.0643C147.884 21.393 147.357 20.9511 146.851 21.0332C146.345 21.1155 146.079 21.79 146.294 22.5224C146.508 23.2548 147.018 23.6356 147.524 23.5534C147.994 23.3492 148.217 22.7535 148.081 22.0643Z" fill="#571519"/>
<path d="M145.704 22.3125C145.652 22.3125 145.599 22.3032 145.548 22.2835C145.32 22.197 145.206 21.9424 145.293 21.715C145.52 21.1169 145.984 20.6891 146.599 20.5105C147.336 20.296 148.236 20.4549 148.837 20.9043C149.032 21.0499 149.072 21.326 148.926 21.5211C148.78 21.7158 148.505 21.7555 148.31 21.6103C147.984 21.3674 147.377 21.2022 146.845 21.3569C146.492 21.4594 146.247 21.6853 146.116 22.0286C146.049 22.2043 145.882 22.3125 145.704 22.3125Z" fill="#571519"/>
<path d="M151.318 20.8901C151.262 20.8901 151.206 20.8795 151.153 20.8577C150.988 20.7909 150.88 20.6318 150.878 20.4541C150.877 20.4054 150.755 15.4897 146.031 12.4235C145.827 12.291 145.769 12.0182 145.901 11.814C146.034 11.6096 146.307 11.5521 146.511 11.6842C150.193 14.0744 151.292 17.4313 151.62 19.2185C152.161 18.1428 152.708 16.1255 151.638 13.1586C151.555 12.9298 151.674 12.6772 151.903 12.5946C152.131 12.5118 152.384 12.6307 152.467 12.8596C154.314 17.9781 151.741 20.6486 151.631 20.7599C151.547 20.8449 151.433 20.8901 151.318 20.8901Z" fill="#571519"/>
<path d="M134.272 25.8108C133.731 25.8108 131.03 25.6134 130.034 21.7764C129.973 21.541 130.114 21.3004 130.35 21.2392C130.583 21.1771 130.825 21.3191 130.887 21.5549C131.463 23.773 132.633 24.5383 133.441 24.7994C132.774 23.5903 131.851 21.1981 132.816 18.3258C132.894 18.0952 133.144 17.971 133.374 18.0484C133.605 18.1258 133.729 18.3757 133.652 18.6064C132.438 22.2178 134.653 25.0661 134.675 25.0945C134.776 25.2217 134.799 25.3946 134.735 25.5438C134.67 25.6928 134.529 25.7948 134.367 25.8083C134.364 25.8085 134.331 25.8108 134.272 25.8108Z" fill="#571519"/>
<path d="M130.209 25.7561C130.089 25.7561 129.97 25.7075 129.883 25.6121C127.738 23.2571 125.301 19.755 125.869 16.4442C125.91 16.2044 126.138 16.0438 126.377 16.0844C126.617 16.1255 126.778 16.3534 126.737 16.5931C126.23 19.5533 128.522 22.8089 130.535 25.0189C130.698 25.1988 130.685 25.4774 130.505 25.6413C130.421 25.7182 130.315 25.7561 130.209 25.7561Z" fill="#571519"/>
<path d="M154.387 18.4705C154.36 18.4705 154.334 18.4682 154.308 18.4634C154.069 18.4203 153.909 18.1911 153.952 17.9516C154.077 17.2593 155.082 11.0699 151.991 7.03284C151.843 6.83963 151.88 6.56292 152.073 6.41508C152.267 6.26695 152.543 6.30393 152.691 6.49695C156.012 10.8344 154.952 17.3763 154.82 18.108C154.781 18.321 154.596 18.4705 154.387 18.4705Z" fill="#571519"/>
<path d="M150.6 5.81021C150.37 5.81021 150.128 5.79229 149.876 5.75338C149.635 5.7162 149.47 5.49121 149.507 5.25081C149.544 5.01021 149.771 4.84349 150.01 4.8824C151.228 5.07022 152.019 4.65462 152.383 4.33206C151.859 4.28361 151.02 4.12334 149.837 3.65689C149.132 3.37873 148.553 3.00754 147.941 2.61467C146.754 1.8533 145.527 1.06612 143.186 0.90344C139.994 0.667661 137.026 2.42117 135.74 4.27369C135.601 4.47355 135.326 4.52257 135.127 4.38446C134.927 4.24557 134.877 3.97107 135.016 3.77112C136.401 1.77692 139.566 -0.245792 143.249 0.0243718C145.813 0.202555 147.196 1.0899 148.416 1.87294C148.992 2.24202 149.535 2.59059 150.16 2.83696C152.012 3.56732 152.902 3.46368 152.912 3.46234C153.019 3.44876 153.13 3.47341 153.219 3.53274C153.479 3.70688 153.562 4.03589 153.431 4.37088C153.182 5.00993 152.144 5.81011 150.6 5.81021Z" fill="#571519"/>
<path d="M124.897 15.8201C124.768 15.8201 124.647 15.8077 124.537 15.7823C124.169 15.6985 123.922 15.4718 123.855 15.1584C123.783 14.8671 123.973 14.663 124.234 14.3833C124.57 14.0222 125.133 13.418 125.605 12.3825C125.982 11.5458 126.365 10.2747 126.646 9.34647C126.713 9.12495 126.774 8.92442 126.826 8.75548C127.697 6.10085 130.035 4.30303 132.647 4.27558C132.879 4.26836 133.09 4.46831 133.093 4.7116C133.095 4.95489 132.9 5.15426 132.657 5.15686C130.387 5.18056 128.428 6.69858 127.666 9.0241C127.616 9.18476 127.556 9.38268 127.49 9.60132C127.203 10.5526 126.809 11.8555 126.408 12.7459C125.896 13.8717 125.274 14.5595 124.917 14.9427C125.374 14.9253 126.29 14.6066 126.885 13.7979C127.029 13.602 127.305 13.5596 127.501 13.7042C127.697 13.8484 127.739 14.1242 127.595 14.3203C126.868 15.3081 125.721 15.8201 124.897 15.8201Z" fill="#571519"/>
<path d="M137.999 20.8862C137.882 20.8862 137.767 20.8389 137.682 20.7517C137.568 20.6339 137.529 20.4626 137.581 20.307C137.59 20.279 138.506 17.4879 138.467 15.4154C138.456 14.8265 138.294 14.3913 138.123 13.9306C138.051 13.7371 137.976 13.537 137.915 13.3272C137.846 13.0935 137.98 12.8488 138.214 12.7804C138.447 12.7111 138.692 12.8457 138.761 13.0793C138.814 13.2594 138.879 13.4364 138.949 13.6237C139.129 14.1095 139.334 14.6602 139.348 15.3986C139.375 16.8347 138.996 18.5274 138.713 19.5795C139.224 19.2345 139.9 18.6487 140.543 17.6897C142.228 15.2983 141.716 12.9923 141.711 12.9693C141.656 12.7328 141.803 12.4956 142.039 12.4398C142.275 12.3836 142.512 12.5292 142.569 12.7653C142.595 12.8743 143.187 15.4674 141.269 18.189C139.819 20.351 138.192 20.8484 138.123 20.8684C138.083 20.8804 138.041 20.8862 137.999 20.8862Z" fill="#571519"/>
<path d="M142.285 18.7729C142.21 18.773 142.135 18.7538 142.066 18.7149C141.905 18.6224 141.819 18.438 141.851 18.2545C141.855 18.2329 142.229 16.0921 141.729 14.3861C141.66 14.1526 141.794 13.9077 142.028 13.8392C142.261 13.7708 142.506 13.9044 142.575 14.138C142.853 15.0871 142.894 16.125 142.863 16.9407C143.396 16.1154 143.957 14.8358 143.845 13.2027C143.772 12.1819 143.507 11.1069 143.056 10.0083C142.964 9.78331 143.071 9.52577 143.297 9.43359C143.522 9.34094 143.779 9.44891 143.872 9.67409C144.358 10.8593 144.644 12.0257 144.724 13.1409C144.96 16.5716 142.67 18.5826 142.572 18.6664C142.49 18.7368 142.388 18.7729 142.285 18.7729Z" fill="#571519"/>
<path d="M133.14 21.5157C132.94 21.5157 132.759 21.3793 132.711 21.1765C132.655 20.9399 132.801 20.7024 133.038 20.6462C135.166 20.142 138.292 17.3897 138.157 14.3905C138.146 14.1474 138.334 13.9413 138.577 13.9304C138.818 13.9169 139.026 14.1077 139.037 14.3507C139.195 17.8413 135.71 20.9188 133.241 21.5038C133.207 21.5119 133.173 21.5157 133.14 21.5157Z" fill="#571519"/>
<path d="M149.4 16.7133C145.884 16.7133 144.337 14.8897 144.271 14.8093C144.116 14.6217 144.142 14.3438 144.33 14.189C144.517 14.0341 144.794 14.0603 144.949 14.2464C145.007 14.3158 146.422 15.9468 149.744 15.8257C149.974 15.8154 150.191 16.0069 150.2 16.2502C150.209 16.4935 150.019 16.6977 149.776 16.7064C149.648 16.7111 149.523 16.7133 149.4 16.7133Z" fill="#571519"/>
<path d="M141.425 41.3172C141.418 41.3172 141.411 41.3171 141.404 41.3168C141.161 41.3054 140.973 41.0992 140.985 40.856C140.987 40.808 140.987 40.7601 140.985 40.712C140.857 38.9983 140.068 36.9594 140.06 36.9389C139.971 36.7123 140.083 36.4568 140.31 36.3683C140.537 36.2795 140.792 36.3917 140.881 36.6184C140.915 36.7065 141.726 38.7987 141.864 40.6589C141.869 40.7464 141.869 40.8218 141.865 40.8971C141.854 41.1331 141.659 41.3172 141.425 41.3172Z" fill="#571519"/>
<path d="M155.258 37.6428C155.117 37.6428 154.979 37.5751 154.893 37.4496C154.845 37.3787 154.8 37.308 154.755 37.234C153.862 35.5906 152.684 31.4781 152.634 31.3038C152.567 31.0698 152.703 30.8259 152.937 30.7592C153.168 30.6925 153.414 30.8278 153.482 31.062C153.494 31.1037 154.682 35.2552 155.519 36.7951C155.545 36.8378 155.583 36.8962 155.622 36.9547C155.759 37.1561 155.707 37.4302 155.505 37.5667C155.43 37.6183 155.343 37.6428 155.258 37.6428Z" fill="#571519"/>
<path d="M145.15 34.2199C142.754 34.2199 141.317 31.4174 141.252 31.2873C141.199 31.1812 141.19 31.0582 141.229 30.946C141.268 30.8339 141.35 30.742 141.457 30.6913C141.52 30.6614 143.02 29.954 144.622 29.4841C146.236 29.0106 147.858 28.8944 147.926 28.8897C148.05 28.8815 148.164 28.9223 148.252 29.0026C148.341 29.0829 148.393 29.1959 148.397 29.3157C148.403 29.4848 148.495 33.4674 145.839 34.1434C145.601 34.1958 145.371 34.2199 145.15 34.2199ZM142.274 31.2899C142.769 32.0598 144.008 33.6455 145.636 33.2861C147.148 32.9009 147.447 30.7783 147.504 29.8164C146.917 29.8839 145.879 30.0336 144.87 30.3298C143.838 30.6323 142.83 31.0477 142.274 31.2899Z" fill="#571519"/>
<path d="M154.683 52.3248C154.544 52.3248 154.41 52.2581 154.325 52.1415C153.727 51.3096 151.959 49.0521 150.981 48.6038C150.903 48.5678 150.848 48.5509 150.814 48.5428C150.771 48.654 150.733 48.8976 150.704 49.0825C150.615 49.657 150.493 50.4439 149.914 51.0514C149.746 51.2278 149.467 51.2344 149.291 51.0665C149.115 50.8986 149.108 50.6198 149.276 50.4435C149.664 50.0359 149.754 49.4575 149.833 48.9473C149.912 48.4413 149.986 47.9634 150.389 47.7467C150.775 47.5391 151.206 47.7378 151.348 47.8026C152.315 48.2461 153.647 49.8159 154.425 50.8102C154.75 49.0204 155.476 45.2812 156.216 43.185C156.986 41.0035 157.206 39.5042 157.4 38.1816C157.448 37.8479 157.496 37.5225 157.55 37.1965C157.747 36.0176 157.582 35.9034 157.143 35.5984C156.704 35.2941 156.103 34.8772 155.577 33.6401C155.248 32.8681 154.955 32.657 154.767 32.6158C154.501 32.5591 154.178 32.7894 153.953 32.9939C153.773 33.1575 153.494 33.1449 153.33 32.9643C153.166 32.7843 153.18 32.5055 153.36 32.3419C153.91 31.8414 154.447 31.643 154.955 31.7549C155.532 31.881 156 32.3849 156.388 33.295C156.814 34.2981 157.256 34.6041 157.645 34.8743C158.306 35.3331 158.689 35.7281 158.42 37.3414C158.366 37.6615 158.32 37.9814 158.271 38.3093C158.072 39.6716 157.846 41.2159 157.047 43.4782C156.097 46.1709 155.127 51.8995 155.118 51.9572C155.088 52.1325 154.956 52.2729 154.783 52.3133C154.75 52.3211 154.716 52.3248 154.683 52.3248Z" fill="#571519"/>
<path d="M173.53 89.2411C167.81 89.2411 158.791 88.9051 154.757 86.9499C152.736 85.9704 150.46 85.37 148.451 84.8405C145.144 83.9686 142.532 83.2799 142.166 81.3151C142.121 81.0758 142.279 80.8457 142.518 80.8009C142.755 80.7561 142.987 80.9137 143.032 81.1531C143.296 82.5697 145.789 83.227 148.676 83.9885C150.723 84.5281 153.043 85.1399 155.141 86.1569C160.482 88.746 175.181 88.3852 178.075 88.2873C181.253 88.1788 182.67 86.5166 182.67 82.898C182.67 80.0221 182.183 76.8053 180.99 71.7952C179.815 66.857 175.664 50.3129 174.825 47.3742C174.758 47.1401 174.893 46.8963 175.127 46.8295C175.36 46.7629 175.605 46.898 175.672 47.1321C176.514 50.0783 180.671 66.6474 181.848 71.5909C183.058 76.6726 183.551 79.9487 183.551 82.8981C183.551 86.9921 181.77 89.043 178.105 89.1681C177.313 89.195 175.648 89.2411 173.53 89.2411Z" fill="#571519"/>
<path d="M172.085 76.5497C172.048 76.5497 172.01 76.5451 171.972 76.5352C169.24 75.8121 161.258 74.5058 156.989 74.0829C152.891 73.6769 150.337 73.1224 147.878 72.1044C145.9 71.2856 144.577 71.0257 143.948 71.3294C143.745 71.4276 143.617 71.5917 143.544 71.8452C143.478 72.0793 143.233 72.2147 143 72.1482C142.766 72.0813 142.63 71.8378 142.697 71.6037C142.839 71.1048 143.131 70.7457 143.565 70.536C144.455 70.1062 145.933 70.3453 148.215 71.2901C150.587 72.2722 153.072 72.8091 157.075 73.2056C161.011 73.5958 169.207 74.892 172.198 75.6831C172.433 75.7454 172.573 75.9866 172.511 76.2219C172.459 76.4192 172.28 76.5497 172.085 76.5497Z" fill="#571519"/>
<path d="M168.027 75.698C167.882 75.698 167.74 75.6264 167.656 75.4947C166.856 74.2413 165.743 69.9741 164.455 65.0329C163.243 60.3827 161.989 55.574 160.959 53.2229C160.861 53.0001 160.963 52.7401 161.186 52.6424C161.409 52.5452 161.669 52.6465 161.766 52.8692C162.824 55.284 164.087 60.1271 165.308 64.8105C166.471 69.2716 167.673 73.8843 168.399 75.0201C168.529 75.2252 168.469 75.4977 168.264 75.6289C168.191 75.6757 168.109 75.698 168.027 75.698Z" fill="#571519"/>
<path d="M178.413 80.1711C178.311 80.1711 178.209 80.1365 178.126 80.065C176.449 78.6275 173.983 77.3924 173.609 77.3411C173.368 77.3548 173.176 77.1586 173.168 76.9151C173.16 76.6718 173.365 76.4689 173.609 76.4611C173.613 76.4609 173.617 76.4609 173.621 76.4609C174.28 76.4609 177.095 78.0204 178.7 79.3959C178.885 79.5544 178.906 79.8325 178.748 80.0174C178.66 80.1189 178.537 80.1711 178.413 80.1711Z" fill="#571519"/>
<path d="M121.695 65.7599C126.008 66.4997 124.815 64.407 127.148 65.7599C129.48 67.1128 138.946 72.0296 138.946 72.0296L136.996 78.0754C136.996 78.0754 134.957 77.5307 133.257 77.6215C131.558 77.7127 127.958 76.6017 127.958 76.6017C127.958 76.6017 126.95 78.3606 125.601 78.3495C124.252 78.3383 121.755 76.8788 121.63 74.2804C121.505 71.6817 123.91 68.0348 123.91 68.0348L121.695 65.7599Z" fill="#FFE4CE"/>
<path d="M125.047 65.3772C122.512 64.7559 121.483 64.9154 118.912 64.2128C116.456 63.5513 113.557 62.1198 113.636 63.7157C113.716 65.3115 116.688 66.3598 118.145 66.8736C119.66 67.4081 121.678 68.1881 123.004 68.5194L125.047 65.3772Z" fill="#FFE4CE"/>
<path d="M124.391 67.2383C124.391 67.2383 121.97 70.4566 120.96 72.2132C119.865 73.993 121.283 74.5045 121.283 74.5045L123.6 78.5437L128.148 68.8235L124.391 67.2383Z" fill="#FFE4CE"/>
<path d="M137.313 78.5151C137.247 78.5151 137.182 78.5009 137.119 78.4704C136.497 78.166 135.237 78.1345 134.316 78.1112C133.88 78.1003 133.502 78.0909 133.209 78.0587C131.522 77.8857 129.949 77.5963 128.684 77.3633C127.69 77.1806 126.75 77.0107 126.485 77.0457C126.035 77.0884 125.402 77.5922 125.103 77.9003C124.934 78.0753 124.655 78.0799 124.48 77.9103C124.305 77.7413 124.3 77.4628 124.469 77.2878C124.571 77.1821 125.49 76.2547 126.381 76.1709C126.75 76.1153 127.48 76.2455 128.844 76.4965C130.093 76.7263 131.647 77.0125 133.302 77.1821C133.562 77.2109 133.939 77.2201 134.338 77.23C135.396 77.2567 136.712 77.2894 137.506 77.6784C137.725 77.7854 137.816 78.0495 137.709 78.2679C137.632 78.4245 137.476 78.5151 137.313 78.5151Z" fill="#571519"/>
<path d="M137.519 71.7223C137.467 71.7223 137.415 71.713 137.363 71.6939C137.283 71.6635 135.356 70.9314 132.899 69.6109C131.735 68.9852 130.523 68.2536 129.454 67.6085C127.973 66.7146 126.574 65.8707 125.97 65.7222C125.695 65.6609 125.459 65.6784 125.219 65.7807C124.994 65.8757 124.736 65.7713 124.641 65.5475C124.546 65.3235 124.65 65.0647 124.874 64.9694C125.283 64.7959 125.707 64.7618 126.171 64.8639C126.914 65.0467 128.236 65.8442 129.909 66.8539C130.97 67.4939 132.172 68.2191 133.316 68.8345C135.719 70.1257 137.656 70.8621 137.675 70.8692C137.902 70.9553 138.018 71.2095 137.931 71.4373C137.865 71.6138 137.697 71.7223 137.519 71.7223Z" fill="#571519"/>
<path d="M124.908 78.8134C124.118 78.8134 123.353 78.6938 122.87 78.281C122.415 77.9176 122.234 77.0677 122.258 76.6108C122.259 76.5985 122.26 76.5861 122.261 76.574C122.348 75.945 122.886 75.3256 123.508 74.6084C124.027 74.0115 124.614 73.3347 124.913 72.6474C125.01 72.4245 125.268 72.323 125.493 72.419C125.716 72.5164 125.818 72.7759 125.721 72.9991C125.368 73.8101 124.734 74.541 124.174 75.1858C123.696 75.7373 123.201 76.307 123.137 76.6773C123.127 77.0142 123.296 77.4938 123.431 77.6017C123.806 77.9212 124.687 78.0048 126.058 77.8616L126.12 77.855C126.459 77.8231 127.023 77.0767 127.302 76.55C127.415 76.3346 127.683 76.2521 127.897 76.3658C128.112 76.4792 128.195 76.7454 128.081 76.9605C127.934 77.2408 127.15 78.6436 126.206 78.732L126.15 78.738C125.755 78.7796 125.328 78.8134 124.908 78.8134Z" fill="#571519"/>
<path d="M125.992 77.7918C125.945 77.7918 125.898 77.7847 125.852 77.7692C125.621 77.6921 125.496 77.4424 125.574 77.2115C125.591 77.1559 125.635 76.9697 125.614 76.8079C125.583 76.5666 125.753 76.3458 125.995 76.3146C126.234 76.2818 126.457 76.4533 126.488 76.6949C126.539 77.0873 126.423 77.4508 126.41 77.491C126.348 77.6754 126.176 77.7918 125.992 77.7918Z" fill="#571519"/>
<path d="M122.662 77.757C122.557 77.757 122.451 77.7193 122.367 77.6428C122.34 77.6187 121.708 77.0421 121.27 76.3473C120.874 75.655 120.606 75.015 121.263 74.031C121.722 73.2895 122.296 72.5562 122.852 71.8473C123.52 70.9941 124.151 70.1883 124.572 69.3914C124.685 69.176 124.952 69.0936 125.167 69.2075C125.382 69.3211 125.465 69.5876 125.351 69.8028C124.893 70.6698 124.208 71.5447 123.545 72.3906C123.005 73.0809 122.446 73.7946 122.005 74.5075C121.622 75.0807 121.702 75.3282 122.026 75.8938C122.388 76.4679 122.953 76.985 122.959 76.9902C123.139 77.1538 123.152 77.4324 122.989 77.6125C122.902 77.7082 122.782 77.757 122.662 77.757Z" fill="#571519"/>
<path d="M121.314 75.4004C121.269 75.4004 121.223 75.3933 121.177 75.3784C121.106 75.3549 120.471 75.1291 120.209 74.4457C119.995 73.8849 120.107 73.2167 120.542 72.4592C121.495 70.682 123.751 67.4876 123.846 67.3525C123.987 67.1534 124.262 67.1064 124.46 67.2472C124.659 67.3878 124.706 67.6626 124.566 67.8614C124.543 67.894 122.246 71.1463 121.313 72.8872C121.016 73.403 120.921 73.8261 121.03 74.1224C121.141 74.4266 121.445 74.5384 121.458 74.5429C121.685 74.6241 121.807 74.8741 121.729 75.1019C121.666 75.2846 121.497 75.4004 121.314 75.4004Z" fill="#571519"/>
<path d="M123.008 68.9648C122.972 68.9648 122.936 68.9604 122.901 68.9515C121.874 68.6951 120.437 68.1738 119.17 67.7142C118.762 67.5662 118.367 67.4228 118.001 67.294C116.356 66.7136 113.293 65.6335 113.199 63.7422C113.173 63.2185 113.395 62.9354 113.585 62.7903C114.277 62.2624 115.613 62.7016 117.303 63.2578C117.876 63.446 118.468 63.6406 119.03 63.7921C120.37 64.1581 121.271 64.2839 122.225 64.4171C123.071 64.5353 123.945 64.6572 125.155 64.9538C125.391 65.0118 125.536 65.2505 125.478 65.4868C125.42 65.7232 125.182 65.8672 124.945 65.8098C123.779 65.5237 122.927 65.405 122.103 65.29C121.164 65.159 120.192 65.0232 118.799 64.6424C118.215 64.4853 117.612 64.2867 117.028 64.0948C115.999 63.7562 114.443 63.2445 114.12 63.4909C114.074 63.5253 114.077 63.6584 114.079 63.6983C114.144 64.999 117.052 66.0246 118.295 66.4623C118.663 66.5923 119.061 66.7366 119.471 66.8854C120.718 67.3379 122.131 67.8508 123.114 68.0964C123.35 68.1551 123.494 68.3945 123.435 68.6305C123.385 68.8311 123.205 68.9648 123.008 68.9648Z" fill="#571519"/>
<path d="M143.601 53.6163C143.472 53.6163 143.346 53.5592 143.261 53.4557C143.186 53.3643 141.409 51.1906 140.461 48.8123C140.261 48.3089 139.998 47.7137 139.72 47.0835C138.336 43.9445 137.483 41.8102 138.254 40.9216C138.312 40.8275 138.629 40.2725 138.703 39.2559C138.726 38.9358 138.708 38.6374 138.692 38.3741C138.646 37.6321 138.595 36.791 139.812 36.4787C140.049 36.4184 140.288 36.5605 140.349 36.7962C140.409 37.0318 140.267 37.272 140.032 37.3324C139.538 37.459 139.525 37.5608 139.572 38.3202C139.59 38.6112 139.61 38.9409 139.582 39.3199C139.481 40.7058 138.983 41.4181 138.962 41.4478C138.95 41.4643 138.938 41.4799 138.924 41.4947C138.443 42.0026 139.851 45.1941 140.527 46.7279C140.808 47.3656 141.074 47.9679 141.28 48.4861C141.824 49.8509 142.679 51.1731 143.273 52.008C143.41 50.9003 143.67 49.5571 144.138 49.1892C144.351 49.0225 144.674 48.8116 145.022 48.9051C145.39 49.0042 145.53 49.3559 145.654 49.6661C145.838 50.1293 146.029 50.6081 146.801 50.7324C147.041 50.7712 147.204 50.9973 147.166 51.2376C147.127 51.4777 146.9 51.6409 146.661 51.6026C145.395 51.3986 145.044 50.5183 144.835 49.9924C144.813 49.9392 144.789 49.8761 144.765 49.822C144.742 49.8378 144.714 49.8577 144.682 49.8827C144.453 50.1089 144.157 51.6336 144.041 53.2082C144.027 53.3879 143.906 53.5411 143.735 53.5957C143.691 53.6096 143.646 53.6163 143.601 53.6163Z" fill="#571519"/>
<path d="M104.648 62.0102C104.496 62.0102 104.349 61.9318 104.267 61.791C104.144 61.5808 104.216 61.3111 104.426 61.1888C108.863 58.6085 115.719 53.2019 117.7 51.4855C118.188 51.0621 118.667 50.6377 119.141 50.2175C121.609 48.0305 123.94 45.9648 126.891 44.6651C127.803 44.2634 129.363 43.7175 131.014 43.1394C134.064 42.0724 137.859 40.7443 138.677 39.9342C138.85 39.763 139.129 39.7642 139.3 39.9374C139.471 40.1101 139.47 40.3892 139.297 40.5604C138.406 41.4425 135.423 42.5304 131.306 43.9712C129.671 44.5434 128.126 45.0839 127.246 45.4714C124.421 46.7157 122.14 48.7371 119.726 50.8771C119.249 51.2993 118.768 51.7259 118.277 52.1515C116.278 53.8834 109.356 59.3411 104.869 61.9506C104.8 61.9909 104.723 62.0102 104.648 62.0102Z" fill="#571519"/>
<path d="M153.833 73.4217C153.655 73.4217 153.487 73.3132 153.421 73.1369C151.032 66.8183 149.747 59.1268 148.978 54.5312C148.722 52.994 148.519 51.7797 148.358 51.1218L148.245 50.6395C147.936 49.2364 147.858 48.1635 147.994 47.1546C148.138 46.064 148.529 45.0535 149.226 43.9746C149.796 43.0937 151.018 41.789 152.2 40.527C152.748 39.9416 153.266 39.3886 153.675 38.9229C154.078 38.4648 154.448 37.8991 154.718 37.33C155.139 36.4458 155.221 35.7911 155.119 35.5569C155.105 35.5255 155.098 35.5232 155.092 35.5214C154.86 35.4481 154.731 35.2004 154.805 34.9684C154.878 34.7365 155.125 34.6068 155.358 34.6811C155.616 34.7629 155.813 34.9441 155.927 35.2053C156.262 35.9764 155.75 37.2125 155.514 37.7082C155.21 38.3486 154.792 38.9868 154.337 39.5047C153.919 39.9808 153.396 40.5388 152.843 41.1295C151.741 42.3057 150.493 43.6386 149.966 44.4529C149.343 45.4181 148.994 46.3136 148.867 47.2707C148.746 48.1736 148.819 49.1518 149.104 50.4432L149.215 50.9185C149.382 51.6021 149.588 52.8306 149.848 54.3859C150.61 58.9495 151.887 66.5877 154.245 72.8252C154.331 73.0527 154.216 73.3072 153.989 73.3932C153.937 73.4126 153.885 73.4217 153.833 73.4217Z" fill="#571519"/>
<path d="M148.732 51.2313C148.531 51.2313 148.349 51.0925 148.303 50.888L148.245 50.6393C148.094 50.0131 147.771 48.7812 147.303 47.5846C146.831 46.3847 146.333 45.5388 145.864 45.1391C145.285 44.643 144.615 44.11 143.968 43.5946C142.863 42.7153 141.72 41.8059 140.948 41.0206C140.187 40.2515 139.857 39.6843 139.88 39.1825C139.892 38.9063 140.015 38.6623 140.235 38.4769C140.421 38.3198 140.699 38.3437 140.856 38.5298C141.013 38.7159 140.989 38.9938 140.803 39.1507C140.762 39.1851 140.761 39.2032 140.76 39.2223C140.757 39.302 140.805 39.6228 141.575 40.4017C142.311 41.1497 143.432 42.042 144.516 42.905C145.17 43.4252 145.846 43.9631 146.437 44.4689C147.023 44.9684 147.59 45.9087 148.123 47.2626C148.61 48.5087 148.946 49.7849 149.102 50.4347L149.162 50.693C149.216 50.9302 149.067 51.1663 148.83 51.2202C148.797 51.2278 148.764 51.2313 148.732 51.2313Z" fill="#571519"/>
<path d="M60.2909 76.0783C59.0596 76.0783 57.5932 76.0329 55.8833 75.7001C53.9299 75.3197 53.6671 74.2032 53.6844 73.5715C53.6921 73.2932 53.8098 73.0344 54.0154 72.8429C54.2273 72.6454 54.5153 72.5413 54.8073 72.5519C56.9472 72.6434 60.7986 72.1491 62.2059 71.1375C62.4037 70.9955 62.6788 71.0406 62.8209 71.238C62.963 71.4356 62.918 71.711 62.7203 71.853C60.9404 73.1326 56.6655 73.5121 54.7695 73.4325C54.7129 73.4274 54.6564 73.4501 54.6162 73.4873C54.5835 73.5177 54.5664 73.5541 54.5652 73.5958C54.5482 74.2227 55.0482 74.6394 56.0517 74.8348C58.0071 75.2157 59.6528 75.2028 60.975 75.1937C61.1861 75.1919 61.3906 75.1905 61.5886 75.1905C61.832 75.1905 62.0293 75.3879 62.0293 75.6312C62.0293 75.8744 61.832 76.0718 61.5886 76.0718C61.3927 76.0718 61.1903 76.0733 60.9817 76.0749C60.7601 76.0764 60.5299 76.0783 60.2909 76.0783Z" fill="#571519"/>
<path d="M55.5735 79.6957C55.5234 79.6957 55.4724 79.6871 55.4225 79.669C55.1939 79.5856 55.0763 79.3326 55.1596 79.104L55.6368 77.7961C55.6553 77.7456 55.683 77.6985 55.7184 77.6578L56.8146 76.3992C56.9746 76.216 57.2529 76.1963 57.4364 76.3566C57.6199 76.5164 57.639 76.7947 57.4792 76.9782L56.4367 78.1751L55.9875 79.4064C55.9222 79.585 55.7534 79.6957 55.5735 79.6957Z" fill="#571519"/>
<path d="M136.785 79.3754C136.748 79.3754 136.71 79.3709 136.672 79.3609C135.946 79.1685 135.875 78.3161 135.948 77.8427C135.985 77.6017 136.211 77.4364 136.451 77.4741C136.691 77.5109 136.856 77.7351 136.82 77.9749C136.785 78.2137 136.836 78.4924 136.898 78.5088C137.133 78.5713 137.273 78.8126 137.211 79.048C137.158 79.2452 136.98 79.3754 136.785 79.3754Z" fill="#571519"/>
<path d="M144.575 74.1729C144.519 73.3963 144.309 72.6961 143.938 72.0764L137.274 70.7676C138.844 73.6992 137.68 77.5425 136.785 78.933L143.58 81.6273C144.92 79.3383 144.798 76.7034 144.798 76.7034L144.575 74.1729Z" fill="white"/>
<path d="M143.579 82.0636C143.525 82.0636 143.47 82.0536 143.417 82.0327L136.622 79.3383C136.499 79.2897 136.405 79.1888 136.365 79.0634C136.324 78.9378 136.343 78.8009 136.414 78.6902C137.29 77.3284 138.328 73.6662 136.885 70.9712C136.805 70.8211 136.818 70.6381 136.919 70.5013C137.02 70.3644 137.191 70.2973 137.358 70.3308L144.022 71.6395C144.144 71.6636 144.251 71.7381 144.315 71.8452C144.718 72.5163 144.953 73.2874 145.014 74.1368C145.031 74.3796 144.849 74.5903 144.606 74.6079C144.367 74.6292 144.152 74.443 144.135 74.2C144.089 73.5602 143.927 72.9776 143.653 72.4653L138.024 71.3597C139.037 74.0826 138.183 77.1895 137.416 78.7052L143.381 81.0702C144.444 79.0075 144.358 76.7427 144.358 76.7189C144.347 76.4759 144.535 76.2702 144.778 76.259C145.021 76.251 145.226 76.4361 145.238 76.6786C145.243 76.7917 145.35 79.4714 143.96 81.8455C143.879 81.9841 143.732 82.0636 143.579 82.0636Z" fill="#571519"/>
<path d="M98.3408 112.942C98.3314 112.942 98.3218 112.942 98.3123 112.941L92.092 112.54C91.8492 112.524 91.6649 112.315 91.6806 112.072C91.6963 111.829 91.8993 111.646 92.1488 111.661L98.0868 112.044L104.26 100.584C104.376 100.369 104.643 100.289 104.857 100.405C105.071 100.52 105.151 100.787 105.036 101.001L98.7288 112.71C98.6513 112.854 98.502 112.942 98.3408 112.942Z" fill="#E7F5E7"/>
<path d="M91.0129 114.341C91.0034 114.341 90.9939 114.34 90.9844 114.34L63.881 112.592C63.6966 112.58 63.5393 112.455 63.487 112.277C63.4345 112.1 63.4979 111.909 63.646 111.799L79.3569 100.091C79.5516 99.9461 79.8279 99.986 79.9735 100.181C80.1189 100.376 80.0786 100.653 79.8835 100.798L65.1334 111.79L90.7757 113.443L98.3388 101.088C98.4658 100.881 98.7369 100.816 98.9447 100.942C99.1523 101.07 99.2176 101.341 99.0905 101.548L91.3884 114.13C91.3082 114.261 91.1655 114.341 91.0129 114.341Z" fill="#E7F5E7"/>
<path d="M186.218 112.813C186.133 112.813 186.05 112.788 185.978 112.742L162.115 97.2742C161.96 97.1736 161.884 96.9862 161.925 96.8058C161.967 96.6253 162.117 96.49 162.301 96.4673L182.767 93.9252C182.843 93.916 182.918 93.9258 182.988 93.9542L213.068 106.205C213.247 106.278 213.357 106.459 213.34 106.652C213.324 106.844 213.183 107.003 212.994 107.044L186.311 112.802C186.28 112.809 186.249 112.813 186.218 112.813ZM163.609 97.1927L186.304 111.903L211.414 106.483L182.762 94.814L163.609 97.1927Z" fill="#E7F5E7"/>
<path d="M177.491 111.273C177.406 111.273 177.323 111.248 177.251 111.202L153.389 95.7353C153.233 95.6346 153.157 95.4473 153.199 95.2669C153.24 95.0864 153.39 94.9511 153.574 94.9284L174.04 92.3843C174.115 92.3749 174.191 92.3849 174.261 92.4136L179.196 94.4261C179.421 94.5179 179.53 94.7749 179.438 95.0004C179.345 95.2259 179.089 95.3343 178.863 95.242L174.034 93.2732L154.883 95.6537L177.576 110.363L182.165 109.374C182.402 109.322 182.637 109.473 182.689 109.711C182.74 109.949 182.589 110.184 182.351 110.235L177.583 111.263C177.553 111.27 177.522 111.273 177.491 111.273Z" fill="#E7F5E7"/>
<path d="M230.334 91.6293H46.1457C45.9023 91.6293 45.7051 91.4319 45.7051 91.1887C45.7051 90.9454 45.9022 90.748 46.1457 90.748H230.334C230.577 90.748 230.774 90.9454 230.774 91.1887C230.774 91.432 230.577 91.6293 230.334 91.6293Z" fill="#E7F5E7"/>
<path d="M139.924 115.872C139.918 115.872 139.913 115.872 139.907 115.871L108.697 114.651C108.53 114.644 108.381 114.544 108.313 114.392C108.244 114.24 108.267 114.062 108.372 113.933L124.925 93.5555C125.008 93.4522 125.134 93.3926 125.267 93.3926H151.075C151.229 93.3926 151.371 93.4726 151.451 93.604C151.531 93.7354 151.537 93.8986 151.466 94.0354L140.316 115.633C140.24 115.78 140.089 115.872 139.924 115.872ZM109.611 113.804L139.661 114.98L150.351 94.2739H125.477L109.611 113.804Z" fill="#E7F5E7"/>
<path d="M121.919 120.554C121.789 120.554 121.665 120.496 121.581 120.395C121.495 120.293 121.461 120.157 121.487 120.026L122.545 114.762C122.593 114.523 122.824 114.37 123.064 114.417C123.302 114.465 123.457 114.697 123.409 114.936L122.459 119.662L156.725 119.026L148.84 97.5926C148.756 97.3642 148.873 97.1109 149.102 97.0268C149.331 96.9437 149.583 97.0599 149.667 97.2885L157.766 119.303C157.815 119.436 157.797 119.586 157.716 119.704C157.636 119.821 157.503 119.893 157.361 119.895L121.928 120.554C121.925 120.554 121.922 120.554 121.919 120.554Z" fill="#E7F5E7"/>
<path d="M55.9125 96.9666L49.9324 98.3732L47.2871 89.2956C47.2871 89.2956 51.3605 83.7397 52.4218 82.5766C53.4831 81.4139 58.1769 76.2723 62.2947 75.7272C66.4127 75.1819 75.2508 76.0359 77.4321 73.6757C79.6133 71.3159 78.3383 92.0192 78.3383 92.0192L55.9125 96.9666Z" fill="white"/>
<path fill-rule="evenodd" clip-rule="evenodd" d="M55.8425 90.0927C55.8425 90.0927 54.2794 89.3895 55.6122 88.4212C56.7387 87.6034 57.8025 87.631 57.8025 87.631C58.6118 89.3565 57.9582 90.177 55.8425 90.0927Z" fill="#FFE4CE"/>
<path d="M55.8413 90.5333C55.7811 90.5333 55.7198 90.5209 55.6613 90.4946C55.5646 90.451 54.7144 90.0482 54.6384 89.3106C54.5923 88.862 54.8325 88.4428 55.3529 88.0647C56.586 87.1694 57.7642 87.1846 57.8132 87.1906C58.0566 87.1967 58.2487 87.3992 58.2424 87.6424C58.2361 87.8856 58.0395 88.0862 57.7905 88.0712C57.7893 88.069 56.8486 88.0676 55.8707 88.7779C55.596 88.9775 55.5069 89.1368 55.515 89.2196C55.5309 89.3801 55.8263 89.6003 56.0244 89.6916C56.2448 89.7928 56.3428 90.0539 56.2422 90.2747C56.1684 90.4372 56.0087 90.5333 55.8413 90.5333Z" fill="#571519"/>
<path d="M113.916 96.2384C108.491 104.064 90.9593 100.996 78.2399 99.9156L72.4512 99.1327L78.2399 89.2963L100.441 85.9336L111.352 89.2963L113.916 96.2384Z" fill="white"/>
<path d="M53.9926 101.04C53.9926 101.04 57.865 101.924 63.224 101.383C68.5828 100.841 85.1138 95.0498 86.8893 94.0213C87.2307 92.0318 85.9884 91.1442 85.9884 91.1442L81.9059 88.1219C76.3098 87.6276 61.4918 89.5062 57.3395 89.5062C53.1871 89.5062 52.3711 90.9285 52.3711 90.9285L53.9926 101.04Z" fill="white"/>
<path fill-rule="evenodd" clip-rule="evenodd" d="M72.4512 88.3662L79.7661 88.04L81.7491 88.4009C81.7491 88.4009 84.9402 92.0198 89.5613 91.721C92.4468 91.5342 94.9981 90.1023 97.2601 88.8252H97.2634C97.5523 88.6577 97.838 88.5002 98.1203 88.3458C99.7192 87.5053 100.031 87.3248 100.031 87.3248C100.031 87.3248 101.906 87.013 103.452 84.7805C103.603 84.5538 103.754 84.3174 103.905 84.0745C105.212 81.9405 106.354 79.2386 105.97 78.7068C105.829 78.4604 105.461 77.4756 104.483 76.8156C104.214 76.6352 103.899 76.4775 103.531 76.3693C101.423 75.7519 98.0217 76.2216 96.354 75.9358C94.6863 75.65 93.6093 74.941 93.1924 74.5143C92.6308 73.8838 92.1516 73.2402 91.8101 72.7414C91.4326 72.1933 91.216 71.8189 91.216 71.8189L82.9262 70.6172L83.0215 71.6448C83.0215 71.6448 80.8972 72.8761 77.8505 74.3897C75.3686 75.5779 75.5558 81.2742 75.5558 81.2742L72.4512 88.3662Z" fill="#FFE4CE"/>
<path d="M80.7322 88.4907C80.5849 88.4907 80.441 88.4169 80.3575 88.2828C80.229 88.0762 80.2924 87.8043 80.4991 87.676C80.7035 87.5486 80.9001 87.4379 81.0996 87.3369C81.3162 87.2265 81.5819 87.3139 81.6918 87.5308C81.8017 87.748 81.7147 88.0131 81.4975 88.1229C81.3211 88.2125 81.1467 88.3108 80.9643 88.4242C80.892 88.4692 80.8117 88.4907 80.7322 88.4907Z" fill="#571519"/>
<path fill-rule="evenodd" clip-rule="evenodd" d="M93.9617 83.33C93.2854 86.0748 94.2442 88.908 97.2579 88.826H97.2612C97.5501 88.6585 97.8358 88.501 98.1181 88.3466C99.717 87.506 100.029 87.3255 100.029 87.3255C100.029 87.3255 101.903 87.0138 103.45 84.7813C103.601 84.5545 103.752 84.3182 103.903 84.0753C104.556 81.8296 104.865 79.1834 104.481 76.8164C104.211 76.636 103.896 76.4782 103.528 76.3701C101.421 75.7527 98.0195 76.2223 96.3517 75.9366C94.684 75.6508 93.607 74.9417 93.1901 74.5151C92.6285 73.8846 92.1494 73.241 91.8078 72.7422C90.7967 73.4907 90.1795 74.1372 90.1795 74.1372C90.1795 74.1372 90.1795 74.1372 89.9595 77.8965C89.7399 81.6523 93.9617 83.33 93.9617 83.33Z" fill="#E2CAB7"/>
<path d="M90.9661 86.0745C90.2429 86.0745 89.5258 85.7363 89.4121 85.6804C89.1937 85.5728 89.104 85.3089 89.2114 85.0906C89.319 84.8722 89.5834 84.7824 89.8014 84.8897C90.1758 85.0727 91.0614 85.3594 91.4047 85.0759C91.6261 84.8932 91.7118 84.6499 91.8205 84.3418C91.9657 83.9299 92.1463 83.4175 92.7109 82.9814C93.2955 82.55 94.8138 82.1401 94.985 82.0948C95.2207 82.0327 95.4615 82.1728 95.5236 82.408C95.586 82.6432 95.4459 82.8842 95.2106 82.9468C94.6263 83.1016 93.5752 83.439 93.2418 83.6849C92.8909 83.956 92.78 84.2707 92.6516 84.6347C92.5224 85.0014 92.376 85.4171 91.966 85.7556C91.6786 85.9927 91.3215 86.0745 90.9661 86.0745Z" fill="#571519"/>
<path d="M93.6418 79.6171C93.6302 79.6171 93.6186 79.6165 93.6067 79.6157C92.955 79.5643 92.3769 79.2289 91.9792 78.6712C91.5369 78.0518 91.3866 77.241 91.577 76.503C91.6379 76.2675 91.8779 76.124 92.1137 76.1866C92.3494 76.247 92.4911 76.4875 92.4305 76.7233C92.3042 77.2121 92.4038 77.7491 92.6966 78.1594C92.9406 78.5013 93.2886 78.7064 93.6762 78.7372C93.9189 78.756 94.0999 78.9683 94.0808 79.211C94.0625 79.4418 93.8694 79.6171 93.6418 79.6171Z" fill="#571519"/>
<path d="M87.6535 87.7136C87.4464 87.7136 87.2619 87.567 87.2212 87.3564C87.2182 87.3406 86.8895 85.714 85.8615 84.9504C85.6661 84.8052 85.6254 84.5293 85.7706 84.334C85.9157 84.1384 86.1919 84.0985 86.3871 84.243C87.6931 85.2132 88.0711 87.1095 88.0866 87.1896C88.1326 87.4285 87.9762 87.6597 87.7372 87.7056C87.7091 87.7109 87.6811 87.7136 87.6535 87.7136Z" fill="#571519"/>
<path d="M100.615 86.0163C100.391 86.0163 100.2 85.8465 100.177 85.619C100.148 85.3261 99.8012 84.8886 99.4657 84.4652C99.0136 83.8949 98.546 83.3048 98.4429 82.6451C98.4052 82.4047 98.5696 82.1795 98.8101 82.1415C99.0503 82.1063 99.276 82.2683 99.3136 82.509C99.3809 82.9393 99.7751 83.4368 100.156 83.9179C100.59 84.4649 101 84.9819 101.054 85.5324C101.078 85.7745 100.901 85.9903 100.659 86.0144C100.644 86.0157 100.629 86.0163 100.615 86.0163Z" fill="#571519"/>
<path d="M97.8605 87.0445C97.8335 87.0445 97.8062 87.0423 97.7786 87.0371C97.1766 86.9238 96.6924 86.6131 96.3785 86.1386C96.0249 85.6038 95.9183 84.9077 96.0787 84.1784C96.1309 83.9408 96.3661 83.7894 96.6035 83.8427C96.8412 83.8949 96.9916 84.1298 96.9392 84.3677C96.8307 84.862 96.8925 85.3181 97.1136 85.6524C97.2954 85.9275 97.5739 86.1019 97.9415 86.1708C98.1805 86.2158 98.3381 86.4461 98.293 86.6855C98.2533 86.8972 98.0683 87.0445 97.8605 87.0445Z" fill="#571519"/>
<path d="M96.9257 78.9041C96.8793 78.9041 96.8323 78.897 96.786 78.8815C95.7523 78.5358 95.312 77.3361 94.958 76.3719C94.7848 75.9001 94.5692 75.3127 94.3836 75.2C94.1757 75.0736 94.1097 74.8024 94.2361 74.5944C94.3625 74.3868 94.6337 74.3207 94.8415 74.4468C95.2904 74.7198 95.5197 75.3446 95.7855 76.0681C96.0894 76.8961 96.4338 77.8344 97.0655 78.0455C97.2963 78.1227 97.4208 78.3726 97.3437 78.6032C97.282 78.7877 97.11 78.9041 96.9257 78.9041Z" fill="#571519"/>
<path d="M110.213 70.9112C110.213 70.9112 110.501 67.7593 108.261 64.4681C105.523 60.4635 99.3547 58.4975 89.2987 60.1518C87.2612 60.5937 81.7901 62.2376 77.6246 65.4653C72.4611 69.4661 68.6387 74.768 68.6387 74.768C71.1732 75.7266 73.6907 76.4111 76.0338 74.297C74.4408 79.4619 76.3182 85.8765 70.4532 88.1238C77.7348 88.1238 75.6886 77.0594 84.2276 76.6144C91.3232 76.2449 92.5208 72.9768 92.5208 72.9768C92.5208 72.9768 91.3005 73.3036 92.7888 74.8234C94.277 76.343 103.418 76.1362 103.418 76.1362L113.135 82.7805C113.638 79.9131 113.683 77.2417 113.135 74.8234L110.213 70.9112Z" fill="#D8938F"/>
<path d="M70.4543 88.5643C70.2109 88.5643 70.0137 88.3669 70.0137 88.1236C70.0137 87.8804 70.2109 87.683 70.4543 87.683C73.9087 87.683 75.1878 85.0633 76.5418 82.2898C77.9063 79.4953 79.3171 76.6053 82.9901 76.1363C83.2294 76.1061 83.4521 76.2763 83.4829 76.5175C83.5138 76.7591 83.3431 76.9797 83.1017 77.0107C79.9006 77.4192 78.6538 79.9729 77.3338 82.6764C75.9205 85.5709 74.4591 88.5643 70.4543 88.5643Z" fill="#571519"/>
<path d="M105.976 76.0538C105.863 76.0538 105.749 76.0105 105.663 75.9238C105.492 75.7511 105.493 75.4723 105.665 75.3008C105.87 75.0973 106.117 74.8773 106.38 74.6444C107.343 73.7883 108.663 72.6159 108.502 71.5615C108.465 71.3209 108.63 71.0963 108.871 71.0595C109.113 71.024 109.336 71.188 109.373 71.4285C109.606 72.9566 108.08 74.3127 106.965 75.3031C106.712 75.5277 106.474 75.7397 106.286 75.9255C106.2 76.0111 106.088 76.0538 105.976 76.0538Z" fill="#571519"/>
<path d="M70.4546 88.5611C70.2773 88.5611 70.1102 88.4535 70.043 88.2782C69.9559 88.0508 70.0695 87.796 70.2969 87.7091C74.112 86.2472 74.4251 82.9765 74.7876 79.1891C74.9477 77.5167 75.1132 75.7874 75.614 74.1637C75.9045 73.2222 76.2997 72.2559 76.7883 71.2922C76.8985 71.0751 77.1635 70.9885 77.3806 71.0985C77.5976 71.2087 77.6843 71.4738 77.5743 71.691C77.108 72.6101 76.7319 73.5292 76.4562 74.4234C75.9818 75.9608 75.8208 77.6447 75.6649 79.2731C75.3072 83.0103 74.9372 86.8745 70.6122 88.5317C70.5604 88.552 70.507 88.5611 70.4546 88.5611Z" fill="#571519"/>
<path d="M68.0283 75.6548C67.9612 75.6548 67.8931 75.6396 67.8292 75.6072C67.6122 75.497 67.5256 75.2317 67.6357 75.0149C69.8593 70.6328 80.6799 61.927 86.3915 60.6667C95.4714 57.3635 105.615 59.8142 108.625 64.2177C110.947 67.6287 110.342 70.479 110.315 70.5986C110.261 70.8359 110.025 70.9842 109.788 70.932C109.551 70.8786 109.402 70.6437 109.455 70.4067C109.462 70.3714 109.987 67.7849 107.897 64.7142C105.452 61.138 95.9655 58.1092 86.6658 61.5048C86.6469 61.5117 86.6276 61.5173 86.608 61.5215C81.0849 62.7194 70.5768 71.1661 68.4217 75.4135C68.3439 75.5668 68.1889 75.6548 68.0283 75.6548Z" fill="#571519"/>
<path d="M107.623 79.7335C104.376 81.5936 102.087 83.7052 103.034 88.6797C104.028 93.9027 109.233 94.7609 115.385 96.0129C121.537 97.2648 124.184 103.181 124.184 103.181C124.184 103.181 125.524 98.1326 117.34 94.4339C117.34 94.4339 129.635 96.7628 132.951 98.9523C136.267 101.142 135.902 103.367 135.902 103.367C135.902 103.367 139.504 94.8057 133.804 90.1667C131.53 88.3154 126.674 89.3069 118.762 86.4533C116.312 85.5697 113.991 84.4087 113.816 82.2296C113.533 78.7022 110.049 78.4417 109.113 78.0544C108.008 77.5971 107.623 79.7335 107.623 79.7335Z" fill="#D8938F"/>
<path d="M103.863 76.5977C105.884 78.4597 102.566 82.462 101.622 85.524C100.678 88.5865 102.976 90.6789 102.976 90.6789C102.976 90.6789 101.997 87.335 104.116 84.7781C104.116 84.7781 108.789 81.9119 109.114 78.0546L103.863 76.5977Z" fill="#D8938F"/>
<path d="M124.181 103.62C124.009 103.62 123.85 103.52 123.779 103.361C123.753 103.303 121.143 97.6343 115.294 96.4441C114.66 96.3152 114.046 96.1971 113.455 96.0832C108.248 95.0803 104.486 94.3559 103.539 89.3783C103.494 89.1394 103.651 88.9087 103.89 88.863C104.129 88.8186 104.359 88.9744 104.405 89.2137C105.24 93.6035 108.575 94.2458 113.621 95.2177C114.216 95.3321 114.833 95.451 115.469 95.5806C119.893 96.4809 122.542 99.65 123.766 101.546C123.497 99.8723 122.216 97.1217 117.155 94.835C116.933 94.7347 116.835 94.4736 116.935 94.2518C117.035 94.0303 117.296 93.9326 117.518 94.0318C125.946 97.8406 124.665 103.072 124.607 103.293C124.559 103.474 124.403 103.604 124.217 103.619C124.205 103.62 124.193 103.62 124.181 103.62Z" fill="#571519"/>
<path d="M135.901 103.807C135.871 103.807 135.84 103.804 135.81 103.797C135.601 103.753 135.454 103.567 135.46 103.354C135.581 98.8702 128.036 97.309 121.973 96.0548C116.005 94.8204 108.784 92.4536 108.278 88.1904C108.25 87.9488 108.422 87.7297 108.664 87.701C108.905 87.6691 109.125 87.8447 109.154 88.0865C109.5 91.0063 114.116 93.5298 122.152 95.1919C127.521 96.3026 133.996 97.6424 135.834 101.146C135.817 99.7587 135.296 97.9194 133.131 96.4492C132.93 96.3123 132.878 96.0383 133.014 95.837C133.151 95.6359 133.425 95.5837 133.626 95.72C138.175 98.8081 136.327 103.486 136.309 103.533C136.24 103.701 136.076 103.807 135.901 103.807Z" fill="#571519"/>
<path d="M136.263 95.6163C136.257 95.6163 136.251 95.6163 136.246 95.616C136.002 95.6068 135.813 95.4022 135.822 95.159C135.971 91.2343 133.84 89.7049 126.701 88.6142L126.226 88.542C121.448 87.8176 114.904 86.8253 112.946 81.3505C112.864 81.1216 112.983 80.8692 113.212 80.7874C113.442 80.7059 113.694 80.8248 113.776 81.0539C115.557 86.0326 121.546 86.941 126.358 87.6707L126.835 87.7433C134.474 88.9106 136.872 90.7205 136.703 95.1924C136.694 95.4298 136.498 95.6163 136.263 95.6163Z" fill="#571519"/>
<path d="M137 100.355C136.954 100.355 136.908 100.348 136.862 100.333C136.631 100.258 136.505 100.008 136.581 99.7773C137.758 96.1916 135.422 95.0696 135.322 95.0235C135.102 94.9223 135.004 94.6618 135.103 94.4409C135.203 94.2202 135.462 94.1213 135.683 94.2197C135.715 94.234 138.85 95.6896 137.418 100.052C137.357 100.238 137.185 100.355 137 100.355Z" fill="#571519"/>
<path d="M112.508 84.3394C112.455 84.3394 112.401 84.3299 112.349 84.3095C112.122 84.2211 112.01 83.9659 112.098 83.7389C114.354 77.9345 113.561 73.2895 110.077 71.9046C109.851 71.8149 109.74 71.5587 109.83 71.3326C109.92 71.1065 110.176 70.9961 110.402 71.086C114.38 72.6666 115.368 77.7587 112.919 84.0584C112.851 84.2327 112.685 84.3394 112.508 84.3394Z" fill="#571519"/>
<path d="M89.0903 91.9692C88.8948 91.9692 88.6943 91.967 88.4873 91.9624C85.3609 91.8341 83.2714 90.6539 82.3559 89.5923C81.2417 88.1819 79.5851 85.0283 80.8731 79.5892C80.929 79.3525 81.1667 79.206 81.4033 79.2619C81.6401 79.3182 81.7865 79.5555 81.7305 79.7923C80.4833 85.0603 82.2276 88.0086 83.0354 89.0315C83.7818 89.8964 85.6753 90.965 88.5151 91.0815C90.7064 91.1303 92.1126 90.9277 93.5245 90.36C94.4418 89.9527 95.3847 89.3867 96.3828 88.7874C96.8797 88.489 97.3936 88.1804 97.9355 87.8726C97.9443 87.8674 97.9533 87.8627 97.9624 87.8582C98.2814 87.7051 98.8741 87.4758 99.5018 87.2331C100.093 87.0046 100.704 86.7681 100.993 86.6288C101.212 86.5229 101.475 86.6145 101.581 86.8339C101.687 87.053 101.595 87.3164 101.376 87.4222C101.055 87.5771 100.455 87.8093 99.8195 88.0551C99.2443 88.2778 98.6498 88.5074 98.3571 88.6464C97.8293 88.9467 97.3246 89.25 96.8361 89.5431C95.8141 90.1568 94.8487 90.7363 93.8674 91.1717C92.478 91.7305 91.0652 91.9692 89.0903 91.9692Z" fill="#571519"/>
<path d="M104.932 77.5006C104.8 77.5006 104.67 77.4421 104.583 77.33C103.739 76.2409 101.767 76.3325 99.6794 76.428C98.125 76.4997 96.5171 76.5735 95.0732 76.2115C91.4235 75.296 90.7284 71.7666 90.7008 71.6169C90.6624 71.41 90.7758 71.2047 90.9714 71.1268C91.1673 71.0491 91.3904 71.121 91.5047 71.2981C91.5669 71.3933 93.0978 73.6602 96.6589 73.1183C96.9005 73.0828 97.1243 73.2468 97.161 73.4872C97.1977 73.7279 97.0324 73.9528 96.7919 73.9892C94.7499 74.3022 93.2743 73.7959 92.2942 73.1897C92.8373 74.0446 93.7581 74.973 95.2876 75.3565C96.6056 75.6873 98.1476 75.616 99.6389 75.5475C101.962 75.4416 104.156 75.3398 105.28 76.7899C105.429 76.9821 105.394 77.2589 105.202 77.4082C105.121 77.4705 105.026 77.5006 104.932 77.5006Z" fill="#571519"/>
<path d="M83.3492 77.2136C80.6041 77.2139 78.5889 76.4173 78.5497 76.4012C78.3403 76.3158 78.2296 76.0861 78.2934 75.8693C78.3569 75.6524 78.576 75.521 78.797 75.5601C78.83 75.5663 82.1435 76.1601 85.0941 74.7292C87.8802 73.3781 88.3195 72.5676 88.3236 72.5597C88.4113 72.3329 88.6611 72.2303 88.8886 72.3187C89.1156 72.4061 89.2238 72.6723 89.136 72.8996C89.0686 73.074 88.5755 74.0204 85.4785 75.5222C84.6637 75.9172 83.8325 76.172 83.0428 76.3317C85.5405 76.3899 88.7631 75.7622 91.5457 72.9928C91.7183 72.8212 91.9974 72.8218 92.1688 72.9945C92.3405 73.1669 92.3399 73.4458 92.1673 73.6177C89.2913 76.4798 85.9842 77.2136 83.3492 77.2136Z" fill="#571519"/>
<path d="M102.976 91.1186C102.869 91.1186 102.763 91.0799 102.68 91.0042C102.578 90.9109 100.187 88.6854 101.202 85.3935C101.503 84.4144 102.037 83.3472 102.553 82.3153C103.667 80.088 104.719 77.984 103.565 76.9209C103.386 76.7559 103.375 76.4774 103.54 76.2984C103.705 76.1194 103.984 76.1078 104.162 76.273C105.803 77.7854 104.552 80.2884 103.341 82.7091C102.841 83.7094 102.324 84.7436 102.044 85.6533C101.65 86.9315 101.879 88.0286 102.241 88.8407C102.207 87.5699 102.484 85.8986 103.793 84.4788C104.219 84.0161 104.662 83.687 105.09 83.369C106.151 82.5798 107.068 81.8981 107.288 79.2853C107.308 79.0432 107.52 78.8673 107.764 78.8831C108.006 78.9037 108.186 79.1168 108.166 79.3593C107.912 82.368 106.745 83.2364 105.615 84.0761C105.22 84.3701 104.811 84.6739 104.441 85.0761C102.352 87.3414 103.383 90.5053 103.394 90.5371C103.458 90.7273 103.385 90.937 103.217 91.0469C103.144 91.095 103.06 91.1186 102.976 91.1186Z" fill="#571519"/>
<path d="M49.9325 85.8775C49.8329 85.8775 49.7326 85.8438 49.6504 85.7751C49.4636 85.619 49.4387 85.3411 49.5945 85.1543C49.7736 84.94 54.0107 79.8788 56.7693 77.5564C59.6266 75.1509 62.8192 74.6917 66.7357 74.7427C67.4522 74.7519 68.2077 74.7773 68.938 74.8018C71.667 74.8923 75.0637 75.0069 75.6608 74.0593C75.7906 73.8533 76.0629 73.7917 76.2685 73.9214C76.4745 74.051 76.5363 74.3233 76.4065 74.5292C75.5399 75.9048 72.4667 75.8016 68.9086 75.6826C68.1826 75.6581 67.4319 75.6332 66.7242 75.6241C63.0092 75.5752 59.9858 76.001 57.3368 78.2306C54.6378 80.503 50.3144 85.6677 50.271 85.7196C50.1839 85.8236 50.0587 85.8775 49.9325 85.8775Z" fill="#571519"/>
<path d="M52.3726 91.3601C52.295 91.3601 52.217 91.3397 52.1466 91.2967C51.9434 91.1722 51.8725 90.9139 51.9912 90.7074C52.0877 90.5391 53.058 89.0637 57.3419 89.0637C58.89 89.0637 61.9506 88.7984 65.4945 88.4911C71.2553 87.9916 78.4245 87.37 81.9471 87.6813C82.1895 87.7029 82.3687 87.9165 82.3473 88.1589C82.3259 88.4017 82.1115 88.5804 81.8696 88.5591C78.4228 88.2551 71.2971 88.8727 65.5706 89.3692C62.0064 89.6782 58.9282 89.945 57.342 89.945C53.5847 89.945 52.7573 91.1444 52.7494 91.1568C52.6639 91.2872 52.5193 91.3601 52.3726 91.3601Z" fill="#571519"/>
<path d="M59.7098 101.998C56.2726 101.998 54.0178 101.494 53.8952 101.466C53.658 101.412 53.5099 101.176 53.5638 100.939C53.618 100.702 53.8541 100.554 54.0913 100.607C54.1294 100.616 57.9647 101.468 63.1805 100.942C68.2729 100.427 83.9145 95.0286 86.4858 93.7354C86.6617 92.2098 85.7696 91.5273 85.7298 91.4978C85.5358 91.3535 85.4923 91.0786 85.6348 90.8833C85.777 90.6877 86.0482 90.6423 86.2454 90.783C86.3054 90.8256 87.7082 91.857 87.3245 94.0931C87.3025 94.222 87.2241 94.3345 87.1111 94.3999C85.202 95.5055 68.5778 101.282 63.2692 101.818C61.9857 101.948 60.7893 101.998 59.7098 101.998Z" fill="#571519"/>
<path d="M98.592 101.463C95.6671 101.463 92.2065 101.386 88.4339 101.231C84.0246 101.05 73.0754 99.6672 72.9654 99.6534C72.724 99.6227 72.553 99.4024 72.5836 99.1608C72.6144 98.9196 72.8366 98.7502 73.0762 98.779C73.1859 98.793 84.0981 100.171 88.4701 100.35C96.4325 100.678 102.983 100.658 105.993 100.297C110.298 99.7823 113.155 97.2146 113.484 95.6362C113.534 95.398 113.767 95.2443 114.005 95.2948C114.244 95.3447 114.396 95.5779 114.347 95.8163C113.955 97.695 110.87 100.602 106.098 101.172C104.483 101.366 101.875 101.463 98.592 101.463Z" fill="#571519"/>
<path d="M93.279 91.4431C93.1135 91.4431 92.9548 91.3496 92.8798 91.1898C92.7764 90.9694 92.871 90.7073 93.091 90.6037C93.259 90.5248 97.2485 88.6744 101.059 88.914C101.301 88.9295 101.486 89.1386 101.471 89.3815C101.455 89.6245 101.249 89.8079 101.003 89.7934C97.4194 89.5688 93.505 91.3827 93.4659 91.401C93.4054 91.4296 93.3417 91.4431 93.279 91.4431Z" fill="#571519"/>
<path fill-rule="evenodd" clip-rule="evenodd" d="M61.4253 85.3485C60.9132 84.7375 59.5232 84.9214 58.9044 85.7981C58.3108 86.6504 57.8419 88.4858 57.481 89.8863C57.2629 90.716 57.6211 91.5143 58.397 91.352C58.8009 91.27 59.1674 91.0909 59.3431 90.7283C59.4856 90.4368 59.6501 90.0633 59.819 89.6717C59.819 89.6717 59.8186 89.6659 59.8235 89.66L61.4253 85.3485Z" fill="#FFE4CE"/>
<path fill-rule="evenodd" clip-rule="evenodd" d="M63.8343 85.7799C62.9123 84.1127 61.1032 85.0007 60.5619 86.6688C60.2339 87.6795 59.8238 89.2205 59.6885 90.6719C59.6079 91.5352 60.0852 92.2572 60.8222 91.9502C61.204 91.7913 61.5372 91.5426 61.6523 91.1537C61.9765 90.059 62.8022 87.5593 62.8022 87.5593L63.8343 85.7799Z" fill="#FFE4CE"/>
<path fill-rule="evenodd" clip-rule="evenodd" d="M62.7292 87.7752C62.7292 87.7752 61.6111 91.2063 62.9549 91.4188C64.0006 91.5844 64.8832 89.1981 65.4226 87.5655C65.9277 86.0373 64.5736 84.1379 63.404 86.4671L62.7292 87.7752Z" fill="#FFE4CE"/>
<path fill-rule="evenodd" clip-rule="evenodd" d="M68.3342 88.4429C68.3342 88.4429 68.5106 85.7643 67.4042 85.4731C66.2978 85.1822 66.0079 86.3274 66.0079 86.3274L65.2134 88.6397C65.2134 88.6397 64.6038 90.0448 65.3169 90.4668C66.2513 91.0193 66.8204 89.1128 67.547 87.9916L68.3342 88.4429Z" fill="#FFE4CE"/>
<path d="M58.2045 91.8136C57.8831 91.8136 57.5941 91.6925 57.3733 91.4602C57.0077 91.0756 56.8875 90.4292 57.0599 89.7737L57.0707 89.7312C57.447 88.2713 57.9151 86.4543 58.5477 85.5457C58.9595 84.9622 59.6772 84.5821 60.4221 84.5512C60.9807 84.5253 61.4747 84.7149 61.768 85.0649C61.9243 85.2515 61.9 85.5294 61.7134 85.6857C61.5268 85.8421 61.2488 85.8173 61.0928 85.6313C60.9781 85.4944 60.7409 85.4181 60.4587 85.4316C59.9882 85.451 59.5214 85.6946 59.2693 86.0518C58.729 86.8275 58.2638 88.6331 57.9242 89.9513L57.9127 89.9958C57.806 90.4016 57.8894 90.7242 58.0119 90.8532C58.0599 90.9036 58.1371 90.9561 58.3118 90.9203C58.8148 90.8179 58.9178 90.6055 58.9515 90.5356C59.0987 90.2346 59.2688 89.8459 59.4164 89.504C59.4345 89.4576 59.4595 89.4141 59.4901 89.3775C59.6459 89.1905 59.9235 89.1652 60.1107 89.321C60.2629 89.4477 60.3079 89.6558 60.2352 89.8292C60.2332 89.8347 60.2309 89.8401 60.2286 89.8456C60.0764 90.1991 59.8995 90.6032 59.744 90.9215C59.5276 91.3679 59.1054 91.6581 58.4898 91.7832C58.3925 91.8036 58.2971 91.8136 58.2045 91.8136Z" fill="#571519"/>
<path d="M60.4882 92.4627C60.2536 92.4627 60.0311 92.3902 59.8365 92.2471C59.4114 91.934 59.1871 91.3146 59.251 90.6302C59.4099 88.9251 59.9285 87.1964 60.144 86.5322C60.5172 85.3818 61.4105 84.5474 62.3671 84.4555C63.1132 84.3834 63.7912 84.7882 64.2211 85.5659C64.3389 85.7788 64.2617 86.047 64.0489 86.1647C63.8358 86.282 63.5676 86.2054 63.45 85.9923C63.269 85.665 62.9477 85.2866 62.4512 85.3327C61.8582 85.3898 61.2405 86.0087 60.9822 86.804C60.7757 87.4403 60.2792 89.0944 60.1285 90.7121C60.089 91.1336 60.2203 91.435 60.359 91.5371C60.3923 91.5619 60.47 91.6189 60.6539 91.5426C60.9753 91.4089 61.1695 91.2357 61.2308 91.0279C61.5533 89.9393 62.3766 87.4455 62.385 87.4202C62.4613 87.1895 62.7107 87.0639 62.9417 87.1403C63.1727 87.2165 63.2981 87.4655 63.2218 87.6968C63.2136 87.7217 62.3944 90.2027 62.076 91.2781C61.9793 91.6044 61.7131 92.0565 60.9925 92.3562C60.8221 92.4275 60.6522 92.4627 60.4882 92.4627Z" fill="#571519"/>
<path d="M63.0719 91.8706C63.0119 91.8706 62.9513 91.8657 62.8895 91.856C62.5602 91.8041 62.2923 91.6234 62.1147 91.3336C61.4907 90.315 62.1709 88.0787 62.3136 87.6407C62.3892 87.4097 62.6373 87.282 62.869 87.3584C63.1003 87.4335 63.2269 87.6822 63.1516 87.9134C62.8496 88.8429 62.5613 90.3756 62.8663 90.8734C62.9153 90.9534 62.9643 90.9756 63.0271 90.9856C63.261 91.0237 63.9112 90.7474 65.0077 87.4292C65.2399 86.7266 64.9585 85.9624 64.6518 85.8355C64.4374 85.744 64.0956 86.0809 63.8012 86.6666C63.6921 86.8841 63.4272 86.9719 63.2097 86.8628C62.9922 86.7535 62.9045 86.4888 63.0137 86.2713C63.7894 84.7265 64.6533 84.8814 64.9887 85.0211C65.7912 85.353 66.199 86.6327 65.8445 87.7057C65.1265 89.8786 64.2938 91.8704 63.0719 91.8706Z" fill="#571519"/>
<path d="M65.6476 91.006C65.4614 91.006 65.2741 90.9523 65.095 90.8466C64.1032 90.2595 64.7002 88.7276 64.8043 88.4818L65.5887 86.1986C65.6259 86.0661 65.8133 85.4903 66.3424 85.1784C66.6797 84.9791 67.0864 84.934 67.5187 85.0474C68.9063 85.4129 68.8098 87.9645 68.7762 88.4724C68.7603 88.7151 68.553 88.8978 68.3079 88.8829C68.0652 88.8672 67.8811 88.6574 67.8969 88.4148C67.9002 88.3623 67.903 88.3086 67.9049 88.2539C67.7352 88.5192 67.5671 88.8431 67.4044 89.1563C66.9702 89.9934 66.56 90.7838 65.9173 90.968C65.8284 90.9934 65.7382 91.006 65.6476 91.006ZM67.0762 85.8695C66.63 85.8695 66.4762 86.2935 66.4366 86.4396C66.434 86.449 66.4301 86.4618 66.4269 86.4711L65.6324 88.7833C65.6287 88.7942 65.6245 88.8052 65.62 88.8155C65.4359 89.2447 65.3023 89.9452 65.5437 90.088C65.6241 90.1357 65.6582 90.1257 65.6747 90.1207C65.9526 90.041 66.3397 89.2951 66.6224 88.7503C66.7992 88.4098 66.9821 88.0573 67.1796 87.7525C67.312 87.5484 67.5848 87.4904 67.7891 87.6223C67.8345 87.6519 67.8726 87.688 67.9032 87.7289C67.8679 86.8842 67.6775 86.0006 67.2946 85.8995C67.2149 85.8787 67.1424 85.8695 67.0762 85.8695Z" fill="#571519"/>
<path d="M86.9488 93.7692C86.7837 93.7692 86.6254 93.6758 86.5502 93.5167C86.4462 93.2966 86.5401 93.0342 86.7602 92.93C86.7771 92.922 88.4661 92.1211 89.7128 91.3152C89.9173 91.1823 90.19 91.2414 90.3221 91.446C90.4541 91.6505 90.3956 91.923 90.1913 92.0552C88.8948 92.8935 87.208 93.6931 87.1369 93.7268C87.076 93.7556 87.0119 93.7692 86.9488 93.7692Z" fill="#571519"/>
<path d="M65.1285 85.9468C64.9996 85.9468 64.8717 85.8905 64.7847 85.7822C64.6322 85.5921 64.6625 85.315 64.8522 85.1625L65.498 84.6437C65.6876 84.492 65.9652 84.5215 66.1175 84.7114C66.27 84.9014 66.2397 85.1785 66.05 85.3311L65.4042 85.8498C65.3228 85.915 65.2252 85.9468 65.1285 85.9468Z" fill="#571519"/>
<path d="M195.154 102.695C195.154 102.695 161.78 104.337 160.863 105.496C159.946 106.655 186.403 113.852 186.403 113.852L195.154 102.695Z" fill="#C5CED6"/>
<path d="M186.445 109.813L176.268 107.083L187.636 106.303L186.445 109.813Z" fill="#9FB3C1"/>
<path d="M242.53 76.7252L231.4 110.368C231.324 110.599 231.126 110.758 230.897 110.774L185.658 113.903L194.938 78.2379C195.005 77.9823 195.219 77.8019 195.469 77.7918L241.968 75.9145C242.371 75.8982 242.664 76.3198 242.53 76.7252Z" fill="#C5CED6"/>
<path d="M185.657 114.343C185.527 114.343 185.402 114.285 185.318 114.183C185.228 114.074 185.195 113.928 185.231 113.791L194.511 78.1263C194.627 77.6806 195.005 77.369 195.45 77.3509L241.949 75.4735C242.273 75.46 242.584 75.607 242.787 75.8761C242.999 76.157 243.059 76.5258 242.947 76.8629L231.818 110.506C231.685 110.907 231.336 111.185 230.927 111.213L185.688 114.342C185.678 114.342 185.668 114.343 185.657 114.343ZM241.989 76.3539C241.987 76.3539 241.986 76.3542 241.985 76.3542L195.486 78.2315C195.431 78.2335 195.381 78.2817 195.364 78.3483L186.238 113.42L230.866 110.334C230.916 110.33 230.961 110.289 230.981 110.23L242.11 76.5863C242.141 76.4936 242.097 76.4251 242.083 76.4064C242.065 76.3823 242.034 76.3539 241.989 76.3539Z" fill="#571519"/>
<path d="M213.738 94.9603C213.193 96.8571 213.684 98.6985 214.835 99.0729C215.986 99.4476 217.361 98.2134 217.907 96.3164C218.453 94.4196 217.962 92.5781 216.811 92.2037C215.66 91.8291 214.285 93.0632 213.738 94.9603Z" fill="#9FB3C1"/>
<path d="M185.482 114.177C185.44 114.177 185.398 114.171 185.356 114.159C183.024 113.467 162.544 107.378 161.556 106.728C160.992 106.357 160.689 105.949 160.654 105.516C160.625 105.158 160.796 104.864 160.951 104.721C161.065 104.617 161.225 104.58 161.372 104.623L186.206 111.846C186.439 111.914 186.574 112.158 186.506 112.392C186.438 112.626 186.193 112.76 185.959 112.692L161.605 105.609C161.672 105.703 161.799 105.833 162.041 105.992C162.829 106.466 176.566 110.631 185.607 113.314C185.84 113.383 185.973 113.629 185.904 113.862C185.847 114.053 185.672 114.177 185.482 114.177Z" fill="#571519"/>
<path d="M161.247 105.489C161.018 105.489 160.824 105.312 160.808 105.08C160.79 104.837 160.973 104.626 161.216 104.608L188.439 102.646C188.681 102.628 188.893 102.811 188.91 103.054C188.928 103.296 188.746 103.507 188.503 103.525L161.279 105.487C161.268 105.488 161.257 105.489 161.247 105.489Z" fill="#571519"/>
<path d="M47.8457 102.695C47.8457 102.695 81.2191 104.337 82.136 105.496C83.0529 106.655 56.5957 113.852 56.5957 113.852L47.8457 102.695Z" fill="#C5CED6"/>
<path d="M56.5562 109.815L66.7333 107.085L55.3652 106.305L56.5562 109.815Z" fill="#9FB3C1"/>
<path d="M0.470469 76.7252L11.5996 110.368C11.6758 110.599 11.8739 110.758 12.1027 110.774L57.3419 113.903L48.0614 78.2379C47.9951 77.9823 47.7804 77.8019 47.5313 77.7918L1.03247 75.9145C0.628618 75.8982 0.336398 76.3198 0.470469 76.7252Z" fill="#C5CED6"/>
<path d="M57.3449 114.343C57.3348 114.343 57.3246 114.342 57.3144 114.341L12.0753 111.213C11.6666 111.185 11.3167 110.907 11.1841 110.506L0.0550724 76.8629C-0.056364 76.5258 0.00344709 76.1569 0.215147 75.876C0.418083 75.6069 0.726869 75.4608 1.05328 75.4734L47.552 77.3508C47.9977 77.3689 48.375 77.6805 48.4909 78.1265L57.7713 113.791C57.8071 113.928 57.7745 114.074 57.684 114.183C57.5999 114.285 57.4754 114.343 57.3449 114.343ZM1.01331 76.3539C0.968138 76.3539 0.937125 76.3823 0.919018 76.4064C0.90486 76.4251 0.861228 76.4934 0.891856 76.5863L12.021 110.229C12.0408 110.289 12.0859 110.33 12.136 110.334L56.7642 113.42L47.6379 78.3483C47.6206 78.2818 47.5707 78.2336 47.5165 78.2315L1.01764 76.3542C1.0163 76.3542 1.01466 76.3539 1.01331 76.3539Z" fill="#571519"/>
<path d="M29.2587 94.9603C29.8045 96.8571 29.3138 98.6985 28.1627 99.0729C27.0116 99.4476 25.6359 98.2134 25.0902 96.3164C24.5443 94.4196 25.0351 92.5781 26.1861 92.2037C27.3374 91.8291 28.713 93.0632 29.2587 94.9603Z" fill="#9FB3C1"/>
<path d="M57.5203 114.177C57.3303 114.177 57.1549 114.053 57.098 113.862C57.0288 113.629 57.1617 113.384 57.3951 113.314C66.4354 110.631 80.1725 106.466 80.9641 105.99C81.2044 105.832 81.3308 105.702 81.3971 105.608L57.0424 112.692C56.8082 112.761 56.5642 112.626 56.4962 112.392C56.4282 112.158 56.5625 111.914 56.7963 111.846L81.6298 104.623C81.778 104.58 81.9373 104.617 82.051 104.722C82.2061 104.864 82.3773 105.158 82.3485 105.516C82.3136 105.949 82.0099 106.357 81.4459 106.728C80.4583 107.378 59.9779 113.467 57.6458 114.159C57.6039 114.171 57.5618 114.177 57.5203 114.177Z" fill="#571519"/>
<path d="M81.7545 105.489C81.7439 105.489 81.7331 105.488 81.7224 105.487L54.4988 103.525C54.2561 103.507 54.0735 103.296 54.091 103.054C54.1087 102.811 54.322 102.628 54.5623 102.646L81.7859 104.609C82.0286 104.626 82.2112 104.837 82.1937 105.08C82.1768 105.312 81.9834 105.489 81.7545 105.489Z" fill="#571519"/>
</svg>
