<svg width="395" height="299" viewBox="0 0 395 299" fill="none" xmlns="http://www.w3.org/2000/svg">
<g filter="url(#filter0_d_2951_37912)">
<rect x="4" width="387" height="290.138" rx="18" fill="white"/>
<path d="M19.134 26.0488V15.8148H23.208C25.224 15.8148 26.456 16.8648 26.456 18.5728C26.456 19.7068 25.952 20.5188 24.986 20.9248C26.064 21.2748 26.61 22.0868 26.61 23.2768C26.61 25.0268 25.392 26.0488 23.278 26.0488H19.134ZM23.054 17.3968H20.926V20.1828H23.096C24.076 20.1828 24.622 19.6648 24.622 18.7548C24.622 17.8728 24.062 17.3968 23.054 17.3968ZM23.208 21.6948H20.926V24.4668H23.208C24.216 24.4668 24.776 23.9768 24.776 23.0528C24.776 22.1848 24.202 21.6948 23.208 21.6948ZM30.0591 26.2308C28.5891 26.2308 27.6931 25.3768 27.6931 24.0748C27.6931 22.8008 28.6171 22.0028 30.2551 21.8768L32.3271 21.7228V21.5688C32.3271 20.6308 31.7671 20.2528 30.8991 20.2528C29.8911 20.2528 29.3311 20.6728 29.3311 21.4008H27.8751C27.8751 19.9028 29.1071 18.9228 30.9831 18.9228C32.8451 18.9228 33.9931 19.9308 33.9931 21.8488V26.0488H32.4951L32.3691 25.0268C32.0751 25.7408 31.1371 26.2308 30.0591 26.2308ZM30.6191 24.9428C31.6691 24.9428 32.3411 24.3128 32.3411 23.2488V22.8848L30.8991 22.9968C29.8351 23.0948 29.4291 23.4448 29.4291 24.0048C29.4291 24.6348 29.8491 24.9428 30.6191 24.9428ZM35.1391 23.9488H36.7631C36.7771 24.5508 37.2251 24.9288 38.0091 24.9288C38.8071 24.9288 39.2411 24.6068 39.2411 24.1028C39.2411 23.7528 39.0591 23.5008 38.4431 23.3608L37.1971 23.0668C35.9511 22.7868 35.3491 22.1988 35.3491 21.0928C35.3491 19.7348 36.4971 18.9228 38.0931 18.9228C39.6471 18.9228 40.6971 19.8188 40.7111 21.1628H39.0871C39.0731 20.5748 38.6811 20.1968 38.0231 20.1968C37.3511 20.1968 36.9591 20.5048 36.9591 21.0228C36.9591 21.4148 37.2671 21.6668 37.8551 21.8068L39.1011 22.1008C40.2631 22.3668 40.8511 22.8988 40.8511 23.9628C40.8511 25.3628 39.6611 26.2308 37.9531 26.2308C36.2311 26.2308 35.1391 25.3068 35.1391 23.9488ZM43.0055 17.7468C42.4175 17.7468 41.9555 17.2848 41.9555 16.7108C41.9555 16.1368 42.4175 15.6888 43.0055 15.6888C43.5655 15.6888 44.0275 16.1368 44.0275 16.7108C44.0275 17.2848 43.5655 17.7468 43.0055 17.7468ZM42.1515 26.0488V19.1328H43.8595V26.0488H42.1515ZM45.2182 22.5768C45.2182 20.4348 46.6322 18.9228 48.6762 18.9228C50.5662 18.9228 51.8542 19.9728 52.0362 21.6388H50.3282C50.1322 20.8548 49.5582 20.4488 48.7462 20.4488C47.6542 20.4488 46.9262 21.2748 46.9262 22.5768C46.9262 23.8788 47.5982 24.6908 48.6902 24.6908C49.5442 24.6908 50.1462 24.2708 50.3282 23.5148H52.0502C51.8402 25.1248 50.4962 26.2308 48.6902 26.2308C46.5902 26.2308 45.2182 24.7748 45.2182 22.5768ZM59.1389 15.8148V26.0488H57.3469V15.8148H59.1389ZM62.8634 26.0488H61.1554V19.1328H62.7374L62.8774 20.0288C63.3114 19.3288 64.1514 18.9228 65.0894 18.9228C66.8254 18.9228 67.7214 20.0008 67.7214 21.7928V26.0488H66.0134V22.1988C66.0134 21.0368 65.4394 20.4768 64.5574 20.4768C63.5074 20.4768 62.8634 21.2048 62.8634 22.3248V26.0488ZM68.7136 19.1328H69.7076V18.2928C69.7076 16.4168 70.7016 15.6328 72.1996 15.6328C72.4656 15.6328 72.7876 15.6468 73.0816 15.7028V17.1588H72.4796C71.6116 17.1588 71.4016 17.6068 71.4016 18.2928V19.1328H73.0536V20.5608H71.4016V26.0488H69.7076V20.5608H68.7136V19.1328ZM73.5326 22.5768C73.5326 20.4208 75.0866 18.9368 77.2286 18.9368C79.3706 18.9368 80.9246 20.4208 80.9246 22.5768C80.9246 24.7328 79.3706 26.2168 77.2286 26.2168C75.0866 26.2168 73.5326 24.7328 73.5326 22.5768ZM75.2406 22.5768C75.2406 23.8368 76.0526 24.6908 77.2286 24.6908C78.4046 24.6908 79.2166 23.8368 79.2166 22.5768C79.2166 21.3168 78.4046 20.4628 77.2286 20.4628C76.0526 20.4628 75.2406 21.3168 75.2406 22.5768ZM86.6185 19.1048V20.6868H85.9885C84.7565 20.6868 83.9865 21.3448 83.9865 22.6888V26.0488H82.2785V19.1468H83.8885L83.9865 20.1548C84.2805 19.4688 84.9385 19.0068 85.8625 19.0068C86.1005 19.0068 86.3385 19.0348 86.6185 19.1048ZM89.4826 26.0488H87.7746V19.1328H89.3426L89.4826 19.9448C89.8326 19.3708 90.5326 18.9228 91.5266 18.9228C92.5766 18.9228 93.3046 19.4408 93.6686 20.2388C94.0186 19.4408 94.8306 18.9228 95.8806 18.9228C97.5606 18.9228 98.4846 19.9308 98.4846 21.5268V26.0488H96.7906V21.9748C96.7906 20.9808 96.2586 20.4628 95.4466 20.4628C94.6206 20.4628 93.9906 20.9948 93.9906 22.1288V26.0488H92.2826V21.9608C92.2826 20.9948 91.7646 20.4768 90.9526 20.4768C90.1406 20.4768 89.4826 21.0088 89.4826 22.1288V26.0488ZM102.219 26.2308C100.749 26.2308 99.8533 25.3768 99.8533 24.0748C99.8533 22.8008 100.777 22.0028 102.415 21.8768L104.487 21.7228V21.5688C104.487 20.6308 103.927 20.2528 103.059 20.2528C102.051 20.2528 101.491 20.6728 101.491 21.4008H100.035C100.035 19.9028 101.267 18.9228 103.143 18.9228C105.005 18.9228 106.153 19.9308 106.153 21.8488V26.0488H104.655L104.529 25.0268C104.235 25.7408 103.297 26.2308 102.219 26.2308ZM102.779 24.9428C103.829 24.9428 104.501 24.3128 104.501 23.2488V22.8848L103.059 22.9968C101.995 23.0948 101.589 23.4448 101.589 24.0048C101.589 24.6348 102.009 24.9428 102.779 24.9428ZM110.088 26.0488H108.38V20.5608H107.05V19.1328H108.38V16.9768H110.088V19.1328H111.432V20.5608H110.088V26.0488ZM113.347 17.7468C112.759 17.7468 112.297 17.2848 112.297 16.7108C112.297 16.1368 112.759 15.6888 113.347 15.6888C113.907 15.6888 114.369 16.1368 114.369 16.7108C114.369 17.2848 113.907 17.7468 113.347 17.7468ZM112.493 26.0488V19.1328H114.201V26.0488H112.493ZM115.56 22.5768C115.56 20.4208 117.114 18.9368 119.256 18.9368C121.398 18.9368 122.952 20.4208 122.952 22.5768C122.952 24.7328 121.398 26.2168 119.256 26.2168C117.114 26.2168 115.56 24.7328 115.56 22.5768ZM117.268 22.5768C117.268 23.8368 118.08 24.6908 119.256 24.6908C120.432 24.6908 121.244 23.8368 121.244 22.5768C121.244 21.3168 120.432 20.4628 119.256 20.4628C118.08 20.4628 117.268 21.3168 117.268 22.5768ZM126.014 26.0488H124.306V19.1328H125.888L126.028 20.0288C126.462 19.3288 127.302 18.9228 128.24 18.9228C129.976 18.9228 130.872 20.0008 130.872 21.7928V26.0488H129.164V22.1988C129.164 21.0368 128.59 20.4768 127.708 20.4768C126.658 20.4768 126.014 21.2048 126.014 22.3248V26.0488Z" fill="#212B36"/>
<path d="M19.296 135.408V123.712H23.952C26.256 123.712 27.664 124.912 27.664 126.864C27.664 128.16 27.088 129.088 25.984 129.552C27.216 129.952 27.84 130.88 27.84 132.24C27.84 134.24 26.448 135.408 24.032 135.408H19.296ZM23.776 125.52H21.344V128.704H23.824C24.944 128.704 25.568 128.112 25.568 127.072C25.568 126.064 24.928 125.52 23.776 125.52ZM23.952 130.432H21.344V133.6H23.952C25.104 133.6 25.744 133.04 25.744 131.984C25.744 130.992 25.088 130.432 23.952 130.432ZM31.7819 135.616C30.1019 135.616 29.0779 134.64 29.0779 133.152C29.0779 131.696 30.1339 130.784 32.0059 130.64L34.3739 130.464V130.288C34.3739 129.216 33.7339 128.784 32.7419 128.784C31.5899 128.784 30.9499 129.264 30.9499 130.096H29.2859C29.2859 128.384 30.6939 127.264 32.8379 127.264C34.9659 127.264 36.2779 128.416 36.2779 130.608V135.408H34.5659L34.4219 134.24C34.0859 135.056 33.0139 135.616 31.7819 135.616ZM32.4219 134.144C33.6219 134.144 34.3899 133.424 34.3899 132.208V131.792L32.7419 131.92C31.5259 132.032 31.0619 132.432 31.0619 133.072C31.0619 133.792 31.5419 134.144 32.4219 134.144ZM37.5875 133.008H39.4435C39.4595 133.696 39.9715 134.128 40.8675 134.128C41.7795 134.128 42.2755 133.76 42.2755 133.184C42.2755 132.784 42.0675 132.496 41.3635 132.336L39.9395 132C38.5155 131.68 37.8275 131.008 37.8275 129.744C37.8275 128.192 39.1395 127.264 40.9635 127.264C42.7395 127.264 43.9395 128.288 43.9555 129.824H42.0995C42.0835 129.152 41.6355 128.72 40.8835 128.72C40.1155 128.72 39.6675 129.072 39.6675 129.664C39.6675 130.112 40.0195 130.4 40.6915 130.56L42.1155 130.896C43.4435 131.2 44.1155 131.808 44.1155 133.024C44.1155 134.624 42.7555 135.616 40.8035 135.616C38.8355 135.616 37.5875 134.56 37.5875 133.008ZM46.5778 125.92C45.9058 125.92 45.3778 125.392 45.3778 124.736C45.3778 124.08 45.9058 123.568 46.5778 123.568C47.2178 123.568 47.7458 124.08 47.7458 124.736C47.7458 125.392 47.2178 125.92 46.5778 125.92ZM45.6018 135.408V127.504H47.5538V135.408H45.6018ZM49.1065 131.44C49.1065 128.992 50.7225 127.264 53.0585 127.264C55.2185 127.264 56.6905 128.464 56.8985 130.368H54.9465C54.7225 129.472 54.0665 129.008 53.1385 129.008C51.8905 129.008 51.0585 129.952 51.0585 131.44C51.0585 132.928 51.8265 133.856 53.0745 133.856C54.0505 133.856 54.7385 133.376 54.9465 132.512H56.9145C56.6745 134.352 55.1385 135.616 53.0745 135.616C50.6745 135.616 49.1065 133.952 49.1065 131.44ZM70.2319 135.408H62.9679V123.712H70.2319V125.6H65.0159V128.608H69.6879V130.416H65.0159V133.52H70.2319V135.408ZM74.1163 135.408H72.1643V127.504H73.9563L74.1163 128.432C74.5163 127.776 75.3163 127.264 76.4523 127.264C77.6523 127.264 78.4843 127.856 78.9003 128.768C79.3003 127.856 80.2283 127.264 81.4283 127.264C83.3483 127.264 84.4043 128.416 84.4043 130.24V135.408H82.4683V130.752C82.4683 129.616 81.8603 129.024 80.9323 129.024C79.9883 129.024 79.2683 129.632 79.2683 130.928V135.408H77.3163V130.736C77.3163 129.632 76.7243 129.04 75.7963 129.04C74.8683 129.04 74.1163 129.648 74.1163 130.928V135.408ZM89.8565 135.616C87.5045 135.616 85.8565 133.904 85.8565 131.456C85.8565 128.976 87.4725 127.264 89.7925 127.264C92.1605 127.264 93.6645 128.848 93.6645 131.312V131.904L87.7125 131.92C87.8565 133.312 88.5925 134.016 89.8885 134.016C90.9605 134.016 91.6645 133.6 91.8885 132.848H93.6965C93.3605 134.576 91.9205 135.616 89.8565 135.616ZM89.8085 128.864C88.6565 128.864 87.9525 129.488 87.7605 130.672H91.7285C91.7285 129.584 90.9765 128.864 89.8085 128.864ZM100.187 127.472V129.28H99.4668C98.0588 129.28 97.1788 130.032 97.1788 131.568V135.408H95.2268V127.52H97.0668L97.1788 128.672C97.5148 127.888 98.2668 127.36 99.3228 127.36C99.5948 127.36 99.8668 127.392 100.187 127.472ZM100.857 131.28C100.857 128.976 102.361 127.248 104.617 127.248C105.801 127.248 106.729 127.744 107.193 128.592L107.305 127.504H109.113V135.008C109.113 137.648 107.529 139.296 104.969 139.296C102.697 139.296 101.145 138 100.905 135.888H102.857C102.985 136.912 103.769 137.52 104.969 137.52C106.313 137.52 107.177 136.672 107.177 135.36V134.048C106.681 134.784 105.705 135.248 104.569 135.248C102.329 135.248 100.857 133.568 100.857 131.28ZM102.825 131.232C102.825 132.56 103.673 133.552 104.953 133.552C106.297 133.552 107.129 132.608 107.129 131.232C107.129 129.888 106.313 128.96 104.953 128.96C103.657 128.96 102.825 129.936 102.825 131.232ZM114.669 135.616C112.317 135.616 110.669 133.904 110.669 131.456C110.669 128.976 112.285 127.264 114.605 127.264C116.973 127.264 118.477 128.848 118.477 131.312V131.904L112.525 131.92C112.669 133.312 113.405 134.016 114.701 134.016C115.773 134.016 116.477 133.6 116.701 132.848H118.509C118.173 134.576 116.733 135.616 114.669 135.616ZM114.621 128.864C113.469 128.864 112.765 129.488 112.573 130.672H116.541C116.541 129.584 115.789 128.864 114.621 128.864ZM121.991 135.408H120.039V127.504H121.847L122.007 128.528C122.503 127.728 123.463 127.264 124.535 127.264C126.519 127.264 127.543 128.496 127.543 130.544V135.408H125.591V131.008C125.591 129.68 124.935 129.04 123.927 129.04C122.727 129.04 121.991 129.872 121.991 131.152V135.408ZM128.997 131.44C128.997 128.992 130.613 127.264 132.949 127.264C135.109 127.264 136.581 128.464 136.789 130.368H134.837C134.613 129.472 133.957 129.008 133.029 129.008C131.781 129.008 130.949 129.952 130.949 131.44C130.949 132.928 131.717 133.856 132.965 133.856C133.941 133.856 134.629 133.376 134.837 132.512H136.805C136.565 134.352 135.029 135.616 132.965 135.616C130.565 135.616 128.997 133.952 128.997 131.44ZM137.414 139.072V137.44H138.582C139.35 137.44 139.83 137.264 140.166 136.336L140.39 135.744L137.206 127.504H139.27L141.302 133.264L143.446 127.504H145.462L141.59 137.168C140.998 138.64 140.166 139.248 138.87 139.248C138.326 139.248 137.846 139.184 137.414 139.072ZM157.571 130.624H153.219V135.408H151.171V123.712H158.403V125.6H153.219V128.784H157.571V130.624ZM164.837 127.504H166.789V135.408H164.981L164.837 134.352C164.357 135.104 163.333 135.616 162.277 135.616C160.453 135.616 159.381 134.384 159.381 132.448V127.504H161.333V131.76C161.333 133.264 161.925 133.872 163.013 133.872C164.245 133.872 164.837 133.152 164.837 131.648V127.504ZM170.757 135.408H168.805V127.504H170.613L170.773 128.528C171.269 127.728 172.229 127.264 173.301 127.264C175.285 127.264 176.309 128.496 176.309 130.544V135.408H174.357V131.008C174.357 129.68 173.701 129.04 172.693 129.04C171.493 129.04 170.757 129.872 170.757 131.152V135.408ZM181.475 135.616C179.187 135.616 177.763 133.936 177.763 131.488C177.763 129.024 179.203 127.264 181.587 127.264C182.691 127.264 183.667 127.728 184.163 128.512V123.504H186.099V135.408H184.307L184.179 134.176C183.699 135.088 182.675 135.616 181.475 135.616ZM181.907 133.824C183.267 133.824 184.147 132.848 184.147 131.424C184.147 130 183.267 129.008 181.907 129.008C180.547 129.008 179.715 130.016 179.715 131.424C179.715 132.832 180.547 133.824 181.907 133.824Z" fill="#637381"/>
<path d="M299.348 136.935V135.607C297.124 135.447 295.7 134.151 295.652 132.199H297.7C297.716 133.111 298.308 133.687 299.348 133.815V130.407L298.836 130.295C296.82 129.863 295.812 128.743 295.812 126.983C295.812 125.111 297.22 123.767 299.348 123.543V122.183H300.58V123.543C302.596 123.751 303.844 125.015 303.908 126.935H301.924C301.892 126.071 301.412 125.511 300.58 125.335V128.775L301.124 128.903C303.172 129.351 304.1 130.343 304.1 132.039C304.1 133.991 302.724 135.335 300.58 135.575V136.935H299.348ZM299.284 128.487L299.348 128.503V125.319C298.388 125.479 297.812 126.055 297.812 126.919C297.812 127.767 298.26 128.263 299.284 128.487ZM300.692 130.695L300.58 130.663V133.783C301.54 133.591 302.116 133.031 302.116 132.215C302.116 131.399 301.652 130.903 300.692 130.695ZM313.504 135.399L305.392 135.415V133.879L309.216 130.647C310.8 129.303 311.328 128.535 311.328 127.415C311.328 126.087 310.608 125.335 309.376 125.335C308.096 125.335 307.296 126.231 307.28 127.735H305.248C305.264 125.175 306.896 123.511 309.376 123.511C311.872 123.511 313.424 124.935 313.424 127.303C313.424 128.935 312.528 130.167 310.752 131.687L308.64 133.495H313.504V135.399ZM318.332 129.623H316.908V128.295L319.916 125.527H315.052V123.719H322.476V125.351L319.628 127.975C321.42 128.327 322.812 129.639 322.812 131.703C322.812 134.103 320.94 135.623 318.572 135.623C316.284 135.623 314.508 134.215 314.508 131.687H316.524C316.524 133.031 317.356 133.799 318.604 133.799C319.884 133.799 320.732 132.967 320.732 131.671C320.732 130.487 319.964 129.623 318.332 129.623ZM326.772 134.711C326.772 136.039 325.812 137.095 324.516 137.255V136.471C325.236 136.343 325.78 135.911 325.78 135.351C325.652 135.415 325.508 135.447 325.316 135.447C324.692 135.447 324.18 134.983 324.18 134.343C324.18 133.575 324.676 133.063 325.396 133.063C326.196 133.063 326.772 133.719 326.772 134.711ZM329.338 125.559H326.778V123.719H331.306V135.415H329.338V125.559ZM333.172 132.103C333.172 130.711 333.956 129.591 335.172 129.127C334.148 128.663 333.588 127.783 333.588 126.647C333.588 124.791 335.236 123.511 337.652 123.511C340.052 123.511 341.668 124.775 341.668 126.679C341.668 127.815 341.092 128.695 340.052 129.127C341.284 129.559 342.084 130.695 342.084 132.103C342.084 134.215 340.34 135.607 337.62 135.607C334.916 135.607 333.172 134.231 333.172 132.103ZM335.444 126.823C335.444 127.799 336.292 128.423 337.62 128.423C338.932 128.423 339.764 127.815 339.764 126.839C339.764 125.863 338.932 125.255 337.62 125.255C336.292 125.255 335.444 125.863 335.444 126.823ZM335.172 131.959C335.172 133.095 336.116 133.799 337.636 133.799C339.124 133.799 340.068 133.095 340.068 131.959C340.068 130.823 339.124 130.119 337.62 130.119C336.116 130.119 335.172 130.823 335.172 131.959ZM350.318 131.975L347.79 135.415H345.454L348.254 131.687C347.966 131.767 347.662 131.815 347.374 131.815C344.958 131.815 343.326 130.119 343.326 127.751C343.326 125.255 345.182 123.511 347.678 123.511C350.206 123.511 352.094 125.367 352.094 127.767C352.094 129.175 351.63 130.199 350.318 131.975ZM349.998 127.751C349.998 126.327 349.054 125.335 347.678 125.335C346.334 125.335 345.39 126.327 345.39 127.751C345.39 129.159 346.334 130.135 347.678 130.135C349.07 130.135 349.998 129.159 349.998 127.751ZM354.414 135.607C353.71 135.607 353.118 135.031 353.118 134.343C353.118 133.639 353.71 133.063 354.414 133.063C355.118 133.063 355.71 133.639 355.71 134.343C355.71 135.031 355.118 135.607 354.414 135.607ZM360.753 129.623H359.329V128.295L362.337 125.527H357.473V123.719H364.897V125.351L362.049 127.975C363.841 128.327 365.233 129.639 365.233 131.703C365.233 134.103 363.361 135.623 360.993 135.623C358.705 135.623 356.929 134.215 356.929 131.687H358.945C358.945 133.031 359.777 133.799 361.025 133.799C362.305 133.799 363.153 132.967 363.153 131.671C363.153 130.487 362.385 129.623 360.753 129.623ZM366.407 129.591C366.407 125.959 368.359 123.495 371.351 123.495C374.343 123.495 376.311 125.959 376.311 129.591C376.311 133.207 374.455 135.623 371.351 135.623C368.247 135.623 366.407 133.207 366.407 129.591ZM368.423 129.591C368.423 132.295 369.511 133.815 371.351 133.815C373.207 133.815 374.295 132.295 374.295 129.591C374.295 126.823 373.207 125.303 371.351 125.303C369.511 125.303 368.423 126.823 368.423 129.591Z" fill="#212B36"/>
<path d="M18.272 157.711V155.823H27.168V157.711H23.744V167.519H21.696V157.711H18.272ZM26.6378 163.551C26.6378 161.087 28.4138 159.391 30.8618 159.391C33.3098 159.391 35.0858 161.087 35.0858 163.551C35.0858 166.015 33.3098 167.711 30.8618 167.711C28.4138 167.711 26.6378 166.015 26.6378 163.551ZM28.5898 163.551C28.5898 164.991 29.5178 165.967 30.8618 165.967C32.2058 165.967 33.1338 164.991 33.1338 163.551C33.1338 162.111 32.2058 161.135 30.8618 161.135C29.5178 161.135 28.5898 162.111 28.5898 163.551ZM39.2429 167.519H37.2909V161.247H35.7709V159.615H37.2909V157.151H39.2429V159.615H40.7789V161.247H39.2429V167.519ZM44.2975 167.727C42.6175 167.727 41.5935 166.751 41.5935 165.263C41.5935 163.807 42.6495 162.895 44.5215 162.751L46.8895 162.575V162.399C46.8895 161.327 46.2495 160.895 45.2575 160.895C44.1055 160.895 43.4655 161.375 43.4655 162.207H41.8015C41.8015 160.495 43.2095 159.375 45.3535 159.375C47.4815 159.375 48.7935 160.527 48.7935 162.719V167.519H47.0815L46.9375 166.351C46.6015 167.167 45.5295 167.727 44.2975 167.727ZM44.9375 166.255C46.1375 166.255 46.9055 165.535 46.9055 164.319V163.903L45.2575 164.031C44.0415 164.143 43.5775 164.543 43.5775 165.183C43.5775 165.903 44.0575 166.255 44.9375 166.255ZM52.6791 167.519H50.7431V155.615H52.6791V167.519ZM60.9913 167.519H59.0393V159.615H60.8313L60.9913 160.543C61.3913 159.887 62.1913 159.375 63.3273 159.375C64.5273 159.375 65.3593 159.967 65.7753 160.879C66.1753 159.967 67.1033 159.375 68.3033 159.375C70.2233 159.375 71.2793 160.527 71.2793 162.351V167.519H69.3433V162.863C69.3433 161.727 68.7353 161.135 67.8073 161.135C66.8633 161.135 66.1433 161.743 66.1433 163.039V167.519H64.1913V162.847C64.1913 161.743 63.5993 161.151 62.6713 161.151C61.7433 161.151 60.9913 161.759 60.9913 163.039V167.519ZM74.1715 158.031C73.4995 158.031 72.9715 157.503 72.9715 156.847C72.9715 156.191 73.4995 155.679 74.1715 155.679C74.8115 155.679 75.3395 156.191 75.3395 156.847C75.3395 157.503 74.8115 158.031 74.1715 158.031ZM73.1955 167.519V159.615H75.1475V167.519H73.1955ZM79.1163 167.519H77.1643V159.615H78.9723L79.1323 160.639C79.6283 159.839 80.5883 159.375 81.6603 159.375C83.6443 159.375 84.6683 160.607 84.6683 162.655V167.519H82.7163V163.119C82.7163 161.791 82.0603 161.151 81.0523 161.151C79.8523 161.151 79.1163 161.983 79.1163 163.263V167.519ZM87.5621 158.031C86.8901 158.031 86.3621 157.503 86.3621 156.847C86.3621 156.191 86.8901 155.679 87.5621 155.679C88.2021 155.679 88.7301 156.191 88.7301 156.847C88.7301 157.503 88.2021 158.031 87.5621 158.031ZM86.5861 167.519V159.615H88.5381V167.519H86.5861ZM92.5069 167.519H90.5549V159.615H92.3469L92.5069 160.543C92.9069 159.887 93.7069 159.375 94.8429 159.375C96.0429 159.375 96.8749 159.967 97.2909 160.879C97.6909 159.967 98.6189 159.375 99.8189 159.375C101.739 159.375 102.795 160.527 102.795 162.351V167.519H100.859V162.863C100.859 161.727 100.251 161.135 99.3229 161.135C98.3789 161.135 97.6589 161.743 97.6589 163.039V167.519H95.7069V162.847C95.7069 161.743 95.1149 161.151 94.1869 161.151C93.2589 161.151 92.5069 161.759 92.5069 163.039V167.519ZM110.071 159.615H112.023V167.519H110.215L110.071 166.463C109.591 167.215 108.567 167.727 107.511 167.727C105.687 167.727 104.615 166.495 104.615 164.559V159.615H106.567V163.871C106.567 165.375 107.159 165.983 108.247 165.983C109.479 165.983 110.071 165.263 110.071 163.759V159.615ZM115.991 167.519H114.039V159.615H115.831L115.991 160.543C116.391 159.887 117.191 159.375 118.327 159.375C119.527 159.375 120.359 159.967 120.775 160.879C121.175 159.967 122.103 159.375 123.303 159.375C125.223 159.375 126.279 160.527 126.279 162.351V167.519H124.343V162.863C124.343 161.727 123.735 161.135 122.807 161.135C121.863 161.135 121.143 161.743 121.143 163.039V167.519H119.191V162.847C119.191 161.743 118.599 161.151 117.671 161.151C116.743 161.151 115.991 161.759 115.991 163.039V167.519ZM132.044 163.551C132.044 161.103 133.66 159.375 135.996 159.375C138.156 159.375 139.628 160.575 139.836 162.479H137.884C137.66 161.583 137.004 161.119 136.076 161.119C134.828 161.119 133.996 162.063 133.996 163.551C133.996 165.039 134.764 165.967 136.012 165.967C136.988 165.967 137.676 165.487 137.884 164.623H139.852C139.612 166.463 138.076 167.727 136.012 167.727C133.612 167.727 132.044 166.063 132.044 163.551ZM143.657 167.727C141.977 167.727 140.953 166.751 140.953 165.263C140.953 163.807 142.009 162.895 143.881 162.751L146.249 162.575V162.399C146.249 161.327 145.609 160.895 144.617 160.895C143.465 160.895 142.825 161.375 142.825 162.207H141.161C141.161 160.495 142.569 159.375 144.713 159.375C146.841 159.375 148.153 160.527 148.153 162.719V167.519H146.441L146.297 166.351C145.961 167.167 144.889 167.727 143.657 167.727ZM144.297 166.255C145.497 166.255 146.265 165.535 146.265 164.319V163.903L144.617 164.031C143.401 164.143 142.937 164.543 142.937 165.183C142.937 165.903 143.417 166.255 144.297 166.255ZM149.463 165.119H151.319C151.335 165.807 151.847 166.239 152.743 166.239C153.655 166.239 154.151 165.871 154.151 165.295C154.151 164.895 153.943 164.607 153.239 164.447L151.815 164.111C150.391 163.791 149.703 163.119 149.703 161.855C149.703 160.303 151.015 159.375 152.839 159.375C154.615 159.375 155.815 160.399 155.831 161.935H153.975C153.959 161.263 153.511 160.831 152.759 160.831C151.991 160.831 151.543 161.183 151.543 161.775C151.543 162.223 151.895 162.511 152.567 162.671L153.991 163.007C155.319 163.311 155.991 163.919 155.991 165.135C155.991 166.735 154.631 167.727 152.679 167.727C150.711 167.727 149.463 166.671 149.463 165.119ZM159.429 167.519H157.477V155.615H159.445V160.639C159.941 159.871 160.869 159.375 162.005 159.375C163.957 159.375 164.981 160.607 164.981 162.655V167.519H163.029V163.119C163.029 161.791 162.373 161.151 161.381 161.151C160.149 161.151 159.429 162.015 159.429 163.199V167.519ZM172.187 158.031C171.515 158.031 170.987 157.503 170.987 156.847C170.987 156.191 171.515 155.679 172.187 155.679C172.827 155.679 173.355 156.191 173.355 156.847C173.355 157.503 172.827 158.031 172.187 158.031ZM171.211 167.519V159.615H173.163V167.519H171.211ZM177.132 167.519H175.18V159.615H176.988L177.148 160.639C177.644 159.839 178.604 159.375 179.676 159.375C181.66 159.375 182.684 160.607 182.684 162.655V167.519H180.732V163.119C180.732 161.791 180.076 161.151 179.068 161.151C177.868 161.151 177.132 161.983 177.132 163.263V167.519ZM190.722 167.519H188.914V155.615H190.866V160.767C191.378 159.887 192.434 159.359 193.634 159.359C195.89 159.359 197.266 161.119 197.266 163.615C197.266 166.047 195.778 167.727 193.506 167.727C192.322 167.727 191.314 167.199 190.85 166.287L190.722 167.519ZM190.882 163.535C190.882 164.959 191.762 165.935 193.106 165.935C194.482 165.935 195.298 164.943 195.298 163.535C195.298 162.127 194.482 161.119 193.106 161.119C191.762 161.119 190.882 162.111 190.882 163.535ZM201.173 167.727C199.493 167.727 198.469 166.751 198.469 165.263C198.469 163.807 199.525 162.895 201.397 162.751L203.765 162.575V162.399C203.765 161.327 203.125 160.895 202.133 160.895C200.981 160.895 200.341 161.375 200.341 162.207H198.677C198.677 160.495 200.085 159.375 202.229 159.375C204.357 159.375 205.669 160.527 205.669 162.719V167.519H203.957L203.813 166.351C203.477 167.167 202.405 167.727 201.173 167.727ZM201.812 166.255C203.013 166.255 203.781 165.535 203.781 164.319V163.903L202.133 164.031C200.917 164.143 200.453 164.543 200.453 165.183C200.453 165.903 200.933 166.255 201.812 166.255ZM209.538 167.519H207.586V159.615H209.394L209.554 160.639C210.05 159.839 211.01 159.375 212.082 159.375C214.066 159.375 215.09 160.607 215.09 162.655V167.519H213.138V163.119C213.138 161.791 212.482 161.151 211.474 161.151C210.274 161.151 209.538 161.983 209.538 163.263V167.519ZM218.976 167.519H217.04V155.615H218.976V162.927L222.048 159.615H224.496L221.488 162.751L224.432 167.519H222.192L220.128 164.191L218.976 165.391V167.519Z" fill="#637381"/>
<path d="M18.272 189.822V187.934H27.168V189.822H23.744V199.63H21.696V189.822H18.272ZM26.6378 195.662C26.6378 193.198 28.4138 191.502 30.8618 191.502C33.3098 191.502 35.0858 193.198 35.0858 195.662C35.0858 198.126 33.3098 199.822 30.8618 199.822C28.4138 199.822 26.6378 198.126 26.6378 195.662ZM28.5898 195.662C28.5898 197.102 29.5178 198.078 30.8618 198.078C32.2058 198.078 33.1338 197.102 33.1338 195.662C33.1338 194.222 32.2058 193.246 30.8618 193.246C29.5178 193.246 28.5898 194.222 28.5898 195.662ZM39.2429 199.63H37.2909V193.358H35.7709V191.726H37.2909V189.262H39.2429V191.726H40.7789V193.358H39.2429V199.63ZM44.2975 199.838C42.6175 199.838 41.5935 198.862 41.5935 197.374C41.5935 195.918 42.6495 195.006 44.5215 194.862L46.8895 194.686V194.51C46.8895 193.438 46.2495 193.006 45.2575 193.006C44.1055 193.006 43.4655 193.486 43.4655 194.318H41.8015C41.8015 192.606 43.2095 191.486 45.3535 191.486C47.4815 191.486 48.7935 192.638 48.7935 194.83V199.63H47.0815L46.9375 198.462C46.6015 199.278 45.5295 199.838 44.2975 199.838ZM44.9375 198.366C46.1375 198.366 46.9055 197.646 46.9055 196.43V196.014L45.2575 196.142C44.0415 196.254 43.5775 196.654 43.5775 197.294C43.5775 198.014 44.0575 198.366 44.9375 198.366ZM52.6791 199.63H50.7431V187.726H52.6791V199.63ZM61.7273 199.63H59.7753V193.358H58.2553V191.726H59.7753V189.262H61.7273V191.726H63.2633V193.358H61.7273V199.63ZM66.7819 199.838C65.1019 199.838 64.0779 198.862 64.0779 197.374C64.0779 195.918 65.1339 195.006 67.0059 194.862L69.3739 194.686V194.51C69.3739 193.438 68.7339 193.006 67.7419 193.006C66.5899 193.006 65.9499 193.486 65.9499 194.318H64.2859C64.2859 192.606 65.6939 191.486 67.8379 191.486C69.9659 191.486 71.2779 192.638 71.2779 194.83V199.63H69.5659L69.4219 198.462C69.0859 199.278 68.0139 199.838 66.7819 199.838ZM67.4219 198.366C68.6219 198.366 69.3899 197.646 69.3899 196.43V196.014L67.7419 196.142C66.5259 196.254 66.0619 196.654 66.0619 197.294C66.0619 198.014 66.5419 198.366 67.4219 198.366ZM75.1635 199.63H73.2275V187.726H75.1635V195.038L78.2355 191.726H80.6835L77.6755 194.862L80.6195 199.63H78.3795L76.3155 196.302L75.1635 197.502V199.63ZM84.9815 199.838C82.6295 199.838 80.9815 198.126 80.9815 195.678C80.9815 193.198 82.5975 191.486 84.9175 191.486C87.2855 191.486 88.7895 193.07 88.7895 195.534V196.126L82.8375 196.142C82.9815 197.534 83.7175 198.238 85.0135 198.238C86.0855 198.238 86.7895 197.822 87.0135 197.07H88.8215C88.4855 198.798 87.0455 199.838 84.9815 199.838ZM84.9335 193.086C83.7815 193.086 83.0775 193.71 82.8855 194.894H86.8535C86.8535 193.806 86.1015 193.086 84.9335 193.086ZM96.6163 199.63H94.6643V187.726H96.6323V192.75C97.1283 191.982 98.0563 191.486 99.1923 191.486C101.144 191.486 102.168 192.718 102.168 194.766V199.63H100.216V195.23C100.216 193.902 99.5603 193.262 98.5683 193.262C97.3363 193.262 96.6163 194.126 96.6163 195.31V199.63ZM103.622 195.662C103.622 193.198 105.398 191.502 107.846 191.502C110.294 191.502 112.07 193.198 112.07 195.662C112.07 198.126 110.294 199.822 107.846 199.822C105.398 199.822 103.622 198.126 103.622 195.662ZM105.574 195.662C105.574 197.102 106.502 198.078 107.846 198.078C109.19 198.078 110.118 197.102 110.118 195.662C110.118 194.222 109.19 193.246 107.846 193.246C106.502 193.246 105.574 194.222 105.574 195.662ZM115.569 199.63H113.617V191.726H115.409L115.569 192.654C115.969 191.998 116.769 191.486 117.905 191.486C119.105 191.486 119.937 192.078 120.353 192.99C120.753 192.078 121.681 191.486 122.881 191.486C124.801 191.486 125.857 192.638 125.857 194.462V199.63H123.921V194.974C123.921 193.838 123.313 193.246 122.385 193.246C121.441 193.246 120.721 193.854 120.721 195.15V199.63H118.769V194.958C118.769 193.854 118.177 193.262 117.249 193.262C116.321 193.262 115.569 193.87 115.569 195.15V199.63ZM131.31 199.838C128.958 199.838 127.31 198.126 127.31 195.678C127.31 193.198 128.926 191.486 131.246 191.486C133.614 191.486 135.118 193.07 135.118 195.534V196.126L129.166 196.142C129.31 197.534 130.046 198.238 131.342 198.238C132.414 198.238 133.118 197.822 133.342 197.07H135.15C134.814 198.798 133.374 199.838 131.31 199.838ZM131.262 193.086C130.11 193.086 129.406 193.71 129.214 194.894H133.182C133.182 193.806 132.43 193.086 131.262 193.086ZM141.968 190.142C141.296 190.142 140.768 189.614 140.768 188.958C140.768 188.302 141.296 187.79 141.968 187.79C142.608 187.79 143.136 188.302 143.136 188.958C143.136 189.614 142.608 190.142 141.968 190.142ZM140.992 199.63V191.726H142.944V199.63H140.992ZM146.913 199.63H144.961V191.726H146.769L146.929 192.75C147.425 191.95 148.385 191.486 149.457 191.486C151.441 191.486 152.465 192.718 152.465 194.766V199.63H150.513V195.23C150.513 193.902 149.857 193.262 148.849 193.262C147.649 193.262 146.913 194.094 146.913 195.374V199.63ZM153.919 195.662C153.919 193.214 155.535 191.486 157.871 191.486C160.031 191.486 161.503 192.686 161.711 194.59H159.759C159.535 193.694 158.879 193.23 157.951 193.23C156.703 193.23 155.871 194.174 155.871 195.662C155.871 197.15 156.639 198.078 157.887 198.078C158.863 198.078 159.551 197.598 159.759 196.734H161.727C161.487 198.574 159.951 199.838 157.887 199.838C155.487 199.838 153.919 198.174 153.919 195.662ZM162.716 195.662C162.716 193.198 164.492 191.502 166.94 191.502C169.388 191.502 171.164 193.198 171.164 195.662C171.164 198.126 169.388 199.822 166.94 199.822C164.492 199.822 162.716 198.126 162.716 195.662ZM164.668 195.662C164.668 197.102 165.596 198.078 166.94 198.078C168.284 198.078 169.212 197.102 169.212 195.662C169.212 194.222 168.284 193.246 166.94 193.246C165.596 193.246 164.668 194.222 164.668 195.662ZM174.663 199.63H172.711V191.726H174.503L174.663 192.654C175.063 191.998 175.863 191.486 176.999 191.486C178.199 191.486 179.031 192.078 179.447 192.99C179.847 192.078 180.775 191.486 181.975 191.486C183.895 191.486 184.951 192.638 184.951 194.462V199.63H183.015V194.974C183.015 193.838 182.407 193.246 181.479 193.246C180.535 193.246 179.815 193.854 179.815 195.15V199.63H177.863V194.958C177.863 193.854 177.271 193.262 176.343 193.262C175.415 193.262 174.663 193.87 174.663 195.15V199.63ZM190.403 199.838C188.051 199.838 186.403 198.126 186.403 195.678C186.403 193.198 188.019 191.486 190.339 191.486C192.707 191.486 194.211 193.07 194.211 195.534V196.126L188.259 196.142C188.403 197.534 189.139 198.238 190.435 198.238C191.507 198.238 192.211 197.822 192.435 197.07H194.243C193.907 198.798 192.467 199.838 190.403 199.838ZM190.355 193.086C189.203 193.086 188.499 193.71 188.307 194.894H192.275C192.275 193.806 191.523 193.086 190.355 193.086Z" fill="#637381"/>
<path d="M18.272 221.932V220.044H27.168V221.932H23.744V231.74H21.696V221.932H18.272ZM26.6378 227.772C26.6378 225.308 28.4138 223.612 30.8618 223.612C33.3098 223.612 35.0858 225.308 35.0858 227.772C35.0858 230.236 33.3098 231.932 30.8618 231.932C28.4138 231.932 26.6378 230.236 26.6378 227.772ZM28.5898 227.772C28.5898 229.212 29.5178 230.188 30.8618 230.188C32.2058 230.188 33.1338 229.212 33.1338 227.772C33.1338 226.332 32.2058 225.356 30.8618 225.356C29.5178 225.356 28.5898 226.332 28.5898 227.772ZM39.2429 231.74H37.2909V225.468H35.7709V223.836H37.2909V221.372H39.2429V223.836H40.7789V225.468H39.2429V231.74ZM44.2975 231.948C42.6175 231.948 41.5935 230.972 41.5935 229.484C41.5935 228.028 42.6495 227.116 44.5215 226.972L46.8895 226.796V226.62C46.8895 225.548 46.2495 225.116 45.2575 225.116C44.1055 225.116 43.4655 225.596 43.4655 226.428H41.8015C41.8015 224.716 43.2095 223.596 45.3535 223.596C47.4815 223.596 48.7935 224.748 48.7935 226.94V231.74H47.0815L46.9375 230.572C46.6015 231.388 45.5295 231.948 44.2975 231.948ZM44.9375 230.476C46.1375 230.476 46.9055 229.756 46.9055 228.54V228.124L45.2575 228.252C44.0415 228.364 43.5775 228.764 43.5775 229.404C43.5775 230.124 44.0575 230.476 44.9375 230.476ZM52.6791 231.74H50.7431V219.836H52.6791V231.74ZM58.5753 227.772C58.5753 225.324 60.1913 223.596 62.5273 223.596C64.6873 223.596 66.1593 224.796 66.3673 226.7H64.4153C64.1913 225.804 63.5353 225.34 62.6073 225.34C61.3593 225.34 60.5273 226.284 60.5273 227.772C60.5273 229.26 61.2953 230.188 62.5433 230.188C63.5193 230.188 64.2073 229.708 64.4153 228.844H66.3833C66.1433 230.684 64.6073 231.948 62.5433 231.948C60.1432 231.948 58.5753 230.284 58.5753 227.772ZM70.1881 231.948C68.5081 231.948 67.4841 230.972 67.4841 229.484C67.4841 228.028 68.5401 227.116 70.4121 226.972L72.7801 226.796V226.62C72.7801 225.548 72.1401 225.116 71.1481 225.116C69.9961 225.116 69.3561 225.596 69.3561 226.428H67.6921C67.6921 224.716 69.1001 223.596 71.2441 223.596C73.3721 223.596 74.6841 224.748 74.6841 226.94V231.74H72.9721L72.8281 230.572C72.4921 231.388 71.4201 231.948 70.1881 231.948ZM70.8281 230.476C72.0281 230.476 72.7961 229.756 72.7961 228.54V228.124L71.1481 228.252C69.9321 228.364 69.4681 228.764 69.4681 229.404C69.4681 230.124 69.9481 230.476 70.8281 230.476ZM75.9938 229.34H77.8498C77.8658 230.028 78.3778 230.46 79.2738 230.46C80.1858 230.46 80.6818 230.092 80.6818 229.516C80.6818 229.116 80.4738 228.828 79.7698 228.668L78.3458 228.332C76.9218 228.012 76.2338 227.34 76.2338 226.076C76.2338 224.524 77.5458 223.596 79.3698 223.596C81.1458 223.596 82.3458 224.62 82.3618 226.156H80.5058C80.4898 225.484 80.0418 225.052 79.2898 225.052C78.5218 225.052 78.0738 225.404 78.0738 225.996C78.0738 226.444 78.4258 226.732 79.0978 226.892L80.5218 227.228C81.8498 227.532 82.5218 228.14 82.5218 229.356C82.5218 230.956 81.1618 231.948 79.2098 231.948C77.2418 231.948 75.9938 230.892 75.9938 229.34ZM85.96 231.74H84.008V219.836H85.976V224.86C86.472 224.092 87.4 223.596 88.536 223.596C90.488 223.596 91.512 224.828 91.512 226.876V231.74H89.56V227.34C89.56 226.012 88.904 225.372 87.912 225.372C86.68 225.372 85.96 226.236 85.96 227.42V231.74ZM101.278 231.948C98.9264 231.948 97.2784 230.236 97.2784 227.788C97.2784 225.308 98.8944 223.596 101.214 223.596C103.582 223.596 105.086 225.18 105.086 227.644V228.236L99.1344 228.252C99.2784 229.644 100.014 230.348 101.31 230.348C102.382 230.348 103.086 229.932 103.31 229.18H105.118C104.782 230.908 103.342 231.948 101.278 231.948ZM101.23 225.196C100.078 225.196 99.3744 225.82 99.1824 227.004H103.15C103.15 225.916 102.398 225.196 101.23 225.196ZM107.665 231.74H105.441L108.161 227.868L105.441 223.836H107.713L109.457 226.524L111.137 223.836H113.329L110.641 227.836L113.249 231.74H111.009L109.329 229.132L107.665 231.74ZM114.492 235.404V223.836H116.3L116.428 225.036C116.908 224.124 117.948 223.596 119.148 223.596C121.372 223.596 122.844 225.212 122.844 227.692C122.844 230.156 121.5 231.948 119.148 231.948C117.964 231.948 116.94 231.484 116.444 230.684V235.404H114.492ZM116.46 227.788C116.46 229.212 117.34 230.188 118.684 230.188C120.06 230.188 120.876 229.196 120.876 227.788C120.876 226.38 120.06 225.372 118.684 225.372C117.34 225.372 116.46 226.364 116.46 227.788ZM127.935 231.948C125.583 231.948 123.935 230.236 123.935 227.788C123.935 225.308 125.551 223.596 127.871 223.596C130.239 223.596 131.743 225.18 131.743 227.644V228.236L125.791 228.252C125.935 229.644 126.671 230.348 127.967 230.348C129.039 230.348 129.743 229.932 129.967 229.18H131.775C131.439 230.908 129.999 231.948 127.935 231.948ZM127.887 225.196C126.735 225.196 126.031 225.82 125.839 227.004H129.807C129.807 225.916 129.055 225.196 127.887 225.196ZM135.257 231.74H133.305V223.836H135.113L135.273 224.86C135.769 224.06 136.729 223.596 137.801 223.596C139.785 223.596 140.809 224.828 140.809 226.876V231.74H138.857V227.34C138.857 226.012 138.201 225.372 137.193 225.372C135.993 225.372 135.257 226.204 135.257 227.484V231.74ZM145.975 231.948C143.687 231.948 142.263 230.268 142.263 227.82C142.263 225.356 143.703 223.596 146.087 223.596C147.191 223.596 148.167 224.06 148.663 224.844V219.836H150.599V231.74H148.807L148.679 230.508C148.199 231.42 147.175 231.948 145.975 231.948ZM146.407 230.156C147.767 230.156 148.647 229.18 148.647 227.756C148.647 226.332 147.767 225.34 146.407 225.34C145.047 225.34 144.215 226.348 144.215 227.756C144.215 229.164 145.047 230.156 146.407 230.156ZM153.609 222.252C152.937 222.252 152.409 221.724 152.409 221.068C152.409 220.412 152.937 219.9 153.609 219.9C154.249 219.9 154.777 220.412 154.777 221.068C154.777 221.724 154.249 222.252 153.609 222.252ZM152.633 231.74V223.836H154.585V231.74H152.633ZM159.29 231.74H157.338V225.468H155.818V223.836H157.338V221.372H159.29V223.836H160.826V225.468H159.29V231.74ZM167.399 223.836H169.351V231.74H167.543L167.399 230.684C166.919 231.436 165.895 231.948 164.839 231.948C163.015 231.948 161.943 230.716 161.943 228.78V223.836H163.895V228.092C163.895 229.596 164.487 230.204 165.575 230.204C166.807 230.204 167.399 229.484 167.399 227.98V223.836ZM176.327 223.804V225.612H175.607C174.199 225.612 173.319 226.364 173.319 227.9V231.74H171.367V223.852H173.207L173.319 225.004C173.655 224.22 174.407 223.692 175.463 223.692C175.735 223.692 176.007 223.724 176.327 223.804ZM180.919 231.948C178.567 231.948 176.919 230.236 176.919 227.788C176.919 225.308 178.535 223.596 180.855 223.596C183.223 223.596 184.727 225.18 184.727 227.644V228.236L178.775 228.252C178.919 229.644 179.655 230.348 180.951 230.348C182.023 230.348 182.727 229.932 182.951 229.18H184.759C184.423 230.908 182.983 231.948 180.919 231.948ZM180.871 225.196C179.719 225.196 179.015 225.82 178.823 227.004H182.791C182.791 225.916 182.039 225.196 180.871 225.196Z" fill="#637381"/>
<path d="M26.56 263.851H19.296V252.155H26.56V254.043H21.344V257.051H26.016V258.859H21.344V261.963H26.56V263.851ZM29.8684 263.851H27.6444L30.3644 259.979L27.6444 255.947H29.9164L31.6604 258.635L33.3404 255.947H35.5324L32.8444 259.947L35.4524 263.851H33.2124L31.5324 261.243L29.8684 263.851ZM35.8721 259.883C35.8721 257.435 37.4881 255.707 39.8241 255.707C41.9841 255.707 43.4561 256.907 43.6641 258.811H41.7121C41.4881 257.915 40.8321 257.451 39.9041 257.451C38.6561 257.451 37.8241 258.395 37.8241 259.883C37.8241 261.371 38.5921 262.299 39.8401 262.299C40.8161 262.299 41.5041 261.819 41.7121 260.955H43.6801C43.4401 262.795 41.9041 264.059 39.8401 264.059C37.4401 264.059 35.8721 262.395 35.8721 259.883ZM48.669 264.059C46.317 264.059 44.669 262.347 44.669 259.899C44.669 257.419 46.285 255.707 48.605 255.707C50.973 255.707 52.477 257.291 52.477 259.755V260.347L46.525 260.363C46.669 261.755 47.405 262.459 48.701 262.459C49.773 262.459 50.477 262.043 50.701 261.291H52.509C52.173 263.019 50.733 264.059 48.669 264.059ZM48.621 257.307C47.469 257.307 46.765 257.931 46.573 259.115H50.541C50.541 258.027 49.789 257.307 48.621 257.307ZM53.4313 261.451H55.2873C55.3033 262.139 55.8153 262.571 56.7113 262.571C57.6233 262.571 58.1193 262.203 58.1193 261.627C58.1193 261.227 57.9113 260.939 57.2073 260.779L55.7833 260.443C54.3593 260.123 53.6713 259.451 53.6713 258.187C53.6713 256.635 54.9833 255.707 56.8073 255.707C58.5833 255.707 59.7833 256.731 59.7993 258.267H57.9433C57.9273 257.595 57.4793 257.163 56.7273 257.163C55.9593 257.163 55.5113 257.515 55.5113 258.107C55.5113 258.555 55.8633 258.843 56.5353 259.003L57.9593 259.339C59.2873 259.643 59.9593 260.251 59.9593 261.467C59.9593 263.067 58.5993 264.059 56.6473 264.059C54.6793 264.059 53.4313 263.003 53.4313 261.451ZM60.8375 261.451H62.6935C62.7095 262.139 63.2215 262.571 64.1175 262.571C65.0295 262.571 65.5255 262.203 65.5255 261.627C65.5255 261.227 65.3175 260.939 64.6135 260.779L63.1895 260.443C61.7655 260.123 61.0775 259.451 61.0775 258.187C61.0775 256.635 62.3895 255.707 64.2135 255.707C65.9895 255.707 67.1895 256.731 67.2055 258.267H65.3495C65.3335 257.595 64.8855 257.163 64.1335 257.163C63.3655 257.163 62.9175 257.515 62.9175 258.107C62.9175 258.555 63.2695 258.843 63.9415 259.003L65.3655 259.339C66.6935 259.643 67.3655 260.251 67.3655 261.467C67.3655 263.067 66.0055 264.059 64.0535 264.059C62.0855 264.059 60.8375 263.003 60.8375 261.451ZM74.1403 254.363C73.4683 254.363 72.9403 253.835 72.9403 253.179C72.9403 252.523 73.4683 252.011 74.1403 252.011C74.7803 252.011 75.3083 252.523 75.3083 253.179C75.3083 253.835 74.7803 254.363 74.1403 254.363ZM73.1643 263.851V255.947H75.1163V263.851H73.1643ZM79.085 263.851H77.133V255.947H78.941L79.101 256.971C79.597 256.171 80.557 255.707 81.629 255.707C83.613 255.707 84.637 256.939 84.637 258.987V263.851H82.685V259.451C82.685 258.123 82.029 257.483 81.021 257.483C79.821 257.483 79.085 258.315 79.085 259.595V263.851ZM93.5554 263.851H91.6034V257.579H90.0834V255.947H91.6034V253.483H93.5554V255.947H95.0914V257.579H93.5554V263.851ZM98.2569 263.851H96.3049V251.947H98.2729V256.971C98.7689 256.203 99.6969 255.707 100.833 255.707C102.785 255.707 103.809 256.939 103.809 258.987V263.851H101.857V259.451C101.857 258.123 101.201 257.483 100.209 257.483C98.9769 257.483 98.2569 258.347 98.2569 259.531V263.851ZM109.263 264.059C106.911 264.059 105.263 262.347 105.263 259.899C105.263 257.419 106.879 255.707 109.199 255.707C111.567 255.707 113.071 257.291 113.071 259.755V260.347L107.119 260.363C107.263 261.755 107.999 262.459 109.295 262.459C110.367 262.459 111.071 262.043 111.295 261.291H113.103C112.767 263.019 111.327 264.059 109.263 264.059ZM109.215 257.307C108.063 257.307 107.359 257.931 107.167 259.115H111.135C111.135 258.027 110.383 257.307 109.215 257.307ZM120.754 263.851H118.946V251.947H120.898V257.099C121.41 256.219 122.466 255.691 123.666 255.691C125.922 255.691 127.298 257.451 127.298 259.947C127.298 262.379 125.81 264.059 123.538 264.059C122.354 264.059 121.346 263.531 120.882 262.619L120.754 263.851ZM120.914 259.867C120.914 261.291 121.794 262.267 123.138 262.267C124.514 262.267 125.33 261.275 125.33 259.867C125.33 258.459 124.514 257.451 123.138 257.451C121.794 257.451 120.914 258.443 120.914 259.867ZM131.204 264.059C129.524 264.059 128.5 263.083 128.5 261.595C128.5 260.139 129.556 259.227 131.428 259.083L133.796 258.907V258.731C133.796 257.659 133.156 257.227 132.164 257.227C131.012 257.227 130.372 257.707 130.372 258.539H128.708C128.708 256.827 130.116 255.707 132.26 255.707C134.388 255.707 135.7 256.859 135.7 259.051V263.851H133.988L133.844 262.683C133.508 263.499 132.436 264.059 131.204 264.059ZM131.844 262.587C133.044 262.587 133.812 261.867 133.812 260.651V260.235L132.164 260.363C130.948 260.475 130.484 260.875 130.484 261.515C130.484 262.235 130.964 262.587 131.844 262.587ZM139.569 263.851H137.617V255.947H139.425L139.585 256.971C140.081 256.171 141.041 255.707 142.113 255.707C144.097 255.707 145.121 256.939 145.121 258.987V263.851H143.169V259.451C143.169 258.123 142.513 257.483 141.505 257.483C140.305 257.483 139.569 258.315 139.569 259.595V263.851ZM149.007 263.851H147.071V251.947H149.007V259.259L152.079 255.947H154.527L151.519 259.083L154.463 263.851H152.223L150.159 260.523L149.007 261.723V263.851Z" fill="#637381"/>
<path d="M299.348 169.045V167.717C297.124 167.557 295.7 166.261 295.652 164.309H297.7C297.716 165.221 298.308 165.797 299.348 165.925V162.517L298.836 162.405C296.82 161.973 295.812 160.853 295.812 159.093C295.812 157.221 297.22 155.877 299.348 155.653V154.293H300.58V155.653C302.596 155.861 303.844 157.125 303.908 159.045H301.924C301.892 158.181 301.412 157.621 300.58 157.445V160.885L301.124 161.013C303.172 161.461 304.1 162.453 304.1 164.149C304.1 166.101 302.724 167.445 300.58 167.685V169.045H299.348ZM299.284 160.597L299.348 160.613V157.429C298.388 157.589 297.812 158.165 297.812 159.029C297.812 159.877 298.26 160.373 299.284 160.597ZM300.692 162.805L300.58 162.773V165.893C301.54 165.701 302.116 165.141 302.116 164.325C302.116 163.509 301.652 163.013 300.692 162.805ZM313.504 167.509L305.392 167.525V165.989L309.216 162.757C310.8 161.413 311.328 160.645 311.328 159.525C311.328 158.197 310.608 157.445 309.376 157.445C308.096 157.445 307.296 158.341 307.28 159.845H305.248C305.264 157.285 306.896 155.621 309.376 155.621C311.872 155.621 313.424 157.045 313.424 159.413C313.424 161.045 312.528 162.277 310.752 163.797L308.64 165.605H313.504V167.509ZM318.332 161.733H316.908V160.405L319.916 157.637H315.052V155.829H322.476V157.461L319.628 160.085C321.42 160.437 322.812 161.749 322.812 163.813C322.812 166.213 320.94 167.733 318.572 167.733C316.284 167.733 314.508 166.325 314.508 163.797H316.524C316.524 165.141 317.356 165.909 318.604 165.909C319.884 165.909 320.732 165.077 320.732 163.781C320.732 162.597 319.964 161.733 318.332 161.733ZM326.772 166.821C326.772 168.149 325.812 169.205 324.516 169.365V168.581C325.236 168.453 325.78 168.021 325.78 167.461C325.652 167.525 325.508 167.557 325.316 167.557C324.692 167.557 324.18 167.093 324.18 166.453C324.18 165.685 324.676 165.173 325.396 165.173C326.196 165.173 326.772 165.829 326.772 166.821ZM329.338 157.669H326.778V155.829H331.306V167.525H329.338V157.669ZM333.172 164.213C333.172 162.821 333.956 161.701 335.172 161.237C334.148 160.773 333.588 159.893 333.588 158.757C333.588 156.901 335.236 155.621 337.652 155.621C340.052 155.621 341.668 156.885 341.668 158.789C341.668 159.925 341.092 160.805 340.052 161.237C341.284 161.669 342.084 162.805 342.084 164.213C342.084 166.325 340.34 167.717 337.62 167.717C334.916 167.717 333.172 166.341 333.172 164.213ZM335.444 158.933C335.444 159.909 336.292 160.533 337.62 160.533C338.932 160.533 339.764 159.925 339.764 158.949C339.764 157.973 338.932 157.365 337.62 157.365C336.292 157.365 335.444 157.973 335.444 158.933ZM335.172 164.069C335.172 165.205 336.116 165.909 337.636 165.909C339.124 165.909 340.068 165.205 340.068 164.069C340.068 162.933 339.124 162.229 337.62 162.229C336.116 162.229 335.172 162.933 335.172 164.069ZM350.318 164.085L347.79 167.525H345.454L348.254 163.797C347.966 163.877 347.662 163.925 347.374 163.925C344.958 163.925 343.326 162.229 343.326 159.861C343.326 157.365 345.182 155.621 347.678 155.621C350.206 155.621 352.094 157.477 352.094 159.877C352.094 161.285 351.63 162.309 350.318 164.085ZM349.998 159.861C349.998 158.437 349.054 157.445 347.678 157.445C346.334 157.445 345.39 158.437 345.39 159.861C345.39 161.269 346.334 162.245 347.678 162.245C349.07 162.245 349.998 161.269 349.998 159.861ZM354.414 167.717C353.71 167.717 353.118 167.141 353.118 166.453C353.118 165.749 353.71 165.173 354.414 165.173C355.118 165.173 355.71 165.749 355.71 166.453C355.71 167.141 355.118 167.717 354.414 167.717ZM360.753 161.733H359.329V160.405L362.337 157.637H357.473V155.829H364.897V157.461L362.049 160.085C363.841 160.437 365.233 161.749 365.233 163.813C365.233 166.213 363.361 167.733 360.993 167.733C358.705 167.733 356.929 166.325 356.929 163.797H358.945C358.945 165.141 359.777 165.909 361.025 165.909C362.305 165.909 363.153 165.077 363.153 163.781C363.153 162.597 362.385 161.733 360.753 161.733ZM366.407 161.701C366.407 158.069 368.359 155.605 371.351 155.605C374.343 155.605 376.311 158.069 376.311 161.701C376.311 165.317 374.455 167.733 371.351 167.733C368.247 167.733 366.407 165.317 366.407 161.701ZM368.423 161.701C368.423 164.405 369.511 165.925 371.351 165.925C373.207 165.925 374.295 164.405 374.295 161.701C374.295 158.933 373.207 157.413 371.351 157.413C369.511 157.413 368.423 158.933 368.423 161.701Z" fill="#212B36"/>
<path d="M298.941 201.157V199.829C296.717 199.669 295.293 198.373 295.245 196.421H297.293C297.309 197.333 297.901 197.909 298.941 198.037V194.629L298.429 194.517C296.413 194.085 295.405 192.965 295.405 191.205C295.405 189.333 296.813 187.989 298.941 187.765V186.405H300.173V187.765C302.189 187.973 303.437 189.237 303.501 191.157H301.517C301.485 190.293 301.005 189.733 300.173 189.557V192.997L300.717 193.125C302.765 193.573 303.693 194.565 303.693 196.261C303.693 198.213 302.317 199.557 300.173 199.797V201.157H298.941ZM298.877 192.709L298.941 192.725V189.541C297.981 189.701 297.405 190.277 297.405 191.141C297.405 191.989 297.853 192.485 298.877 192.709ZM300.285 194.917L300.173 194.885V198.005C301.133 197.813 301.709 197.253 301.709 196.437C301.709 195.621 301.245 195.125 300.285 194.917ZM304.362 187.941H312.762V189.829L308.522 199.637H306.394L310.714 189.829H304.362V187.941ZM313.768 187.941H322.168V189.829L317.928 199.637H315.8L320.12 189.829H313.768V187.941ZM324.225 198.933C324.225 200.261 323.265 201.317 321.969 201.477V200.693C322.689 200.565 323.233 200.133 323.233 199.573C323.105 199.637 322.961 199.669 322.769 199.669C322.145 199.669 321.633 199.205 321.633 198.565C321.633 197.797 322.129 197.285 322.849 197.285C323.649 197.285 324.225 197.941 324.225 198.933ZM329.269 193.845H327.845V192.517L330.853 189.749H325.989V187.941H333.413V189.573L330.565 192.197C332.357 192.549 333.749 193.861 333.749 195.925C333.749 198.325 331.877 199.845 329.509 199.845C327.221 199.845 325.445 198.437 325.445 195.909H327.461C327.461 197.253 328.293 198.021 329.541 198.021C330.821 198.021 331.669 197.189 331.669 195.893C331.669 194.709 330.901 193.845 329.269 193.845ZM342.879 199.621L334.767 199.637V198.101L338.591 194.869C340.175 193.525 340.703 192.757 340.703 191.637C340.703 190.309 339.983 189.557 338.751 189.557C337.471 189.557 336.671 190.453 336.655 191.957H334.623C334.639 189.397 336.271 187.733 338.751 187.733C341.247 187.733 342.799 189.157 342.799 191.525C342.799 193.157 341.903 194.389 340.127 195.909L338.015 197.717H342.879V199.621ZM343.518 187.941H351.918V189.829L347.678 199.637H345.55L349.87 189.829H343.518V187.941ZM352.679 199.829C351.975 199.829 351.383 199.253 351.383 198.565C351.383 197.861 351.975 197.285 352.679 197.285C353.383 197.285 353.975 197.861 353.975 198.565C353.975 199.253 353.383 199.829 352.679 199.829ZM355.126 193.813C355.126 190.181 357.078 187.717 360.07 187.717C363.062 187.717 365.03 190.181 365.03 193.813C365.03 197.429 363.174 199.845 360.07 199.845C356.966 199.845 355.126 197.429 355.126 193.813ZM357.142 193.813C357.142 196.517 358.23 198.037 360.07 198.037C361.926 198.037 363.014 196.517 363.014 193.813C363.014 191.045 361.926 189.525 360.07 189.525C358.23 189.525 357.142 191.045 357.142 193.813ZM366.407 193.813C366.407 190.181 368.359 187.717 371.351 187.717C374.343 187.717 376.311 190.181 376.311 193.813C376.311 197.429 374.455 199.845 371.351 199.845C368.247 199.845 366.407 197.429 366.407 193.813ZM368.423 193.813C368.423 196.517 369.511 198.037 371.351 198.037C373.207 198.037 374.295 196.517 374.295 193.813C374.295 191.045 373.207 189.525 371.351 189.525C369.511 189.525 368.423 191.045 368.423 193.813Z" fill="#212B36"/>
<path d="M294.066 233.267V231.939C291.842 231.779 290.418 230.483 290.37 228.531H292.418C292.434 229.443 293.026 230.019 294.066 230.147V226.739L293.554 226.627C291.538 226.195 290.53 225.075 290.53 223.315C290.53 221.443 291.938 220.099 294.066 219.875V218.515H295.298V219.875C297.314 220.083 298.562 221.347 298.626 223.267H296.642C296.61 222.403 296.13 221.843 295.298 221.667V225.107L295.842 225.235C297.89 225.683 298.818 226.675 298.818 228.371C298.818 230.323 297.442 231.667 295.298 231.907V233.267H294.066ZM294.002 224.819L294.066 224.835V221.651C293.106 221.811 292.53 222.387 292.53 223.251C292.53 224.099 292.978 224.595 294.002 224.819ZM295.41 227.027L295.298 226.995V230.115C296.258 229.923 296.834 229.363 296.834 228.547C296.834 227.731 296.37 227.235 295.41 227.027ZM309.119 229.523H307.695V231.747H305.759V229.523H299.823V227.731L305.119 220.051H307.695V227.731H309.119V229.523ZM301.999 227.731H305.759V222.259L301.999 227.731ZM311.868 223.491L314.396 220.051H316.732L313.932 223.779C314.22 223.699 314.524 223.651 314.812 223.651C317.228 223.651 318.86 225.347 318.86 227.715C318.86 230.211 317.004 231.955 314.508 231.955C311.98 231.955 310.092 230.099 310.092 227.699C310.092 226.291 310.556 225.267 311.868 223.491ZM312.188 227.715C312.188 229.139 313.132 230.131 314.508 230.131C315.836 230.131 316.796 229.139 316.796 227.715C316.796 226.307 315.852 225.331 314.508 225.331C313.116 225.331 312.188 226.307 312.188 227.715ZM322.804 231.043C322.804 232.371 321.844 233.427 320.548 233.587V232.803C321.268 232.675 321.812 232.243 321.812 231.683C321.684 231.747 321.539 231.779 321.348 231.779C320.724 231.779 320.212 231.315 320.212 230.675C320.212 229.907 320.708 229.395 321.428 229.395C322.228 229.395 322.804 230.051 322.804 231.043ZM327.847 225.955H326.423V224.627L329.431 221.859H324.567V220.051H331.991V221.683L329.143 224.307C330.935 224.659 332.327 225.971 332.327 228.035C332.327 230.435 330.455 231.955 328.087 231.955C325.799 231.955 324.023 230.547 324.023 228.019H326.039C326.039 229.363 326.871 230.131 328.119 230.131C329.399 230.131 330.247 229.299 330.247 228.003C330.247 226.819 329.479 225.955 327.847 225.955ZM333.128 220.051H341.528V221.939L337.288 231.747H335.16L339.48 221.939H333.128V220.051ZM342.141 228.435C342.141 227.043 342.925 225.923 344.141 225.459C343.117 224.995 342.557 224.115 342.557 222.979C342.557 221.123 344.205 219.843 346.621 219.843C349.021 219.843 350.637 221.107 350.637 223.011C350.637 224.147 350.061 225.027 349.021 225.459C350.253 225.891 351.053 227.027 351.053 228.435C351.053 230.547 349.309 231.939 346.589 231.939C343.885 231.939 342.141 230.563 342.141 228.435ZM344.413 223.155C344.413 224.131 345.261 224.755 346.589 224.755C347.901 224.755 348.733 224.147 348.733 223.171C348.733 222.195 347.901 221.587 346.589 221.587C345.261 221.587 344.413 222.195 344.413 223.155ZM344.141 228.291C344.141 229.427 345.085 230.131 346.605 230.131C348.093 230.131 349.037 229.427 349.037 228.291C349.037 227.155 348.093 226.451 346.589 226.451C345.085 226.451 344.141 227.155 344.141 228.291ZM353.945 231.939C353.241 231.939 352.649 231.363 352.649 230.675C352.649 229.971 353.241 229.395 353.945 229.395C354.649 229.395 355.241 229.971 355.241 230.675C355.241 231.363 354.649 231.939 353.945 231.939ZM358.149 223.491L360.677 220.051H363.013L360.213 223.779C360.501 223.699 360.805 223.651 361.093 223.651C363.509 223.651 365.141 225.347 365.141 227.715C365.141 230.211 363.285 231.955 360.789 231.955C358.261 231.955 356.373 230.099 356.373 227.699C356.373 226.291 356.837 225.267 358.149 223.491ZM358.469 227.715C358.469 229.139 359.413 230.131 360.789 230.131C362.117 230.131 363.077 229.139 363.077 227.715C363.077 226.307 362.133 225.331 360.789 225.331C359.397 225.331 358.469 226.307 358.469 227.715ZM366.407 225.923C366.407 222.291 368.359 219.827 371.351 219.827C374.343 219.827 376.311 222.291 376.311 225.923C376.311 229.539 374.455 231.955 371.351 231.955C368.247 231.955 366.407 229.539 366.407 225.923ZM368.423 225.923C368.423 228.627 369.511 230.147 371.351 230.147C373.207 230.147 374.295 228.627 374.295 225.923C374.295 223.155 373.207 221.635 371.351 221.635C369.511 221.635 368.423 223.155 368.423 225.923Z" fill="#212B36"/>
<path d="M289.676 265.377V264.049C287.452 263.889 286.028 262.593 285.98 260.641H288.028C288.044 261.553 288.636 262.129 289.676 262.257V258.849L289.164 258.737C287.148 258.305 286.14 257.185 286.14 255.425C286.14 253.553 287.548 252.209 289.676 251.985V250.625H290.908V251.985C292.924 252.193 294.172 253.457 294.236 255.377H292.252C292.22 254.513 291.74 253.953 290.908 253.777V257.217L291.452 257.345C293.5 257.793 294.428 258.785 294.428 260.481C294.428 262.433 293.052 263.777 290.908 264.017V265.377H289.676ZM289.612 256.929L289.676 256.945V253.761C288.716 253.921 288.14 254.497 288.14 255.361C288.14 256.209 288.588 256.705 289.612 256.929ZM291.02 259.137L290.908 259.105V262.225C291.868 262.033 292.444 261.473 292.444 260.657C292.444 259.841 291.98 259.345 291.02 259.137ZM298.088 254.001H295.528V252.161H300.056V263.857H298.088V254.001ZM303.711 255.601L306.239 252.161H308.575L305.775 255.889C306.063 255.809 306.367 255.761 306.655 255.761C309.071 255.761 310.703 257.457 310.703 259.825C310.703 262.321 308.847 264.065 306.351 264.065C303.823 264.065 301.935 262.209 301.935 259.809C301.935 258.401 302.399 257.377 303.711 255.601ZM304.031 259.825C304.031 261.249 304.975 262.241 306.351 262.241C307.679 262.241 308.639 261.249 308.639 259.825C308.639 258.417 307.695 257.441 306.351 257.441C304.959 257.441 304.031 258.417 304.031 259.825ZM310.55 252.161H318.95V254.049L314.71 263.857H312.582L316.902 254.049H310.55V252.161ZM321.007 263.153C321.007 264.481 320.047 265.537 318.751 265.697V264.913C319.471 264.785 320.015 264.353 320.015 263.793C319.887 263.857 319.743 263.889 319.551 263.889C318.927 263.889 318.415 263.425 318.415 262.785C318.415 262.017 318.911 261.505 319.631 261.505C320.431 261.505 321.007 262.161 321.007 263.153ZM323.914 255.601L326.443 252.161H328.779L325.979 255.889C326.266 255.809 326.571 255.761 326.859 255.761C329.275 255.761 330.907 257.457 330.907 259.825C330.907 262.321 329.051 264.065 326.555 264.065C324.027 264.065 322.139 262.209 322.139 259.809C322.139 258.401 322.603 257.377 323.914 255.601ZM324.235 259.825C324.235 261.249 325.179 262.241 326.555 262.241C327.883 262.241 328.843 261.249 328.843 259.825C328.843 258.417 327.899 257.441 326.555 257.441C325.163 257.441 324.235 258.417 324.235 259.825ZM336.142 264.049C333.694 264.049 332.078 262.481 332.078 260.113H334.11C334.11 261.441 334.894 262.225 336.19 262.225C337.566 262.225 338.446 261.329 338.446 259.905C338.446 258.545 337.63 257.617 336.222 257.617C335.326 257.617 334.51 258.065 334.094 258.673L332.286 258.289L333.726 252.161H339.822V254.049H335.198L334.574 256.481C335.134 256.113 335.838 255.905 336.638 255.905C338.974 255.905 340.526 257.489 340.526 259.793C340.526 262.321 338.75 264.049 336.142 264.049ZM345.736 264.049C343.288 264.049 341.672 262.481 341.672 260.113H343.704C343.704 261.441 344.488 262.225 345.784 262.225C347.16 262.225 348.04 261.329 348.04 259.905C348.04 258.545 347.224 257.617 345.816 257.617C344.92 257.617 344.104 258.065 343.688 258.673L341.88 258.289L343.32 252.161H349.416V254.049H344.792L344.168 256.481C344.728 256.113 345.432 255.905 346.232 255.905C348.568 255.905 350.12 257.489 350.12 259.793C350.12 262.321 348.344 264.049 345.736 264.049ZM352.679 264.049C351.975 264.049 351.383 263.473 351.383 262.785C351.383 262.081 351.975 261.505 352.679 261.505C353.383 261.505 353.975 262.081 353.975 262.785C353.975 263.473 353.383 264.049 352.679 264.049ZM355.126 258.033C355.126 254.401 357.078 251.937 360.07 251.937C363.062 251.937 365.03 254.401 365.03 258.033C365.03 261.649 363.174 264.065 360.07 264.065C356.966 264.065 355.126 261.649 355.126 258.033ZM357.142 258.033C357.142 260.737 358.23 262.257 360.07 262.257C361.926 262.257 363.014 260.737 363.014 258.033C363.014 255.265 361.926 253.745 360.07 253.745C358.23 253.745 357.142 255.265 357.142 258.033ZM366.407 258.033C366.407 254.401 368.359 251.937 371.351 251.937C374.343 251.937 376.311 254.401 376.311 258.033C376.311 261.649 374.455 264.065 371.351 264.065C368.247 264.065 366.407 261.649 366.407 258.033ZM368.423 258.033C368.423 260.737 369.511 262.257 371.351 262.257C373.207 262.257 374.295 260.737 374.295 258.033C374.295 255.265 373.207 253.745 371.351 253.745C369.511 253.745 368.423 255.265 368.423 258.033Z" fill="#212B36"/>
<rect x="4" y="103.557" width="387" height="0.892732" fill="#F4F6F8"/>
<mask id="path-14-inside-1_2951_37912" fill="white">
<path d="M18 38.1318H377V86.2978H18V38.1318Z"/>
</mask>
<path d="M18 38.1318H377V86.2978H18V38.1318Z" fill="#F4F6F8"/>
<path d="M377 85.2978H18V87.2978H377V85.2978Z" fill="#C4CDD5" mask="url(#path-14-inside-1_2951_37912)"/>
<path d="M24.276 52.1318L27.348 43.7318H29.076L32.148 52.1318H30.516L29.844 50.1878H26.568L25.884 52.1318H24.276ZM26.988 48.9878H29.424L28.2 45.4958L26.988 48.9878ZM35.7141 50.3558C35.4261 50.3558 35.1581 50.3238 34.9101 50.2598L34.4661 50.7038C34.6021 50.7758 34.7861 50.8358 35.0181 50.8838C35.2501 50.9318 35.6261 50.9798 36.1461 51.0278C36.9381 51.0998 37.5141 51.2878 37.8741 51.5918C38.2341 51.8958 38.4141 52.3158 38.4141 52.8518C38.4141 53.2038 38.3181 53.5358 38.1261 53.8478C37.9341 54.1678 37.6381 54.4238 37.2381 54.6158C36.8381 54.8158 36.3261 54.9158 35.7021 54.9158C34.8541 54.9158 34.1701 54.7558 33.6501 54.4358C33.1301 54.1238 32.8701 53.6518 32.8701 53.0198C32.8701 52.4838 33.1301 52.0198 33.6501 51.6278C33.4901 51.5558 33.3501 51.4798 33.2301 51.3998C33.1181 51.3198 33.0181 51.2358 32.9301 51.1478V50.8718L33.9741 49.7678C33.5101 49.3598 33.2781 48.8358 33.2781 48.1958C33.2781 47.7958 33.3741 47.4318 33.5661 47.1038C33.7661 46.7758 34.0461 46.5158 34.4061 46.3238C34.7661 46.1318 35.2021 46.0358 35.7141 46.0358C36.0501 46.0358 36.3621 46.0838 36.6501 46.1798H38.9061V47.1158L37.8861 47.1878C38.0461 47.4918 38.1261 47.8278 38.1261 48.1958C38.1261 48.5958 38.0301 48.9598 37.8381 49.2878C37.6461 49.6158 37.3661 49.8758 36.9981 50.0678C36.6381 50.2598 36.2101 50.3558 35.7141 50.3558ZM35.7141 49.1798C36.0261 49.1798 36.2821 49.0958 36.4821 48.9278C36.6901 48.7598 36.7941 48.5198 36.7941 48.2078C36.7941 47.8958 36.6901 47.6558 36.4821 47.4878C36.2821 47.3198 36.0261 47.2358 35.7141 47.2358C35.3861 47.2358 35.1221 47.3198 34.9221 47.4878C34.7221 47.6558 34.6221 47.8958 34.6221 48.2078C34.6221 48.5198 34.7221 48.7598 34.9221 48.9278C35.1221 49.0958 35.3861 49.1798 35.7141 49.1798ZM34.2741 52.8638C34.2741 53.1598 34.4101 53.3798 34.6821 53.5238C34.9621 53.6758 35.3021 53.7518 35.7021 53.7518C36.0861 53.7518 36.3981 53.6718 36.6381 53.5118C36.8781 53.3598 36.9981 53.1518 36.9981 52.8878C36.9981 52.6718 36.9181 52.4918 36.7581 52.3478C36.6061 52.2038 36.2981 52.1158 35.8341 52.0838C35.5061 52.0598 35.2021 52.0238 34.9221 51.9758C34.6901 52.1038 34.5221 52.2438 34.4181 52.3958C34.3221 52.5478 34.2741 52.7038 34.2741 52.8638ZM42.6837 52.2758C42.0837 52.2758 41.5517 52.1478 41.0877 51.8918C40.6237 51.6358 40.2597 51.2758 39.9957 50.8118C39.7317 50.3478 39.5997 49.8118 39.5997 49.2038C39.5997 48.5878 39.7277 48.0398 39.9837 47.5598C40.2477 47.0798 40.6077 46.7078 41.0637 46.4438C41.5277 46.1718 42.0717 46.0358 42.6957 46.0358C43.2797 46.0358 43.7957 46.1638 44.2437 46.4198C44.6917 46.6758 45.0397 47.0278 45.2877 47.4758C45.5437 47.9158 45.6717 48.4078 45.6717 48.9518C45.6717 49.0398 45.6677 49.1318 45.6597 49.2278C45.6597 49.3238 45.6557 49.4238 45.6477 49.5278H41.1237C41.1557 49.9918 41.3157 50.3558 41.6037 50.6198C41.8997 50.8838 42.2557 51.0158 42.6717 51.0158C42.9837 51.0158 43.2437 50.9478 43.4517 50.8118C43.6677 50.6678 43.8277 50.4838 43.9317 50.2598H45.4917C45.3797 50.6358 45.1917 50.9798 44.9277 51.2918C44.6717 51.5958 44.3517 51.8358 43.9677 52.0118C43.5917 52.1878 43.1637 52.2758 42.6837 52.2758ZM42.6957 47.2838C42.3197 47.2838 41.9877 47.3918 41.6997 47.6078C41.4117 47.8158 41.2277 48.1358 41.1477 48.5678H44.1117C44.0877 48.1758 43.9437 47.8638 43.6797 47.6318C43.4157 47.3998 43.0877 47.2838 42.6957 47.2838Z" fill="#637381"/>
<path d="M32.848 76.1158L24.736 76.1318V74.5958L28.56 71.3638C30.144 70.0198 30.672 69.2518 30.672 68.1318C30.672 66.8038 29.952 66.0518 28.72 66.0518C27.44 66.0518 26.64 66.9478 26.624 68.4518H24.592C24.608 65.8918 26.24 64.2278 28.72 64.2278C31.216 64.2278 32.768 65.6518 32.768 68.0198C32.768 69.6518 31.872 70.8838 30.096 72.4038L27.984 74.2118H32.848V76.1158ZM42.994 73.9078H41.57V76.1318H39.634V73.9078H33.698V72.1158L38.994 64.4358H41.57V72.1158H42.994V73.9078ZM35.874 72.1158H39.634V66.6438L35.874 72.1158ZM48.2263 79.7958V78.1638H49.3943C50.1623 78.1638 50.6423 77.9878 50.9783 77.0598L51.2023 76.4678L48.0183 68.2278H50.0823L52.1143 73.9878L54.2583 68.2278H56.2743L52.4023 77.8918C51.8103 79.3638 50.9783 79.9718 49.6823 79.9718C49.1383 79.9718 48.6583 79.9078 48.2263 79.7958ZM60.5596 76.3398C58.2076 76.3398 56.5596 74.6278 56.5596 72.1798C56.5596 69.6998 58.1756 67.9878 60.4956 67.9878C62.8636 67.9878 64.3676 69.5718 64.3676 72.0358V72.6278L58.4156 72.6438C58.5596 74.0358 59.2956 74.7398 60.5916 74.7398C61.6636 74.7398 62.3676 74.3238 62.5916 73.5718H64.3996C64.0636 75.2998 62.6236 76.3398 60.5596 76.3398ZM60.5116 69.5878C59.3596 69.5878 58.6556 70.2118 58.4636 71.3958H62.4316C62.4316 70.3078 61.6796 69.5878 60.5116 69.5878ZM68.2038 76.3398C66.5238 76.3398 65.4998 75.3638 65.4998 73.8758C65.4998 72.4198 66.5558 71.5078 68.4278 71.3638L70.7958 71.1878V71.0118C70.7958 69.9398 70.1558 69.5078 69.1638 69.5078C68.0118 69.5078 67.3718 69.9878 67.3718 70.8198H65.7078C65.7078 69.1078 67.1158 67.9878 69.2598 67.9878C71.3878 67.9878 72.6998 69.1398 72.6998 71.3318V76.1318H70.9878L70.8438 74.9638C70.5078 75.7798 69.4358 76.3398 68.2038 76.3398ZM68.8438 74.8678C70.0438 74.8678 70.8118 74.1478 70.8118 72.9318V72.5158L69.1638 72.6438C67.9478 72.7558 67.4838 73.1558 67.4838 73.7958C67.4838 74.5158 67.9638 74.8678 68.8438 74.8678ZM79.5774 68.1958V70.0038H78.8574C77.4494 70.0038 76.5694 70.7558 76.5694 72.2918V76.1318H74.6174V68.2438H76.4574L76.5694 69.3958C76.9054 68.6118 77.6574 68.0838 78.7134 68.0838C78.9854 68.0838 79.2574 68.1158 79.5774 68.1958ZM80.2906 73.7318H82.1466C82.1626 74.4198 82.6746 74.8518 83.5706 74.8518C84.4826 74.8518 84.9786 74.4838 84.9786 73.9078C84.9786 73.5078 84.7706 73.2198 84.0666 73.0598L82.6426 72.7238C81.2186 72.4038 80.5306 71.7318 80.5306 70.4678C80.5306 68.9158 81.8426 67.9878 83.6666 67.9878C85.4426 67.9878 86.6426 69.0118 86.6586 70.5478H84.8026C84.7866 69.8758 84.3386 69.4438 83.5866 69.4438C82.8186 69.4438 82.3706 69.7958 82.3706 70.3878C82.3706 70.8358 82.7226 71.1238 83.3946 71.2838L84.8186 71.6198C86.1466 71.9238 86.8186 72.5318 86.8186 73.7478C86.8186 75.3478 85.4586 76.3398 83.5066 76.3398C81.5386 76.3398 80.2906 75.2838 80.2906 73.7318ZM92.1534 72.1638C92.1534 69.6998 93.9294 68.0038 96.3774 68.0038C98.8254 68.0038 100.601 69.6998 100.601 72.1638C100.601 74.6278 98.8254 76.3238 96.3774 76.3238C93.9294 76.3238 92.1534 74.6278 92.1534 72.1638ZM94.1054 72.1638C94.1054 73.6038 95.0334 74.5798 96.3774 74.5798C97.7214 74.5798 98.6494 73.6038 98.6494 72.1638C98.6494 70.7238 97.7214 69.7478 96.3774 69.7478C95.0334 69.7478 94.1054 70.7238 94.1054 72.1638ZM104.117 76.1318H102.181V64.2278H104.117V76.1318ZM109.412 76.3398C107.124 76.3398 105.7 74.6598 105.7 72.2118C105.7 69.7478 107.14 67.9878 109.524 67.9878C110.628 67.9878 111.604 68.4518 112.1 69.2358V64.2278H114.036V76.1318H112.244L112.116 74.8998C111.636 75.8118 110.612 76.3398 109.412 76.3398ZM109.844 74.5478C111.204 74.5478 112.084 73.5718 112.084 72.1478C112.084 70.7238 111.204 69.7318 109.844 69.7318C108.484 69.7318 107.652 70.7398 107.652 72.1478C107.652 73.5558 108.484 74.5478 109.844 74.5478Z" fill="#212B36"/>
</g>
<defs>
<filter id="filter0_d_2951_37912" x="0" y="0" width="395" height="298.138" filterUnits="userSpaceOnUse" color-interpolation-filters="sRGB">
<feFlood flood-opacity="0" result="BackgroundImageFix"/>
<feColorMatrix in="SourceAlpha" type="matrix" values="0 0 0 0 0 0 0 0 0 0 0 0 0 0 0 0 0 0 127 0" result="hardAlpha"/>
<feOffset dy="4"/>
<feGaussianBlur stdDeviation="2"/>
<feComposite in2="hardAlpha" operator="out"/>
<feColorMatrix type="matrix" values="0 0 0 0 0 0 0 0 0 0 0 0 0 0 0 0 0 0 0.5 0"/>
<feBlend mode="normal" in2="BackgroundImageFix" result="effect1_dropShadow_2951_37912"/>
<feBlend mode="normal" in="SourceGraphic" in2="effect1_dropShadow_2951_37912" result="shape"/>
</filter>
</defs>
</svg>
