<svg width="347" height="319" viewBox="0 0 347 319" fill="none" xmlns="http://www.w3.org/2000/svg">
<g filter="url(#filter0_d_2951_37860)">
<rect x="4" width="338.433" height="310.616" rx="21" fill="white"/>
<rect x="19.4531" y="35.543" width="311.389" height="0.772678" fill="#DFE3E8"/>
<path d="M16.772 69V61.836H14.324V60.6H20.768V61.836H18.308V69H16.772ZM23.6477 69.144C23.0717 69.144 22.5517 69.012 22.0877 68.748C21.6317 68.484 21.2677 68.12 20.9957 67.656C20.7317 67.184 20.5997 66.64 20.5997 66.024C20.5997 65.408 20.7357 64.868 21.0077 64.404C21.2797 63.932 21.6437 63.564 22.0997 63.3C22.5637 63.036 23.0837 62.904 23.6597 62.904C24.2277 62.904 24.7397 63.036 25.1957 63.3C25.6597 63.564 26.0237 63.932 26.2877 64.404C26.5597 64.868 26.6957 65.408 26.6957 66.024C26.6957 66.64 26.5597 67.184 26.2877 67.656C26.0237 68.12 25.6597 68.484 25.1957 68.748C24.7317 69.012 24.2157 69.144 23.6477 69.144ZM23.6477 67.812C24.0477 67.812 24.3957 67.664 24.6917 67.368C24.9877 67.064 25.1357 66.616 25.1357 66.024C25.1357 65.432 24.9877 64.988 24.6917 64.692C24.3957 64.388 24.0517 64.236 23.6597 64.236C23.2517 64.236 22.8997 64.388 22.6037 64.692C22.3157 64.988 22.1717 65.432 22.1717 66.024C22.1717 66.616 22.3157 67.064 22.6037 67.368C22.8997 67.664 23.2477 67.812 23.6477 67.812ZM30.4867 69C29.8627 69 29.3627 68.848 28.9867 68.544C28.6107 68.24 28.4227 67.7 28.4227 66.924V64.332H27.4027V63.048H28.4227L28.6027 61.452H29.9587V63.048H31.5667V64.332H29.9587V66.936C29.9587 67.224 30.0187 67.424 30.1387 67.536C30.2667 67.64 30.4827 67.692 30.7867 67.692H31.5307V69H30.4867ZM34.9375 69.144C34.4255 69.144 34.0055 69.064 33.6775 68.904C33.3495 68.736 33.1055 68.516 32.9455 68.244C32.7855 67.972 32.7055 67.672 32.7055 67.344C32.7055 66.792 32.9215 66.344 33.3535 66C33.7855 65.656 34.4335 65.484 35.2975 65.484H36.8095V65.34C36.8095 64.932 36.6935 64.632 36.4615 64.44C36.2295 64.248 35.9415 64.152 35.5975 64.152C35.2855 64.152 35.0135 64.228 34.7815 64.38C34.5495 64.524 34.4055 64.74 34.3495 65.028H32.8495C32.8895 64.596 33.0335 64.22 33.2815 63.9C33.5375 63.58 33.8655 63.336 34.2655 63.168C34.6655 62.992 35.1135 62.904 35.6095 62.904C36.4575 62.904 37.1255 63.116 37.6135 63.54C38.1015 63.964 38.3455 64.564 38.3455 65.34V69H37.0375L36.8935 68.04C36.7175 68.36 36.4695 68.624 36.1495 68.832C35.8375 69.04 35.4335 69.144 34.9375 69.144ZM35.2855 67.944C35.7255 67.944 36.0655 67.8 36.3055 67.512C36.5535 67.224 36.7095 66.868 36.7735 66.444H35.4655C35.0575 66.444 34.7655 66.52 34.5895 66.672C34.4135 66.816 34.3255 66.996 34.3255 67.212C34.3255 67.444 34.4135 67.624 34.5895 67.752C34.7655 67.88 34.9975 67.944 35.2855 67.944ZM39.8113 69V60.36H41.3473V69H39.8113Z" fill="#637381"/>
<path d="M48.546 62.622C48.546 60.83 50.03 59.584 52.186 59.584C54.258 59.584 55.574 60.732 55.63 62.58H53.838C53.796 61.698 53.166 61.18 52.158 61.18C51.052 61.18 50.338 61.712 50.338 62.566C50.338 63.294 50.73 63.7 51.584 63.896L53.194 64.246C54.944 64.624 55.798 65.52 55.798 67.046C55.798 68.95 54.314 70.182 52.06 70.182C49.876 70.182 48.448 69.02 48.406 67.186H50.198C50.212 68.054 50.912 68.572 52.06 68.572C53.25 68.572 54.006 68.054 54.006 67.2C54.006 66.514 53.656 66.108 52.816 65.926L51.192 65.562C49.456 65.184 48.546 64.19 48.546 62.622ZM61.8992 61.278C59.8692 61.278 58.7072 62.748 58.7072 64.96C58.7072 67.242 60.0232 68.488 61.9132 68.488C63.6912 68.488 64.7692 67.508 64.7692 65.87V65.828H61.6752V64.246H66.4352V70H64.9232L64.8112 68.824C64.2512 69.608 63.0892 70.154 61.7032 70.154C58.8332 70.154 56.8312 68.068 56.8312 64.918C56.8312 61.81 58.8612 59.598 61.9412 59.598C64.2792 59.598 66.0852 60.956 66.3792 63.042H64.4892C64.1672 61.838 63.1312 61.278 61.8992 61.278ZM72.0523 70H68.3703V59.766H71.9543C74.9783 59.766 77.0643 61.852 77.0643 64.904C77.0643 67.914 75.0203 70 72.0523 70ZM71.7863 61.418H70.1623V68.348H71.8843C73.9283 68.348 75.1743 67.032 75.1743 64.904C75.1743 62.734 73.9003 61.418 71.7863 61.418ZM89.115 69.986L82.017 70V68.656L85.363 65.828C86.749 64.652 87.211 63.98 87.211 63C87.211 61.838 86.581 61.18 85.503 61.18C84.383 61.18 83.683 61.964 83.669 63.28H81.891C81.905 61.04 83.333 59.584 85.503 59.584C87.687 59.584 89.045 60.83 89.045 62.902C89.045 64.33 88.261 65.408 86.707 66.738L84.859 68.32H89.115V69.986ZM96.2392 66.99L94.0272 70H91.9832L94.4332 66.738C94.1812 66.808 93.9152 66.85 93.6632 66.85C91.5492 66.85 90.1212 65.366 90.1212 63.294C90.1212 61.11 91.7452 59.584 93.9292 59.584C96.1412 59.584 97.7932 61.208 97.7932 63.308C97.7932 64.54 97.3872 65.436 96.2392 66.99ZM95.9592 63.294C95.9592 62.048 95.1332 61.18 93.9292 61.18C92.7532 61.18 91.9272 62.048 91.9272 63.294C91.9272 64.526 92.7532 65.38 93.9292 65.38C95.1472 65.38 95.9592 64.526 95.9592 63.294ZM98.3148 59.766H105.665V61.418L101.955 70H100.093L103.873 61.418H98.3148V59.766ZM107.465 69.384C107.465 70.546 106.625 71.47 105.491 71.61V70.924C106.121 70.812 106.597 70.434 106.597 69.944C106.485 70 106.359 70.028 106.191 70.028C105.645 70.028 105.197 69.622 105.197 69.062C105.197 68.39 105.631 67.942 106.261 67.942C106.961 67.942 107.465 68.516 107.465 69.384ZM114.669 66.99L112.457 70H110.413L112.863 66.738C112.611 66.808 112.345 66.85 112.093 66.85C109.979 66.85 108.551 65.366 108.551 63.294C108.551 61.11 110.175 59.584 112.359 59.584C114.571 59.584 116.223 61.208 116.223 63.308C116.223 64.54 115.817 65.436 114.669 66.99ZM114.389 63.294C114.389 62.048 113.563 61.18 112.359 61.18C111.183 61.18 110.357 62.048 110.357 63.294C110.357 64.526 111.183 65.38 112.359 65.38C113.577 65.38 114.389 64.526 114.389 63.294ZM120.177 64.932H118.931V63.77L121.563 61.348H117.307V59.766H123.803V61.194L121.311 63.49C122.879 63.798 124.097 64.946 124.097 66.752C124.097 68.852 122.459 70.182 120.387 70.182C118.385 70.182 116.831 68.95 116.831 66.738H118.595C118.595 67.914 119.323 68.586 120.415 68.586C121.535 68.586 122.277 67.858 122.277 66.724C122.277 65.688 121.605 64.932 120.177 64.932ZM124.797 59.766H132.147V61.418L128.437 70H126.575L130.355 61.418H124.797V59.766Z" fill="#212B36"/>
<path d="M26.49 25H20.134V14.766H26.49V16.418H21.926V19.05H26.014V20.632H21.926V23.348H26.49V25ZM29.3848 25H27.4388L29.8188 21.612L27.4388 18.084H29.4268L30.9528 20.436L32.4228 18.084H34.3408L31.9888 21.584L34.2708 25H32.3108L30.8408 22.718L29.3848 25ZM35.3586 28.206V18.084H36.9406L37.0526 19.134C37.4726 18.336 38.3826 17.874 39.4326 17.874C41.3786 17.874 42.6666 19.288 42.6666 21.458C42.6666 23.614 41.4906 25.182 39.4326 25.182C38.3966 25.182 37.5006 24.776 37.0666 24.076V28.206H35.3586ZM37.0806 21.542C37.0806 22.788 37.8506 23.642 39.0266 23.642C40.2306 23.642 40.9446 22.774 40.9446 21.542C40.9446 20.31 40.2306 19.428 39.0266 19.428C37.8506 19.428 37.0806 20.296 37.0806 21.542ZM47.1205 25.182C45.0625 25.182 43.6205 23.684 43.6205 21.542C43.6205 19.372 45.0345 17.874 47.0645 17.874C49.1365 17.874 50.4525 19.26 50.4525 21.416V21.934L45.2445 21.948C45.3705 23.166 46.0145 23.782 47.1485 23.782C48.0865 23.782 48.7025 23.418 48.8985 22.76H50.4805C50.1865 24.272 48.9265 25.182 47.1205 25.182ZM47.0785 19.274C46.0705 19.274 45.4545 19.82 45.2865 20.856H48.7585C48.7585 19.904 48.1005 19.274 47.0785 19.274ZM53.5275 25H51.8195V18.084H53.4015L53.5415 18.98C53.9755 18.28 54.8155 17.874 55.7535 17.874C57.4895 17.874 58.3855 18.952 58.3855 20.744V25H56.6775V21.15C56.6775 19.988 56.1035 19.428 55.2215 19.428C54.1715 19.428 53.5275 20.156 53.5275 21.276V25ZM59.4496 22.9H61.0736C61.0876 23.502 61.5356 23.88 62.3196 23.88C63.1176 23.88 63.5516 23.558 63.5516 23.054C63.5516 22.704 63.3696 22.452 62.7536 22.312L61.5076 22.018C60.2616 21.738 59.6596 21.15 59.6596 20.044C59.6596 18.686 60.8076 17.874 62.4036 17.874C63.9576 17.874 65.0076 18.77 65.0216 20.114H63.3976C63.3836 19.526 62.9916 19.148 62.3336 19.148C61.6616 19.148 61.2696 19.456 61.2696 19.974C61.2696 20.366 61.5776 20.618 62.1656 20.758L63.4116 21.052C64.5736 21.318 65.1616 21.85 65.1616 22.914C65.1616 24.314 63.9716 25.182 62.2636 25.182C60.5416 25.182 59.4496 24.258 59.4496 22.9ZM69.5561 25.182C67.4981 25.182 66.0561 23.684 66.0561 21.542C66.0561 19.372 67.4701 17.874 69.5001 17.874C71.5721 17.874 72.8881 19.26 72.8881 21.416V21.934L67.6801 21.948C67.8061 23.166 68.4501 23.782 69.5841 23.782C70.5221 23.782 71.1381 23.418 71.3341 22.76H72.9161C72.6221 24.272 71.3621 25.182 69.5561 25.182ZM69.5141 19.274C68.5061 19.274 67.8901 19.82 67.7221 20.856H71.1941C71.1941 19.904 70.5361 19.274 69.5141 19.274ZM79.6105 25H78.0285V14.584H79.7365V19.092C80.1845 18.322 81.1085 17.86 82.1585 17.86C84.1325 17.86 85.3365 19.4 85.3365 21.584C85.3365 23.712 84.0345 25.182 82.0465 25.182C81.0105 25.182 80.1285 24.72 79.7225 23.922L79.6105 25ZM79.7505 21.514C79.7505 22.76 80.5205 23.614 81.6965 23.614C82.9005 23.614 83.6145 22.746 83.6145 21.514C83.6145 20.282 82.9005 19.4 81.6965 19.4C80.5205 19.4 79.7505 20.268 79.7505 21.514ZM91.0365 18.056V19.638H90.4065C89.1745 19.638 88.4045 20.296 88.4045 21.64V25H86.6965V18.098H88.3065L88.4045 19.106C88.6985 18.42 89.3565 17.958 90.2805 17.958C90.5185 17.958 90.7565 17.986 91.0365 18.056ZM95.0541 25.182C92.9961 25.182 91.5541 23.684 91.5541 21.542C91.5541 19.372 92.9681 17.874 94.9981 17.874C97.0701 17.874 98.3861 19.26 98.3861 21.416V21.934L93.1781 21.948C93.3041 23.166 93.9481 23.782 95.0821 23.782C96.0201 23.782 96.6361 23.418 96.8321 22.76H98.4141C98.1201 24.272 96.8601 25.182 95.0541 25.182ZM95.0121 19.274C94.0041 19.274 93.3881 19.82 93.2201 20.856H96.6921C96.6921 19.904 96.0341 19.274 95.0121 19.274ZM101.743 25.182C100.273 25.182 99.3767 24.328 99.3767 23.026C99.3767 21.752 100.301 20.954 101.939 20.828L104.011 20.674V20.52C104.011 19.582 103.451 19.204 102.583 19.204C101.575 19.204 101.015 19.624 101.015 20.352H99.5587C99.5587 18.854 100.791 17.874 102.667 17.874C104.529 17.874 105.677 18.882 105.677 20.8V25H104.179L104.053 23.978C103.759 24.692 102.821 25.182 101.743 25.182ZM102.303 23.894C103.353 23.894 104.025 23.264 104.025 22.2V21.836L102.583 21.948C101.519 22.046 101.113 22.396 101.113 22.956C101.113 23.586 101.533 23.894 102.303 23.894ZM109.077 25H107.383V14.584H109.077V20.982L111.765 18.084H113.907L111.275 20.828L113.851 25H111.891L110.085 22.088L109.077 23.138V25ZM117.415 25.182C115.413 25.182 114.167 23.712 114.167 21.57C114.167 19.414 115.427 17.874 117.513 17.874C118.479 17.874 119.333 18.28 119.767 18.966V14.584H121.461V25H119.893L119.781 23.922C119.361 24.72 118.465 25.182 117.415 25.182ZM117.793 23.614C118.983 23.614 119.753 22.76 119.753 21.514C119.753 20.268 118.983 19.4 117.793 19.4C116.603 19.4 115.875 20.282 115.875 21.514C115.875 22.746 116.603 23.614 117.793 23.614ZM122.835 21.528C122.835 19.372 124.389 17.888 126.531 17.888C128.673 17.888 130.227 19.372 130.227 21.528C130.227 23.684 128.673 25.168 126.531 25.168C124.389 25.168 122.835 23.684 122.835 21.528ZM124.543 21.528C124.543 22.788 125.355 23.642 126.531 23.642C127.707 23.642 128.519 22.788 128.519 21.528C128.519 20.268 127.707 19.414 126.531 19.414C125.355 19.414 124.543 20.268 124.543 21.528ZM132.765 25L130.525 18.084H132.303L133.213 21.052C133.367 21.598 133.507 22.2 133.633 22.844C133.759 22.172 133.885 21.738 134.109 21.052L135.061 18.084H136.797L137.721 21.052C137.805 21.332 138.085 22.368 138.169 22.83C138.281 22.312 138.505 21.486 138.631 21.052L139.555 18.084H141.361L138.967 25H137.371L136.419 22.004C136.139 21.094 135.985 20.436 135.929 20.086C135.859 20.408 135.733 20.898 135.383 22.032L134.431 25H132.765ZM144.104 25H142.396V18.084H143.978L144.118 18.98C144.552 18.28 145.392 17.874 146.33 17.874C148.066 17.874 148.962 18.952 148.962 20.744V25H147.254V21.15C147.254 19.988 146.68 19.428 145.798 19.428C144.748 19.428 144.104 20.156 144.104 21.276V25Z" fill="#212B36"/>
<rect x="19" y="35" width="150" height="2" rx="1" fill="#139F13"/>
<path d="M29.1603 244.096C28.643 244.096 28.2003 243.976 27.8323 243.736C27.4643 243.491 27.179 243.152 26.9763 242.72C26.779 242.283 26.6803 241.776 26.6803 241.2C26.6803 240.629 26.779 240.125 26.9763 239.688C27.179 239.251 27.4643 238.912 27.8323 238.672C28.2003 238.427 28.643 238.304 29.1603 238.304C29.6776 238.304 30.1203 238.427 30.4883 238.672C30.8563 238.912 31.139 239.251 31.3363 239.688C31.539 240.125 31.6403 240.629 31.6403 241.2C31.6403 241.776 31.539 242.283 31.3363 242.72C31.139 243.152 30.8563 243.491 30.4883 243.736C30.1203 243.976 29.6776 244.096 29.1603 244.096ZM29.1603 243.176C29.5816 243.176 29.9256 243 30.1923 242.648C30.459 242.296 30.5923 241.813 30.5923 241.2C30.5923 240.587 30.459 240.104 30.1923 239.752C29.9256 239.4 29.5816 239.224 29.1603 239.224C28.7336 239.224 28.387 239.4 28.1203 239.752C27.859 240.104 27.7283 240.587 27.7283 241.2C27.7283 241.813 27.859 242.296 28.1203 242.648C28.387 243 28.7336 243.176 29.1603 243.176Z" fill="#637381"/>
<path d="M64.6494 263.096C64.2814 263.096 63.9481 263.032 63.6494 262.904C63.3508 262.771 63.1108 262.568 62.9294 262.296C62.7481 262.024 62.6521 261.683 62.6414 261.272H63.6494C63.6548 261.544 63.7428 261.773 63.9134 261.96C64.0894 262.141 64.3348 262.232 64.6494 262.232C64.9481 262.232 65.1774 262.149 65.3374 261.984C65.4974 261.819 65.5774 261.611 65.5774 261.36C65.5774 261.067 65.4708 260.845 65.2574 260.696C65.0494 260.541 64.7801 260.464 64.4494 260.464H64.0334V259.624H64.4574C64.7294 259.624 64.9561 259.56 65.1374 259.432C65.3188 259.304 65.4094 259.115 65.4094 258.864C65.4094 258.656 65.3401 258.491 65.2014 258.368C65.0681 258.24 64.8814 258.176 64.6414 258.176C64.3801 258.176 64.1748 258.253 64.0254 258.408C63.8814 258.563 63.8014 258.752 63.7854 258.976H62.7854C62.8068 258.459 62.9854 258.051 63.3214 257.752C63.6628 257.453 64.1028 257.304 64.6414 257.304C65.0254 257.304 65.3481 257.373 65.6094 257.512C65.8761 257.645 66.0761 257.824 66.2094 258.048C66.3481 258.272 66.4174 258.52 66.4174 258.792C66.4174 259.107 66.3294 259.373 66.1534 259.592C65.9828 259.805 65.7694 259.949 65.5134 260.024C65.8281 260.088 66.0841 260.243 66.2814 260.488C66.4788 260.728 66.5774 261.032 66.5774 261.4C66.5774 261.709 66.5028 261.992 66.3534 262.248C66.2041 262.504 65.9854 262.709 65.6974 262.864C65.4148 263.019 65.0654 263.096 64.6494 263.096ZM69.5911 263.096C69.1804 263.096 68.8257 263.024 68.5271 262.88C68.2337 262.736 68.0017 262.539 67.8311 262.288C67.6657 262.032 67.5697 261.744 67.5431 261.424H68.5431C68.5911 261.653 68.7084 261.845 68.8951 262C69.0817 262.149 69.3137 262.224 69.5911 262.224C69.8897 262.224 70.1324 262.115 70.3191 261.896C70.5111 261.677 70.6071 261.405 70.6071 261.08C70.6071 260.744 70.5111 260.477 70.3191 260.28C70.1324 260.083 69.8951 259.984 69.6071 259.984C69.3671 259.984 69.1591 260.043 68.9831 260.16C68.8071 260.277 68.6817 260.424 68.6071 260.6H67.6231L68.1031 257.4H71.2071V258.296H68.8711L68.6151 259.592C68.7324 259.464 68.8924 259.36 69.0951 259.28C69.2977 259.195 69.5244 259.152 69.7751 259.152C70.1751 259.152 70.5084 259.243 70.7751 259.424C71.0417 259.6 71.2444 259.835 71.3831 260.128C71.5217 260.416 71.5911 260.731 71.5911 261.072C71.5911 261.461 71.5057 261.808 71.3351 262.112C71.1697 262.416 70.9351 262.656 70.6311 262.832C70.3324 263.008 69.9857 263.096 69.5911 263.096Z" fill="#637381"/>
<path d="M109.579 263.096C109.211 263.096 108.878 263.032 108.579 262.904C108.28 262.771 108.04 262.568 107.859 262.296C107.678 262.024 107.582 261.683 107.571 261.272H108.579C108.584 261.544 108.672 261.773 108.843 261.96C109.019 262.141 109.264 262.232 109.579 262.232C109.878 262.232 110.107 262.149 110.267 261.984C110.427 261.819 110.507 261.611 110.507 261.36C110.507 261.067 110.4 260.845 110.187 260.696C109.979 260.541 109.71 260.464 109.379 260.464H108.963V259.624H109.387C109.659 259.624 109.886 259.56 110.067 259.432C110.248 259.304 110.339 259.115 110.339 258.864C110.339 258.656 110.27 258.491 110.131 258.368C109.998 258.24 109.811 258.176 109.571 258.176C109.31 258.176 109.104 258.253 108.955 258.408C108.811 258.563 108.731 258.752 108.715 258.976H107.715C107.736 258.459 107.915 258.051 108.251 257.752C108.592 257.453 109.032 257.304 109.571 257.304C109.955 257.304 110.278 257.373 110.539 257.512C110.806 257.645 111.006 257.824 111.139 258.048C111.278 258.272 111.347 258.52 111.347 258.792C111.347 259.107 111.259 259.373 111.083 259.592C110.912 259.805 110.699 259.949 110.443 260.024C110.758 260.088 111.014 260.243 111.211 260.488C111.408 260.728 111.507 261.032 111.507 261.4C111.507 261.709 111.432 261.992 111.283 262.248C111.134 262.504 110.915 262.709 110.627 262.864C110.344 263.019 109.995 263.096 109.579 263.096ZM114.489 263.096C114.105 263.096 113.758 263.029 113.449 262.896C113.139 262.757 112.891 262.563 112.705 262.312C112.523 262.061 112.433 261.771 112.433 261.44C112.433 261.099 112.521 260.8 112.697 260.544C112.878 260.288 113.115 260.104 113.409 259.992C113.153 259.88 112.95 259.72 112.801 259.512C112.651 259.299 112.577 259.061 112.577 258.8C112.577 258.533 112.649 258.288 112.793 258.064C112.937 257.835 113.15 257.651 113.433 257.512C113.721 257.373 114.073 257.304 114.489 257.304C114.905 257.304 115.254 257.373 115.537 257.512C115.819 257.651 116.033 257.835 116.177 258.064C116.321 258.288 116.393 258.533 116.393 258.8C116.393 259.056 116.315 259.293 116.161 259.512C116.011 259.725 115.811 259.885 115.561 259.992C115.859 260.104 116.097 260.288 116.273 260.544C116.449 260.8 116.537 261.099 116.537 261.44C116.537 261.771 116.446 262.061 116.265 262.312C116.083 262.563 115.835 262.757 115.521 262.896C115.211 263.029 114.867 263.096 114.489 263.096ZM114.489 259.688C114.766 259.688 114.985 259.616 115.145 259.472C115.305 259.328 115.385 259.144 115.385 258.92C115.385 258.675 115.305 258.483 115.145 258.344C114.99 258.205 114.771 258.136 114.489 258.136C114.201 258.136 113.979 258.205 113.825 258.344C113.67 258.483 113.593 258.675 113.593 258.92C113.593 259.149 113.67 259.336 113.825 259.48C113.985 259.619 114.206 259.688 114.489 259.688ZM114.489 262.24C114.83 262.24 115.089 262.157 115.265 261.992C115.441 261.821 115.529 261.608 115.529 261.352C115.529 261.069 115.435 260.848 115.249 260.688C115.067 260.528 114.814 260.448 114.489 260.448C114.163 260.448 113.905 260.528 113.713 260.688C113.526 260.848 113.433 261.069 113.433 261.352C113.433 261.608 113.521 261.821 113.697 261.992C113.878 262.157 114.142 262.24 114.489 262.24Z" fill="#637381"/>
<path d="M155.221 263V261.96H152.461V261.144L155.085 257.4H156.245V261.072H156.981V261.96H156.245V263H155.221ZM153.557 261.072H155.285V258.528L153.557 261.072ZM158.394 263V258.568L157.474 258.784V258L158.826 257.4H159.458V263H158.394Z" fill="#637381"/>
<path d="M199.854 263V261.96H197.094V261.144L199.718 257.4H200.878V261.072H201.614V261.96H200.878V263H199.854ZM198.19 261.072H199.918V258.528L198.19 261.072ZM204.979 263V261.96H202.219V261.144L204.843 257.4H206.003V261.072H206.739V261.96H206.003V263H204.979ZM203.315 261.072H205.043V258.528L203.315 261.072Z" fill="#637381"/>
<path d="M245.706 263V261.96H242.946V261.144L245.57 257.4H246.73V261.072H247.466V261.96H246.73V263H245.706ZM244.042 261.072H245.77V258.528L244.042 261.072ZM248.591 263L250.703 258.272H247.943V257.4H251.759V258.128L249.655 263H248.591Z" fill="#637381"/>
<path d="M288.911 263.096C288.501 263.096 288.146 263.024 287.847 262.88C287.554 262.736 287.322 262.539 287.151 262.288C286.986 262.032 286.89 261.744 286.863 261.424H287.863C287.911 261.653 288.029 261.845 288.215 262C288.402 262.149 288.634 262.224 288.911 262.224C289.21 262.224 289.453 262.115 289.639 261.896C289.831 261.677 289.927 261.405 289.927 261.08C289.927 260.744 289.831 260.477 289.639 260.28C289.453 260.083 289.215 259.984 288.927 259.984C288.687 259.984 288.479 260.043 288.303 260.16C288.127 260.277 288.002 260.424 287.927 260.6H286.943L287.423 257.4H290.527V258.296H288.191L287.935 259.592C288.053 259.464 288.213 259.36 288.415 259.28C288.618 259.195 288.845 259.152 289.095 259.152C289.495 259.152 289.829 259.243 290.095 259.424C290.362 259.6 290.565 259.835 290.703 260.128C290.842 260.416 290.911 260.731 290.911 261.072C290.911 261.461 290.826 261.808 290.655 262.112C290.49 262.416 290.255 262.656 289.951 262.832C289.653 263.008 289.306 263.096 288.911 263.096ZM294.16 263.096C293.643 263.096 293.2 262.976 292.832 262.736C292.464 262.491 292.179 262.152 291.976 261.72C291.779 261.283 291.68 260.776 291.68 260.2C291.68 259.629 291.779 259.125 291.976 258.688C292.179 258.251 292.464 257.912 292.832 257.672C293.2 257.427 293.643 257.304 294.16 257.304C294.678 257.304 295.12 257.427 295.488 257.672C295.856 257.912 296.139 258.251 296.336 258.688C296.539 259.125 296.64 259.629 296.64 260.2C296.64 260.776 296.539 261.283 296.336 261.72C296.139 262.152 295.856 262.491 295.488 262.736C295.12 262.976 294.678 263.096 294.16 263.096ZM294.16 262.176C294.582 262.176 294.926 262 295.192 261.648C295.459 261.296 295.592 260.813 295.592 260.2C295.592 259.587 295.459 259.104 295.192 258.752C294.926 258.4 294.582 258.224 294.16 258.224C293.734 258.224 293.387 258.4 293.12 258.752C292.859 259.104 292.728 259.587 292.728 260.2C292.728 260.813 292.859 261.296 293.12 261.648C293.387 262 293.734 262.176 294.16 262.176Z" fill="#637381"/>
<path d="M14.4879 209V204.568L13.5679 204.784V204L14.9199 203.4H15.5519V209H14.4879ZM18.9338 209.096C18.4164 209.096 17.9738 208.976 17.6058 208.736C17.2378 208.491 16.9524 208.152 16.7498 207.72C16.5524 207.283 16.4538 206.776 16.4538 206.2C16.4538 205.629 16.5524 205.125 16.7498 204.688C16.9524 204.251 17.2378 203.912 17.6058 203.672C17.9738 203.427 18.4164 203.304 18.9338 203.304C19.4511 203.304 19.8938 203.427 20.2618 203.672C20.6298 203.912 20.9124 204.251 21.1098 204.688C21.3124 205.125 21.4138 205.629 21.4138 206.2C21.4138 206.776 21.3124 207.283 21.1098 207.72C20.9124 208.152 20.6298 208.491 20.2618 208.736C19.8938 208.976 19.4511 209.096 18.9338 209.096ZM18.9338 208.176C19.3551 208.176 19.6991 208 19.9658 207.648C20.2324 207.296 20.3658 206.813 20.3658 206.2C20.3658 205.587 20.2324 205.104 19.9658 204.752C19.6991 204.4 19.3551 204.224 18.9338 204.224C18.5071 204.224 18.1604 204.4 17.8938 204.752C17.6324 205.104 17.5018 205.587 17.5018 206.2C17.5018 206.813 17.6324 207.296 17.8938 207.648C18.1604 208 18.5071 208.176 18.9338 208.176ZM24.6134 209.096C24.0961 209.096 23.6534 208.976 23.2854 208.736C22.9174 208.491 22.6321 208.152 22.4294 207.72C22.2321 207.283 22.1334 206.776 22.1334 206.2C22.1334 205.629 22.2321 205.125 22.4294 204.688C22.6321 204.251 22.9174 203.912 23.2854 203.672C23.6534 203.427 24.0961 203.304 24.6134 203.304C25.1308 203.304 25.5734 203.427 25.9414 203.672C26.3094 203.912 26.5921 204.251 26.7894 204.688C26.9921 205.125 27.0934 205.629 27.0934 206.2C27.0934 206.776 26.9921 207.283 26.7894 207.72C26.5921 208.152 26.3094 208.491 25.9414 208.736C25.5734 208.976 25.1308 209.096 24.6134 209.096ZM24.6134 208.176C25.0348 208.176 25.3788 208 25.6454 207.648C25.9121 207.296 26.0454 206.813 26.0454 206.2C26.0454 205.587 25.9121 205.104 25.6454 204.752C25.3788 204.4 25.0348 204.224 24.6134 204.224C24.1868 204.224 23.8401 204.4 23.5734 204.752C23.3121 205.104 23.1814 205.587 23.1814 206.2C23.1814 206.813 23.3121 207.296 23.5734 207.648C23.8401 208 24.1868 208.176 24.6134 208.176ZM27.9731 209V203.24H28.9971V206.64L30.4051 205.032H31.6211L29.9971 206.84L31.8851 209H30.6051L28.9971 207.008V209H27.9731Z" fill="#637381"/>
<path d="M11.9705 174V173.256C12.3118 172.973 12.6425 172.693 12.9625 172.416C13.2878 172.139 13.5758 171.864 13.8265 171.592C14.0825 171.32 14.2852 171.056 14.4345 170.8C14.5892 170.539 14.6665 170.285 14.6665 170.04C14.6665 169.811 14.6025 169.608 14.4745 169.432C14.3518 169.256 14.1465 169.168 13.8585 169.168C13.5652 169.168 13.3438 169.264 13.1945 169.456C13.0452 169.648 12.9705 169.88 12.9705 170.152H11.9785C11.9892 169.741 12.0798 169.4 12.2505 169.128C12.4212 168.851 12.6478 168.645 12.9305 168.512C13.2132 168.373 13.5305 168.304 13.8825 168.304C14.4532 168.304 14.8958 168.461 15.2105 168.776C15.5305 169.085 15.6905 169.488 15.6905 169.984C15.6905 170.293 15.6185 170.595 15.4745 170.888C15.3358 171.181 15.1518 171.464 14.9225 171.736C14.6932 172.008 14.4452 172.264 14.1785 172.504C13.9118 172.739 13.6532 172.957 13.4025 173.16H15.8265V174H11.9705ZM18.9338 174.096C18.4164 174.096 17.9738 173.976 17.6058 173.736C17.2378 173.491 16.9524 173.152 16.7498 172.72C16.5524 172.283 16.4538 171.776 16.4538 171.2C16.4538 170.629 16.5524 170.125 16.7498 169.688C16.9524 169.251 17.2378 168.912 17.6058 168.672C17.9738 168.427 18.4164 168.304 18.9338 168.304C19.4511 168.304 19.8938 168.427 20.2618 168.672C20.6298 168.912 20.9124 169.251 21.1098 169.688C21.3124 170.125 21.4138 170.629 21.4138 171.2C21.4138 171.776 21.3124 172.283 21.1098 172.72C20.9124 173.152 20.6298 173.491 20.2618 173.736C19.8938 173.976 19.4511 174.096 18.9338 174.096ZM18.9338 173.176C19.3551 173.176 19.6991 173 19.9658 172.648C20.2324 172.296 20.3658 171.813 20.3658 171.2C20.3658 170.587 20.2324 170.104 19.9658 169.752C19.6991 169.4 19.3551 169.224 18.9338 169.224C18.5071 169.224 18.1604 169.4 17.8938 169.752C17.6324 170.104 17.5018 170.587 17.5018 171.2C17.5018 171.813 17.6324 172.296 17.8938 172.648C18.1604 173 18.5071 173.176 18.9338 173.176ZM24.6134 174.096C24.0961 174.096 23.6534 173.976 23.2854 173.736C22.9174 173.491 22.6321 173.152 22.4294 172.72C22.2321 172.283 22.1334 171.776 22.1334 171.2C22.1334 170.629 22.2321 170.125 22.4294 169.688C22.6321 169.251 22.9174 168.912 23.2854 168.672C23.6534 168.427 24.0961 168.304 24.6134 168.304C25.1308 168.304 25.5734 168.427 25.9414 168.672C26.3094 168.912 26.5921 169.251 26.7894 169.688C26.9921 170.125 27.0934 170.629 27.0934 171.2C27.0934 171.776 26.9921 172.283 26.7894 172.72C26.5921 173.152 26.3094 173.491 25.9414 173.736C25.5734 173.976 25.1308 174.096 24.6134 174.096ZM24.6134 173.176C25.0348 173.176 25.3788 173 25.6454 172.648C25.9121 172.296 26.0454 171.813 26.0454 171.2C26.0454 170.587 25.9121 170.104 25.6454 169.752C25.3788 169.4 25.0348 169.224 24.6134 169.224C24.1868 169.224 23.8401 169.4 23.5734 169.752C23.3121 170.104 23.1814 170.587 23.1814 171.2C23.1814 171.813 23.3121 172.296 23.5734 172.648C23.8401 173 24.1868 173.176 24.6134 173.176ZM27.9731 174V168.24H28.9971V171.64L30.4051 170.032H31.6211L29.9971 171.84L31.8851 174H30.6051L28.9971 172.008V174H27.9731Z" fill="#637381"/>
<path d="M13.7041 140.096C13.3361 140.096 13.0028 140.032 12.7041 139.904C12.4055 139.771 12.1655 139.568 11.9841 139.296C11.8028 139.024 11.7068 138.683 11.6961 138.272H12.7041C12.7095 138.544 12.7975 138.773 12.9681 138.96C13.1441 139.141 13.3895 139.232 13.7041 139.232C14.0028 139.232 14.2321 139.149 14.3921 138.984C14.5521 138.819 14.6321 138.611 14.6321 138.36C14.6321 138.067 14.5255 137.845 14.3121 137.696C14.1041 137.541 13.8348 137.464 13.5041 137.464H13.0881V136.624H13.5121C13.7841 136.624 14.0108 136.56 14.1921 136.432C14.3735 136.304 14.4641 136.115 14.4641 135.864C14.4641 135.656 14.3948 135.491 14.2561 135.368C14.1228 135.24 13.9361 135.176 13.6961 135.176C13.4348 135.176 13.2295 135.253 13.0801 135.408C12.9361 135.563 12.8561 135.752 12.8401 135.976H11.8401C11.8615 135.459 12.0401 135.051 12.3761 134.752C12.7175 134.453 13.1575 134.304 13.6961 134.304C14.0801 134.304 14.4028 134.373 14.6641 134.512C14.9308 134.645 15.1308 134.824 15.2641 135.048C15.4028 135.272 15.4721 135.52 15.4721 135.792C15.4721 136.107 15.3841 136.373 15.2081 136.592C15.0375 136.805 14.8241 136.949 14.5681 137.024C14.8828 137.088 15.1388 137.243 15.3361 137.488C15.5335 137.728 15.6321 138.032 15.6321 138.4C15.6321 138.709 15.5575 138.992 15.4081 139.248C15.2588 139.504 15.0401 139.709 14.7521 139.864C14.4695 140.019 14.1201 140.096 13.7041 140.096ZM18.9338 140.096C18.4164 140.096 17.9738 139.976 17.6058 139.736C17.2378 139.491 16.9524 139.152 16.7498 138.72C16.5524 138.283 16.4538 137.776 16.4538 137.2C16.4538 136.629 16.5524 136.125 16.7498 135.688C16.9524 135.251 17.2378 134.912 17.6058 134.672C17.9738 134.427 18.4164 134.304 18.9338 134.304C19.4511 134.304 19.8938 134.427 20.2618 134.672C20.6298 134.912 20.9124 135.251 21.1098 135.688C21.3124 136.125 21.4138 136.629 21.4138 137.2C21.4138 137.776 21.3124 138.283 21.1098 138.72C20.9124 139.152 20.6298 139.491 20.2618 139.736C19.8938 139.976 19.4511 140.096 18.9338 140.096ZM18.9338 139.176C19.3551 139.176 19.6991 139 19.9658 138.648C20.2324 138.296 20.3658 137.813 20.3658 137.2C20.3658 136.587 20.2324 136.104 19.9658 135.752C19.6991 135.4 19.3551 135.224 18.9338 135.224C18.5071 135.224 18.1604 135.4 17.8938 135.752C17.6324 136.104 17.5018 136.587 17.5018 137.2C17.5018 137.813 17.6324 138.296 17.8938 138.648C18.1604 139 18.5071 139.176 18.9338 139.176ZM24.6134 140.096C24.0961 140.096 23.6534 139.976 23.2854 139.736C22.9174 139.491 22.6321 139.152 22.4294 138.72C22.2321 138.283 22.1334 137.776 22.1334 137.2C22.1334 136.629 22.2321 136.125 22.4294 135.688C22.6321 135.251 22.9174 134.912 23.2854 134.672C23.6534 134.427 24.0961 134.304 24.6134 134.304C25.1308 134.304 25.5734 134.427 25.9414 134.672C26.3094 134.912 26.5921 135.251 26.7894 135.688C26.9921 136.125 27.0934 136.629 27.0934 137.2C27.0934 137.776 26.9921 138.283 26.7894 138.72C26.5921 139.152 26.3094 139.491 25.9414 139.736C25.5734 139.976 25.1308 140.096 24.6134 140.096ZM24.6134 139.176C25.0348 139.176 25.3788 139 25.6454 138.648C25.9121 138.296 26.0454 137.813 26.0454 137.2C26.0454 136.587 25.9121 136.104 25.6454 135.752C25.3788 135.4 25.0348 135.224 24.6134 135.224C24.1868 135.224 23.8401 135.4 23.5734 135.752C23.3121 136.104 23.1814 136.587 23.1814 137.2C23.1814 137.813 23.3121 138.296 23.5734 138.648C23.8401 139 24.1868 139.176 24.6134 139.176ZM27.9731 140V134.24H28.9971V137.64L30.4051 136.032H31.6211L29.9971 137.84L31.8851 140H30.6051L28.9971 138.008V140H27.9731Z" fill="#637381"/>
<path d="M14.0728 105V103.96H11.3128V103.144L13.9368 99.4H15.0968V103.072H15.8328V103.96H15.0968V105H14.0728ZM12.4088 103.072H14.1368V100.528L12.4088 103.072ZM18.9338 105.096C18.4164 105.096 17.9738 104.976 17.6058 104.736C17.2378 104.491 16.9524 104.152 16.7498 103.72C16.5524 103.283 16.4538 102.776 16.4538 102.2C16.4538 101.629 16.5524 101.125 16.7498 100.688C16.9524 100.251 17.2378 99.912 17.6058 99.672C17.9738 99.4267 18.4164 99.304 18.9338 99.304C19.4511 99.304 19.8938 99.4267 20.2618 99.672C20.6298 99.912 20.9124 100.251 21.1098 100.688C21.3124 101.125 21.4138 101.629 21.4138 102.2C21.4138 102.776 21.3124 103.283 21.1098 103.72C20.9124 104.152 20.6298 104.491 20.2618 104.736C19.8938 104.976 19.4511 105.096 18.9338 105.096ZM18.9338 104.176C19.3551 104.176 19.6991 104 19.9658 103.648C20.2324 103.296 20.3658 102.813 20.3658 102.2C20.3658 101.587 20.2324 101.104 19.9658 100.752C19.6991 100.4 19.3551 100.224 18.9338 100.224C18.5071 100.224 18.1604 100.4 17.8938 100.752C17.6324 101.104 17.5018 101.587 17.5018 102.2C17.5018 102.813 17.6324 103.296 17.8938 103.648C18.1604 104 18.5071 104.176 18.9338 104.176ZM24.6134 105.096C24.0961 105.096 23.6534 104.976 23.2854 104.736C22.9174 104.491 22.6321 104.152 22.4294 103.72C22.2321 103.283 22.1334 102.776 22.1334 102.2C22.1334 101.629 22.2321 101.125 22.4294 100.688C22.6321 100.251 22.9174 99.912 23.2854 99.672C23.6534 99.4267 24.0961 99.304 24.6134 99.304C25.1308 99.304 25.5734 99.4267 25.9414 99.672C26.3094 99.912 26.5921 100.251 26.7894 100.688C26.9921 101.125 27.0934 101.629 27.0934 102.2C27.0934 102.776 26.9921 103.283 26.7894 103.72C26.5921 104.152 26.3094 104.491 25.9414 104.736C25.5734 104.976 25.1308 105.096 24.6134 105.096ZM24.6134 104.176C25.0348 104.176 25.3788 104 25.6454 103.648C25.9121 103.296 26.0454 102.813 26.0454 102.2C26.0454 101.587 25.9121 101.104 25.6454 100.752C25.3788 100.4 25.0348 100.224 24.6134 100.224C24.1868 100.224 23.8401 100.4 23.5734 100.752C23.3121 101.104 23.1814 101.587 23.1814 102.2C23.1814 102.813 23.3121 103.296 23.5734 103.648C23.8401 104 24.1868 104.176 24.6134 104.176ZM27.9731 105V99.24H28.9971V102.64L30.4051 101.032H31.6211L29.9971 102.84L31.8851 105H30.6051L28.9971 103.008V105H27.9731Z" fill="#637381"/>
<path d="M45.7246 95.8125L45.7246 246.485" stroke="#C4CDD5"/>
<rect x="95.9473" y="190.852" width="25.4984" height="55.6328" fill="#139F13"/>
<rect x="58.0879" y="173.08" width="25.4984" height="73.4044" fill="#139F13"/>
<rect x="133.809" y="164.581" width="25.4984" height="81.9038" fill="#139F13"/>
<rect x="95.9473" y="152.99" width="25.4984" height="37.8612" fill="#4FD7EB"/>
<rect x="171.67" y="152.99" width="25.4984" height="93.494" fill="#139F13"/>
<rect x="133.809" y="107.402" width="25.4984" height="57.1782" fill="#4FD7EB"/>
<rect x="209.533" y="165.354" width="25.4984" height="81.1312" fill="#139F13"/>
<rect x="246.619" y="181.58" width="25.4984" height="64.9049" fill="#139F13"/>
<rect x="285.256" y="191.625" width="25.4984" height="54.8601" fill="#139F13"/>
<rect x="209.533" y="145.264" width="25.4984" height="20.0896" fill="#4FD7EB"/>
<rect x="246.619" y="165.354" width="25.4984" height="16.2262" fill="#4FD7EB"/>
<rect x="171.67" y="122.084" width="25.4984" height="30.9071" fill="#4FD7EB"/>
<rect x="285.256" y="176.943" width="25.4984" height="14.6809" fill="#4FD7EB"/>
<rect x="58.0879" y="122.084" width="25.4984" height="50.9967" fill="#4FD7EB"/>
<path d="M330.844 246.485L45.7257 246.485" stroke="#C4CDD5"/>
</g>
<defs>
<filter id="filter0_d_2951_37860" x="0" y="0" width="346.434" height="318.616" filterUnits="userSpaceOnUse" color-interpolation-filters="sRGB">
<feFlood flood-opacity="0" result="BackgroundImageFix"/>
<feColorMatrix in="SourceAlpha" type="matrix" values="0 0 0 0 0 0 0 0 0 0 0 0 0 0 0 0 0 0 127 0" result="hardAlpha"/>
<feOffset dy="4"/>
<feGaussianBlur stdDeviation="2"/>
<feComposite in2="hardAlpha" operator="out"/>
<feColorMatrix type="matrix" values="0 0 0 0 0 0 0 0 0 0 0 0 0 0 0 0 0 0 0.25 0"/>
<feBlend mode="normal" in2="BackgroundImageFix" result="effect1_dropShadow_2951_37860"/>
<feBlend mode="normal" in="SourceGraphic" in2="effect1_dropShadow_2951_37860" result="shape"/>
</filter>
</defs>
</svg>
